<svg id="Calque_1" data-name="Calque 1" xmlns="http://www.w3.org/2000/svg" viewBox="0 0 272.13 546.61"><path d="M883.52,562.67c-7.6.22-8.16,7.54-8.16,11.41q-.06,104.37,0,208.76c0,12.19-.22,28-11.94,28-37.79,0-19.92.6-71.8.6-12.31,0-13.77.3-13.77-12q0-113.43,0-226.88c0-11.38-.21-11.59-11.33-11.6-18.8,0-27.09,0-45.89,0-13.19,0-12.12-1.22-12.55-12.29-.64-16.21-.64-61.75-.63-75,0-5.16,1.66-6.84,6.8-6.77,18.11.25,36.23-.16,54.34.23,6.43.14,8.56-1.6,8.48-8.28-.3-25.72-.78-51.48.25-77.17,2.37-59.37,35-98.25,92.82-112.39,24.08-5.89,48.49-4.53,72.86-3.83,10.21.3,19.35,1.44,30.6,2.24,4.71.34,5.63,2.21,5.52,6.33-.65,25.72-1.24,51.44-1.6,77.17-.07,5.1-2.36,5.93-6.8,5.93-21.51,0-43-1.73-64.52.43-17.85,1.79-26.51,10.17-28.11,28-2.27,25.41-.44,50.9-1,76.35-.14,6.11,4,5,7.46,5q42.54.06,85.07,0c10.13,0,10.66.05,9.65,10.35-2.63,26.5-7.26,52.08-11.61,76-1.54,8.45-4.33,9-11.33,9.05C925.83,562.63,912.66,562.6,883.52,562.67Z" transform="translate(-707.4 -264.83)"/></svg>