<svg xmlns="http://www.w3.org/2000/svg" viewBox="0 0 948.93 831.17"><defs><style>.cls-1{fill:#4867aa;}.cls-2{fill:#4854aa;}.cls-3{fill:#fff;}</style></defs><g id="Calque_1" data-name="Calque 1"><path class="cls-1" d="M1416.7,574.93C1269.44,706.41,615.76,958,521.15,958c-87.6,0,88.42-575.15,154.34-781.35a71.62,71.62,0,0,1,4.29-10.51C1019,295.65,1412.71,488.89,1417,569.25A28.91,28.91,0,0,1,1416.7,574.93Z" transform="translate(-497.2 -126.83)"/><path class="cls-2" d="M1446.13,531.09c0,12.12-10.56,27-29.43,43.84a28.91,28.91,0,0,0,.28-5.68c-4.27-80.36-398-273.6-737.2-403.11,16.4-32.6,55.51-48.29,90.42-34C1054.47,248.26,1446.13,457.88,1446.13,531.09Z" transform="translate(-497.2 -126.83)"/><path class="cls-3" d="M956.56,477.23c.7-.78,4-3.36,16.81-3.36l42.1,0A24.86,24.86,0,0,0,1040.3,449V375.44a24.87,24.87,0,0,0-24.79-24.84L953,350.5c-38.6,0-71.41,12.73-94.88,36.82s-35.73,57.46-35.73,96.8v39.69H774.54a24.86,24.86,0,0,0-24.84,24.83v79.25a24.86,24.86,0,0,0,24.84,24.83h47.83V837.66a24.86,24.86,0,0,0,24.84,24.84h82A24.87,24.87,0,0,0,954,837.66V652.73h58.47a24.87,24.87,0,0,0,24.83-24.84l0-79.24a24.89,24.89,0,0,0-12.78-21.72,25.21,25.21,0,0,0-12.28-3.12H954V492.46C954,482.24,955.41,478.54,956.56,477.23Z" transform="translate(-497.2 -126.83)"/></g></svg>