<svg id="Calque_1" data-name="Calque 1" xmlns="http://www.w3.org/2000/svg" viewBox="0 0 563.73 564.33"><defs><style>.cls-1{fill:#f7f7f7;}</style></defs><path d="M1241.62,541.67c0,53.25.65,106.52-.16,159.76-1.2,79.58-41.2,119.94-120.9,120.6q-159.76,1.32-319.53,0c-81.54-.58-121.95-41.35-122.4-123q-.89-159.76.06-319.53c.59-79,41.66-119.95,121.12-120.6q159.75-1.32,319.53,0c81.71.59,121.23,40.83,122.17,123C1242.11,435.15,1241.62,488.41,1241.62,541.67Z" transform="translate(-678.13 -258.34)"/><path class="cls-1" d="M814.44,483.15c-21.59,80.57-3.15,146.3,67.08,189.74,55.32,34.21,114.13,31.51,166.87-6.24,61.86-44.28,78.59-110.68,58.2-183.19,40.81,0,63.91.1,63.91.1s20.41-3.2,20.16,39.43c0,48.52.7,131.41-.22,179.91-.88,46.47-20.94,67.41-67.19,67.78Q960,772,796.68,770.67c-45.51-.38-66.42-21.91-67.21-68.25-1.12-65.06.26-130.16-.66-195.23-.25-18,4.17-24.23,23.56-24.38C775.27,482.63,786.73,482.63,814.44,483.15Z" transform="translate(-678.13 -258.34)"/><path class="cls-1" d="M961.36,639.75c-52.76.65-98.79-42.77-100.24-94.53-1.59-56.76,42.59-103.84,97.94-104.39,55.54-.55,101,45.64,100.57,102.09C1059.19,594.61,1014,639.11,961.36,639.75Z" transform="translate(-678.13 -258.34)"/><path class="cls-1" d="M1081.3,369.61c0-47.61,0-47.61,52.79-47.59,42.15,0,42.15,0,42.12,55.13,0,42,0,42-55.06,42C1081.3,419.09,1081.3,419.09,1081.3,369.61Z" transform="translate(-678.13 -258.34)"/></svg>