<svg id="Calque_1" data-name="Calque 1" xmlns="http://www.w3.org/2000/svg" viewBox="0 0 347.91 304.74"><defs><style>.cls-1{fill:#fff;}</style></defs><path d="M897.8,392a26.13,26.13,0,0,0-34.72,16.33c-24.17,75.6-88.7,286.47-56.59,286.47,39.13,0,339.13-117.39,339.13-156.52C1145.62,511.42,1002,434.57,897.8,392Z" transform="translate(-797.71 -390.04)"/><path class="cls-1" d="M949.59,554.43a7.29,7.29,0,0,1,3.2,3.2,5.45,5.45,0,0,1,.68,1.69,32.2,32.2,0,0,1-3.29,10.37,29.19,29.19,0,0,1-4.64,6.5,22.81,22.81,0,0,1-5.91,4.38,33.8,33.8,0,0,1-9.36-3.62q-3.79-2.28-4.3-5.49a29.55,29.55,0,0,1-.08-6c.16-2.41.45-5,.84-7.67s.9-5.45,1.52-8.27,1.2-5.4,1.77-7.76c1.23-5.06,2.42-9.78,3.54-14.17s2.08-7.87,2.87-10.46c.34-1.12.36-1.82.08-2.11s-.31-.7-.08-1.26.5-.68,1.18-.68a.64.64,0,0,1,.42.09c.06.06.2.08.42.08a.5.5,0,0,1,.34.17c1,.34,2.42.9,4.22,1.69a19.78,19.78,0,0,1,4.89,3,1.17,1.17,0,0,1,.51.5,3.49,3.49,0,0,1,.17,1.86q-.86,2.52-2.79,9.28t-4.13,15q-1.7,6.75-2.62,12.4t-1.26,9.87a67,67,0,0,0-.68,9.11,14.93,14.93,0,0,0,6.84-5.57,38,38,0,0,0,3.79-7.25A33.52,33.52,0,0,0,949.59,554.43Z" transform="translate(-797.71 -390.04)"/><path class="cls-1" d="M994.12,554.43a9.24,9.24,0,0,1,2,1.6,5.73,5.73,0,0,1,1,1.6,5.19,5.19,0,0,1,.67,1.69,29.58,29.58,0,0,1-3.12,10.37,28.87,28.87,0,0,1-4.64,6.5,22.93,22.93,0,0,1-5.9,4.38,33.59,33.59,0,0,1-9.53-3.62c-2.53-1.52-4-3.35-4.3-5.49a15.2,15.2,0,0,1-.34-3.37c0-1.24,0-2.47.17-3.71q-1,2.7-1.94,5.4t-1.77,4.8c-.57,1.41-1.07,2.59-1.52,3.55a8.19,8.19,0,0,1-1,1.77,23.62,23.62,0,0,1-6.75.34,19.55,19.55,0,0,1-5.4-1.52,7.83,7.83,0,0,1-4-4.56,27.23,27.23,0,0,1-.34-4.38c0-1.35,0-3,.09-4.9a53,53,0,0,1,.59-6.24,69.72,69.72,0,0,1,2.11-9.44,54,54,0,0,1,3.45-9,25.71,25.71,0,0,1,4.64-6.66,8.92,8.92,0,0,1,6-2.78,14.49,14.49,0,0,1,4.39.34,26,26,0,0,1,4.22,1.18,14.82,14.82,0,0,1,4.55,2.69.48.48,0,0,0,.17.34v.51c-.23.23-.39.34-.51.34h-.33a18.89,18.89,0,0,0-3.63.42,7.75,7.75,0,0,0-4,2.27,23.87,23.87,0,0,0-4.56,6.92,54.14,54.14,0,0,0-3.29,9.36,55.67,55.67,0,0,0-1.6,10,40.52,40.52,0,0,0,.34,9.28,65.88,65.88,0,0,0,4.72-7.59q2-3.88,4.55-9.62a116.57,116.57,0,0,0,4.9-13.66c.22-1,.44-1.88.67-2.62s.39-1.37.51-1.94a2,2,0,0,0,.33-.5,1.18,1.18,0,0,1,1.19-.34,22.45,22.45,0,0,1,6.66,2.78,11.49,11.49,0,0,1,2.61,2.45,1.48,1.48,0,0,0,.17.67,2.59,2.59,0,0,0,.09.68,1.61,1.61,0,0,1-.09.84A128.24,128.24,0,0,0,983,559.23q-1,5.65-1.35,9.53a33.34,33.34,0,0,0-.17,7.43,15.46,15.46,0,0,0,6.92-5.57,35.51,35.51,0,0,0,3.88-7.25A33.13,33.13,0,0,0,994.12,554.43Z" transform="translate(-797.71 -390.04)"/><path class="cls-1" d="M1025,575.68a15.41,15.41,0,0,0,6.92-5.57,33.26,33.26,0,0,0,3.88-7.42,35.42,35.42,0,0,0,1.86-8.94,9.88,9.88,0,0,1,2.1,1.69,5.76,5.76,0,0,1,1.1,1.68,5.55,5.55,0,0,1,.68,1.69,31.53,31.53,0,0,1-3.29,10.29,29.61,29.61,0,0,1-4.64,6.41,22.8,22.8,0,0,1-5.91,4.39,33.91,33.91,0,0,1-9.44-3.54,8.41,8.41,0,0,1-4.39-5.57,38.25,38.25,0,0,1,.25-13.08c.85-5.11,1.88-10,3.12-14.59A53.55,53.55,0,0,0,1010.4,554a125.74,125.74,0,0,0-5,11.81q-2,5.66-3,9.7c-.68,2.7-1.07,4.22-1.18,4.56a.75.75,0,0,1-.85.84c-.79-.23-1.94-.48-3.46-.76a19.06,19.06,0,0,1-5-1.77.66.66,0,0,1-.51-.67v-.34a54.1,54.1,0,0,1,.09-8.94q.42-5.23,1.43-11t2.36-12q1.35-6.15,2.7-11.72a1.57,1.57,0,0,0-.08-1.19,1.52,1.52,0,0,1-.09-1.18c.11-.33.45-.5,1-.5h.85a.48.48,0,0,0,.34.17h.16c1,.33,2.39.87,4.14,1.6a15.87,15.87,0,0,1,4.64,2.95l.17.17c.11,0,.27.14.5.42a1.51,1.51,0,0,1,.17,1.27.69.69,0,0,1-.17.5v.34a6.61,6.61,0,0,0-.34,1.18q-1,3.38-1.94,7.09c-.62,2.47-1.21,5-1.77,7.42a83.84,83.84,0,0,1,8-13.67q4.13-5.57,6.49-8.26l.17-.17,1-1a2.11,2.11,0,0,1,1.52-.68,3.24,3.24,0,0,1,1,.17c1.13.45,2.39,1,3.8,1.69a15.88,15.88,0,0,1,3.79,2.53,1.94,1.94,0,0,1,.68.67,2.17,2.17,0,0,1,0,1.69v.34a111.64,111.64,0,0,0-4.89,16.11,118.11,118.11,0,0,0-2,12.06A46.15,46.15,0,0,0,1025,575.68Z" transform="translate(-797.71 -390.04)"/><path class="cls-1" d="M1069.36,580.4a14.64,14.64,0,0,1-5,.76,23.94,23.94,0,0,1-4-.42,28.94,28.94,0,0,1-3.71-1.18,8.38,8.38,0,0,1-1.27-3.79,35.17,35.17,0,0,1-.17-4.9,39.59,39.59,0,0,1,.51-5.14,44,44,0,0,1,.93-4.39l.84-3.37a9.51,9.51,0,0,0-2.87-1.86,19.11,19.11,0,0,0-2-.67q-2,4.38-3.54,8.6t-2.62,7.68q-1.1,3.45-1.69,5.73a21.3,21.3,0,0,0-.59,2.62.74.74,0,0,1-.84.84c-.79-.23-1.94-.48-3.46-.76a18.81,18.81,0,0,1-5-1.77.66.66,0,0,1-.51-.67v-.34a51,51,0,0,1,.17-9.11q.51-5.4,1.6-11.64t2.53-12.91q1.44-6.66,2.87-12.65t2.78-10.88q1.35-4.89,2.2-7.93c.22-1.12.22-1.83,0-2.11a1.21,1.21,0,0,1,0-1.26c.11-.45.5-.68,1.18-.68a.64.64,0,0,1,.42.09.69.69,0,0,0,.42.08.5.5,0,0,1,.34.17c1,.34,2.42.9,4.22,1.69a20.12,20.12,0,0,1,4.89,3,1.12,1.12,0,0,1,.5.51,3.36,3.36,0,0,1,.17,1.85q-.51,1.7-1.68,5.91t-2.62,9.62q-1.44,5.4-3,11.47t-2.78,11.3a84.58,84.58,0,0,1,8-13.67q4.14-5.57,6.5-8.26a.15.15,0,0,0,.17-.17l.42-.42.59-.59a2.29,2.29,0,0,1,1.69-.68h.33a.36.36,0,0,1,.26.09.32.32,0,0,0,.25.08c1.12.45,2.39,1,3.8,1.69a15.88,15.88,0,0,1,3.79,2.53h.17a6,6,0,0,1,.51.67,2.17,2.17,0,0,1,0,1.69v.34c-1.13,2.92-2,5.54-2.7,7.84s-1.3,4.59-1.86,6.83a1.58,1.58,0,0,1-.84,1.19.74.74,0,0,1-.68,0,26.91,26.91,0,0,1-5.82-1.61c-1.4-.61-2.56-1.15-3.46-1.6a1.31,1.31,0,0,1-.84-1.35,3.24,3.24,0,0,1,.17-1,17.4,17.4,0,0,1,.67-2.19,18,18,0,0,0,.68-2.2,27.11,27.11,0,0,0-3,4q-1.35,2.19-2.7,4.56a23.93,23.93,0,0,1,6.08,2c2.13,1,3.88,1.91,5.23,2.7a8.16,8.16,0,0,1,1,.84,3.54,3.54,0,0,1,.67,2.7,51.71,51.71,0,0,0-.25,10.46c.28,2.93.48,4.61.59,5.06v.17a15.46,15.46,0,0,0,6.92-5.57,33.68,33.68,0,0,0,3.88-7.42,35,35,0,0,0,1.85-8.94,9.72,9.72,0,0,1,2.11,1.69,5.76,5.76,0,0,1,1.1,1.68,5.27,5.27,0,0,1,.67,1.69,30.9,30.9,0,0,1-2.11,7.68,34.73,34.73,0,0,1-3,5.65,21.43,21.43,0,0,1-3.38,4,33.75,33.75,0,0,1-3,2.45,6.25,6.25,0,0,1-2,1.18A5.9,5.9,0,0,1,1069.36,580.4Z" transform="translate(-797.71 -390.04)"/><path class="cls-1" d="M905.09,552.09a24.67,24.67,0,0,0-1.94-6.14,24.93,24.93,0,0,0-3.13-5.1,15.76,15.76,0,0,0-3.64-3.41,6,6,0,0,0-3.59-1.13,8.12,8.12,0,0,1-1.71,0h-.19a4,4,0,0,1-2.93-.52,4.17,4.17,0,0,1-1.7-2.13q-3.32,11.34-5.78,22.5t-4.25,21.74v-.09c-.07.51-.38.71-1,.62a5.13,5.13,0,0,1-2-.95,27.74,27.74,0,0,1-2.46-2,22.74,22.74,0,0,1-2.41-2.51,20,20,0,0,1-1.8-2.51,4.13,4.13,0,0,1-.71-2q.57-7.56,2.08-16.68t3.65-18.63q2.13-9.51,4.63-18.81t5.07-17.17a59.46,59.46,0,0,0-7.91,8.14,85.72,85.72,0,0,0-6.86,9.83,91.11,91.11,0,0,0-9.32,21.27,60.33,60.33,0,0,0-2,9.5,21.79,21.79,0,0,0,.24,7.52c.19.75,0,1.2-.52,1.32a3.87,3.87,0,0,1-2.18-.33,15.28,15.28,0,0,1-3-1.61,20.37,20.37,0,0,1-3.17-2.55A18,18,0,0,1,844,547a9.11,9.11,0,0,1-1.42-3.55,10.81,10.81,0,0,1,0-3.5A87.85,87.85,0,0,1,846,526.05a81.51,81.51,0,0,1,5.82-13.33,75,75,0,0,1,8.09-11.92,58.83,58.83,0,0,1,10.22-9.69,50.57,50.57,0,0,1,12.3-6.66,46.91,46.91,0,0,1,14.25-2.88h.09a25.72,25.72,0,0,1,9.37,1.65,23.28,23.28,0,0,1,12.44,11,25.23,25.23,0,0,1,2.6,7.75c.13.88.21,1.64.24,2.27s.05,1.26.05,1.89a30.53,30.53,0,0,1-1.56,9.5,28.6,28.6,0,0,1-3.84,7.47,27,27,0,0,1-5.44,5.63,35.66,35.66,0,0,1-6.48,4,47.92,47.92,0,0,1,4.83,3.83,40,40,0,0,1,4.35,4.58,34.81,34.81,0,0,1,3.41,5.06,26.75,26.75,0,0,1,2.17,5.15,33.44,33.44,0,0,1-1,17.17,31.52,31.52,0,0,1-8.9,13.37,42.62,42.62,0,0,1-15.28,8.61,62,62,0,0,1-20.15,2.93,42.84,42.84,0,0,1-11.41-1.75A40.07,40.07,0,0,1,852,587.08a31.7,31.7,0,0,1-7.71-6.82,17.28,17.28,0,0,1-3.79-8.32,15.46,15.46,0,0,1,.57-6.63,23.08,23.08,0,0,1,3.31-6.81,21.14,21.14,0,0,1,3.46.47c1.61.32,3.23.71,4.87,1.19a40.59,40.59,0,0,1,4.5,1.56,4.81,4.81,0,0,1,2.41,1.61,17.88,17.88,0,0,0-4.68,5.39,8.13,8.13,0,0,0-1,4.73,9.33,9.33,0,0,0,2,4.35,15,15,0,0,0,4.21,3.6,23.7,23.7,0,0,0,5.77,2.41,24.42,24.42,0,0,0,6.62.9,40.91,40.91,0,0,0,13.68-2.27,31.62,31.62,0,0,0,11.12-6.52,25.08,25.08,0,0,0,7.76-23.83Zm-6.72-62.39a22.16,22.16,0,0,0-5.73.95,26.11,26.11,0,0,0-5.53,2.46,30.66,30.66,0,0,1,3.22,2.13,19.67,19.67,0,0,1,3,2.79,14,14,0,0,1,2.13,3.17,5.64,5.64,0,0,1,.62,3.17q-4.83,12.4-8.71,25.27a2.41,2.41,0,0,0,.33-.19l.33-.19a27.46,27.46,0,0,0,5.21-2.32,31.29,31.29,0,0,0,6.34-4.68,34,34,0,0,0,5.63-7,23,23,0,0,0,3.17-9.36,22.19,22.19,0,0,0,.14-3.27,24.49,24.49,0,0,0-.33-3.36,17.07,17.07,0,0,0-1-3.69,10.39,10.39,0,0,0-1.9-3.12,8.39,8.39,0,0,0-2.88-2.08A9.06,9.06,0,0,0,898.37,489.7Z" transform="translate(-797.71 -390.04)"/></svg>