<svg id="Calque_1" data-name="Calque 1" xmlns="http://www.w3.org/2000/svg" viewBox="0 0 1053.08 1037.4"><defs><style>.cls-1,.cls-4,.cls-5{fill:#1e1e30;}.cls-2{fill:#ffca9f;}.cls-2,.cls-3,.cls-7{stroke:#000;stroke-miterlimit:10;stroke-width:1.4px;}.cls-3{fill:none;}.cls-4{opacity:0.05;}.cls-5{opacity:0.03;}.cls-6{fill:#231309;}.cls-8{fill:#1e1108;}.cls-9{fill:#57639e;opacity:0.36;}</style></defs><path class="cls-1" d="M940.31,257.68c0,256-240.81,466.86-481.78,495.29a461.31,461.31,0,0,1-54.68,3.28c-163.08,0-278.67-89.37-341.59-224.75V363.38A314.23,314.23,0,0,1,217.69,92.22l19.77-11.57a583.85,583.85,0,0,1,596,3.51A314,314,0,0,1,935,182.28,533.23,533.23,0,0,1,940.31,257.68Z" transform="translate(1.03 0.7)"/><path class="cls-1" d="M985.68,353.42V574.89c0,8.44-.23,16.85-.68,25.15-81.38,262.61-240,429.1-374.67,380.83-73.27-26.28-125.8-111.26-151.8-227.9-26.78-120.19-25.35-274,10.59-431.88C497.77,195.27,544,86.16,598.67,4.38A582.69,582.69,0,0,1,833.45,84.16,314.18,314.18,0,0,1,985.68,353.42Z" transform="translate(1.03 0.7)"/><ellipse class="cls-2" cx="105.83" cy="611.88" rx="105.13" ry="117.62"/><polyline class="cls-3" points="38.28 591.86 93.34 624.39 50.8 629.4"/><ellipse class="cls-2" cx="953.24" cy="611.88" rx="99.15" ry="117.62"/><polyline class="cls-3" points="1019.08 589.88 964.03 622.41 1006.57 627.41"/><path class="cls-2" d="M989.65,334.26c-.07-1.48-.17-2.93-.32-4.41a314.34,314.34,0,0,0-49.8-148.17q-8-12.39-17.24-24A314.42,314.42,0,0,0,838,83.56a583.86,583.86,0,0,0-596-3.51L222.22,91.62A314.44,314.44,0,0,0,67,351.17c-.15,3.86-.22,7.74-.22,11.61V574.29c0,1.43,0,2.86,0,4.28C68.49,763.23,178.57,922,336.48,994.28q18.21,8.34,37.21,15.09a463.22,463.22,0,0,0,334.93-9.83c158.19-67.07,271.22-219.84,280.91-400.1.45-8.31.67-16.71.67-25.15V352.82C990.2,346.59,990,340.41,989.65,334.26Z" transform="translate(1.03 0.7)"/><path class="cls-3" d="M520.23,713.78c0,20-20,50.05-32.54,50.05,27.53,0,95.56,11.75,142.39-15.71" transform="translate(1.03 0.7)"/><path class="cls-3" d="M501.56,763.83c11.16,10,11.16,47.55,23.67,50" transform="translate(1.03 0.7)"/><path class="cls-4" d="M1009,413.83l2.12-7.13c-.22,3.21-.52,6.41-.85,9.59C1009.88,415.46,1009.45,414.64,1009,413.83Z" transform="translate(1.03 0.7)"/><ellipse class="cls-5" cx="710.88" cy="529.85" rx="42.54" ry="140.14" transform="translate(78.75 1151.19) rotate(-81.13)"/><ellipse class="cls-5" cx="353.03" cy="537.36" rx="140.14" ry="42.54" transform="translate(-106.55 89.48) rotate(-12.45)"/><path class="cls-6" d="M521.09,697.37v23.18A17.78,17.78,0,0,1,506,738.13l-44.36,6.78A241.42,241.42,0,0,0,423.47,754l-79.81,26a5.78,5.78,0,0,1-5.55-9.89l16.21-13.91a241.07,241.07,0,0,1,101.16-51.6l57.35-13.67A6.71,6.71,0,0,1,521.09,697.37Z" transform="translate(1.03 0.7)"/><path class="cls-6" d="M535.92,697.37v23.18A17.78,17.78,0,0,0,551,738.13l44.36,6.78A241.68,241.68,0,0,1,633.54,754l79.81,26A5.78,5.78,0,0,0,718.9,770l-16.21-13.91a241.13,241.13,0,0,0-101.16-51.6l-57.35-13.67A6.71,6.71,0,0,0,535.92,697.37Z" transform="translate(1.03 0.7)"/><path class="cls-6" d="M507.41,827.55h43.22a5.46,5.46,0,0,1,5.06,7.54L548.76,852a5.48,5.48,0,0,1-5.06,3.39H516.8a5.45,5.45,0,0,1-4.78-2.81l-9.39-16.9A5.47,5.47,0,0,1,507.41,827.55Z" transform="translate(1.03 0.7)"/><path class="cls-3" d="M465.76,632.48c0,16.34,16.34,43.3,44.93,43.3" transform="translate(1.03 0.7)"/><path class="cls-3" d="M577.68,632.48c0,8.74-4.68,20.53-13.41,29.6" transform="translate(1.03 0.7)"/><path class="cls-7" d="M474.51,656.48c-14.88,0-22.35,8.15-25.26,12.74-3.34,5.27-13.18,16.67-17.6,6.56-4.92-11.25,10.64-27,37.34-29.1" transform="translate(1.03 0.7)"/><path class="cls-7" d="M568.87,656.48c14.88,0,22.35,8.15,25.26,12.74,3.34,5.27,13.18,16.67,17.6,6.56,4.92-11.25-10.64-27-37.34-29.1" transform="translate(1.03 0.7)"/><path class="cls-3" d="M409.23,632.48c-49.76,23-27.47,113.46,55,40.16" transform="translate(1.03 0.7)"/><path class="cls-3" d="M635,632.48c49.75,23,27.67,113.23-55,40.16" transform="translate(1.03 0.7)"/><path class="cls-6" d="M935.81,687c-79,57.92-116.06,137.66-125.82,161.45a198.93,198.93,0,0,1-18.79,35.84c-24.38,36.21-78.48,69.1-122.29,85.37L605.25,933c-15.27-8.81-39.72-14-65.74-14H502.67c-26,0-50.47,5.21-65.74,14L377.75,967h0c-45.35-14.41-85.46-43.39-112-82.77A200.21,200.21,0,0,1,247,848.42C237.23,824.63,200.15,744.89,121.17,687c-22.5-16.5-41.74-68-54.36-108.4C68.49,763.23,178.57,922,336.48,994.28q5,2.29,10.07,4.46c1.29.56,2.6,1.09,3.9,1.63q3.14,1.32,6.3,2.6l4.91,1.93c1.58.61,3.17,1.22,4.77,1.81,2.28.86,4.58,1.7,6.88,2.53l.38.13h0a463.24,463.24,0,0,0,309.6,0h0c2.72-1,5.44-2,8.14-3l2.87-1.09q3.28-1.26,6.56-2.58l3.3-1.35c1.47-.6,3-1.19,4.42-1.81,0,0,0,0,0,0,4-1.69,7.95-3.42,11.89-5.22,157.9-72.32,268-231,269.66-415.71C977.55,618.94,958.31,670.47,935.81,687Z" transform="translate(1.03 0.7)"/><polyline class="cls-3" points="280.56 520.79 319.9 509.93 386.74 491.51 395.25 489.16 405.35 486.37"/><polyline class="cls-3" points="386.74 491.51 394.95 495.73 425.99 511.67"/><path d="M393.92,495a40.13,40.13,0,0,1-75.06,14.21l66.85-18.43Z" transform="translate(1.03 0.7)"/><path class="cls-3" d="M419.57,530.17c-18.19,15.76-52.47,35.91-81.85,35.28" transform="translate(1.03 0.7)"/><line class="cls-3" x1="370.24" y1="606.06" x2="425.99" y2="537.54"/><polyline class="cls-3" points="650.61 476.07 660.57 477.8 668.97 479.26 734.9 490.73 773.71 497.48"/><polyline class="cls-3" points="633.14 502.3 661.47 484.08 668.97 479.26"/><path d="M660.44,483.38A38.73,38.73,0,0,0,733.87,490l-65.94-11.46Z" transform="translate(1.03 0.7)"/><path class="cls-3" d="M639.08,519.54C658,533,692.83,549.14,721,545.79" transform="translate(1.03 0.7)"/><line class="cls-3" x1="695.52" y1="587.77" x2="635.56" y2="527.15"/><path d="M629.43,380.21h13.46a267.68,267.68,0,0,0,61.64-7.14l39-9.21c24.15-5.72,50.36-.66,68.39,13.19l62.67,48.16c2.64,2-.31,5.42-3.68,4.23l-53.75-19.06a86.79,86.79,0,0,0-46.24-3l-59.8,12.45c-17.87,3.72-49.73,5.61-68.22,5.61h-5.56c-11.11,0-20.53-6.39-22.16-15l-2.76-14.68C610.82,387.56,618.9,380.21,629.43,380.21Z" transform="translate(1.03 0.7)"/><path d="M444,377.28,334.18,350.4c-1.5-.37-2.95-.88-4.41-1.39-12.51-4.31-28.94-1.7-45,3.44-23.83,7.62-46,20.63-65.52,37.42L143.35,455.1c-3.29,1.75-.7,6,3.24,5.36,0,0,85.89-70.36,147-67.59s106.81,28.47,127.14,32l6.12,1c12.21,2.1,23.78-3.2,27.21-12.45l5.82-15.73C463.09,388.92,455.6,379.27,444,377.28Z" transform="translate(1.03 0.7)"/><path class="cls-3" d="M491.92,479.85c-9.31,19-17.89,38.8-17.41,68.88S447,590.08,435.27,611.18" transform="translate(1.03 0.7)"/><ellipse class="cls-3" cx="280.56" cy="542.89" rx="190.45" ry="171.6"/><ellipse class="cls-3" cx="786.88" cy="542.89" rx="190.45" ry="171.6"/><path class="cls-8" d="M990.2,352.82V530.15l-4.53,12.21-110.11-271,102.06-6.43a310.37,310.37,0,0,1,11.71,65c.15,1.48.25,2.93.32,4.41C990,340.41,990.2,346.59,990.2,352.82Z" transform="translate(1.03 0.7)"/><path class="cls-8" d="M177.12,271.32,67,542.36l-.2-.55v-179c0-3.87.07-7.75.22-11.61A312.4,312.4,0,0,1,82.3,265.36Z" transform="translate(1.03 0.7)"/><path d="M989.33,329.85c-177.46,47.2-276.65-33.78-350.25-267.79C619.64,213.34,373.72,424.42,66.79,438.53V362.78c0-3.87.07-7.75.22-11.61A314.27,314.27,0,0,1,222.22,91.62L242,80.05a583.85,583.85,0,0,1,596,3.51,314.42,314.42,0,0,1,84.31,74.12q9.19,11.59,17.24,24a314.34,314.34,0,0,1,49.8,148.17Z" transform="translate(1.03 0.7)"/><ellipse class="cls-9" cx="280.56" cy="542.89" rx="190.45" ry="171.6"/><ellipse class="cls-9" cx="786.88" cy="542.89" rx="190.45" ry="171.6"/><path class="cls-3" d="M463.6,498c28.32-18.18,90.86-36.61,138.17,0" transform="translate(1.03 0.7)"/></svg>