<svg id="Calque_1" data-name="Calque 1" xmlns="http://www.w3.org/2000/svg" viewBox="0 0 1015.6 1032.35"><defs><style>.cls-1,.cls-3{fill:#e8a777;}.cls-1{stroke:#030012;}.cls-1,.cls-2,.cls-3,.cls-5{stroke-miterlimit:10;stroke-width:1.4px;}.cls-2{fill:none;}.cls-2,.cls-3,.cls-5{stroke:#000;}.cls-4{fill:#1e1e30;opacity:0.03;}</style></defs><ellipse class="cls-1" cx="107.82" cy="609.07" rx="126.21" ry="77.87" transform="translate(-537.79 599.39) rotate(-79.38)"/><ellipse class="cls-1" cx="961.98" cy="609.07" rx="77.87" ry="126.21" transform="translate(-122.91 184.45) rotate(-10.62)"/><polyline class="cls-2" points="998.52 597.95 943.73 630.33 986.07 635.31"/><polyline class="cls-2" points="19.73 645.65 74.52 613.28 32.18 608.3"/><path class="cls-3" d="M998.22,355.16V575.55q0,21.81-2,43.13c-.55,6-1.22,11.88-2,17.75a455.74,455.74,0,0,1-23.9,97.2c-51.2,139.7-168.29,247.63-313.65,286.1a463.34,463.34,0,0,1-197.75,8.35C295.62,999.46,162,884.64,106.76,732.26A454.89,454.89,0,0,1,82.28,628.07q-.78-6.92-1.34-13.87-1.62-19.12-1.62-38.65V365.07A312.72,312.72,0,0,1,234,95.22l19.64-11.5a580.91,580.91,0,0,1,593.09,3.49A312.7,312.7,0,0,1,998.22,355.16Z" transform="translate(-27.1 -3.35)"/><path class="cls-2" d="M533.79,713.76c3.67,21.56-18.68,49.8-31.13,49.8,67.25,26.09,148.75-13.45,137.6-20.75" transform="translate(-27.1 -3.35)"/><path class="cls-2" d="M517.73,769.13c11.11,10,9.83,41.75,22.29,44.24" transform="translate(-27.1 -3.35)"/><ellipse class="cls-4" cx="708.11" cy="530.72" rx="42.33" ry="139.45" transform="translate(47.41 1145.14) rotate(-81.13)"/><ellipse class="cls-4" cx="352" cy="538.19" rx="139.45" ry="42.33" transform="translate(-134.88 85.22) rotate(-12.45)"/><polyline class="cls-2" points="419.96 494.58 393.91 497.23 322.33 505.01 260.21 511.76"/><line class="cls-2" x1="415.51" y1="516.55" x2="406.77" y2="495.85"/><path d="M420.89,514.23a36.1,36.1,0,0,1-71.46-5.86L421,500.59A35.81,35.81,0,0,1,420.89,514.23Z" transform="translate(-27.1 -3.35)"/><polyline class="cls-2" points="761.24 499.18 698.81 496.46 626.88 493.32 600.72 492.36"/><line class="cls-2" x1="606.58" y1="513.99" x2="613.95" y2="492.77"/><path d="M655,510.28a36.1,36.1,0,0,0,70.93-10.47L654,496.68A35.84,35.84,0,0,0,655,510.28Z" transform="translate(-27.1 -3.35)"/><path class="cls-2" d="M431.69,545.66c-14.94,10-39.85,24.91-67.24,22.42" transform="translate(-27.1 -3.35)"/><path class="cls-2" d="M655.81,545.66c14.94,10,39.85,24.91,67.24,22.42" transform="translate(-27.1 -3.35)"/><path class="cls-2" d="M497.68,462.24c0,89.65-42.33,129.49-42.33,146.93a37.12,37.12,0,0,0,12.45,27.39" transform="translate(-27.1 -3.35)"/><path class="cls-2" d="M442.89,611.66c-22.41,12.45-57.27,57.27-10,69.72" transform="translate(-27.1 -3.35)"/><path class="cls-2" d="M647.39,611.66c22.41,12.45,57.28,57.27,10,69.72" transform="translate(-27.1 -3.35)"/><path class="cls-5" d="M511.82,678.19s-31.57,5.68-46.51.7c-13.78-4.59-22.42-19.92-2.49-17.43s32.31,19.92,82.18,19.92" transform="translate(-27.1 -3.35)"/><path class="cls-5" d="M578.18,678.19s31.56,5.68,46.5.7c13.78-4.59,22.42-19.92,2.49-17.43S594.86,681.38,545,681.38" transform="translate(-27.1 -3.35)"/><path class="cls-2" d="M507.81,373.86,504,414.79a28.31,28.31,0,0,1-12.74,21l-10,6.51" transform="translate(-27.1 -3.35)"/><path class="cls-2" d="M545,373.86c12,14.63,6,57.19,6,57.19" transform="translate(-27.1 -3.35)"/><path d="M317.82,430.6l124.67-2.67a22.42,22.42,0,0,0,21.84-20.22h0A22.43,22.43,0,0,0,438,383.43l-131,23.8a73.89,73.89,0,0,0-34.9,16.63L211.26,476.1a4.41,4.41,0,0,0,2.87,7.75h0a4.35,4.35,0,0,0,2.4-.71l62.67-40.66A73.88,73.88,0,0,1,317.82,430.6Z" transform="translate(-27.1 -3.35)"/><path d="M623.05,393h0a20.88,20.88,0,0,0,26,15.59l81.52-22.62a88.07,88.07,0,0,1,50.82,1.12l71.18,23.17a2.43,2.43,0,0,0,2.26-4.22l-8.4-6.66a236.65,236.65,0,0,0-94.16-45.15l-14.53-3.32a88.08,88.08,0,0,0-44.21,1.28L637.6,368.4A20.87,20.87,0,0,0,623.05,393Z" transform="translate(-27.1 -3.35)"/><path d="M535.21,697.43v23.06a17.69,17.69,0,0,1-15,17.5l-44.14,6.74a240.51,240.51,0,0,0-38,9l-79.42,25.83a5.76,5.76,0,0,1-5.53-9.84l16.14-13.85a240,240,0,0,1,100.67-51.34L527,690.94A6.67,6.67,0,0,1,535.21,697.43Z" transform="translate(-27.1 -3.35)"/><path d="M550,697.43v23.06A17.69,17.69,0,0,0,565,738l44.14,6.74a240.13,240.13,0,0,1,38,9l79.43,25.83a5.75,5.75,0,0,0,5.52-9.84l-16.13-13.85a240,240,0,0,0-100.67-51.34l-57.07-13.6A6.67,6.67,0,0,0,550,697.43Z" transform="translate(-27.1 -3.35)"/><path d="M532.63,827h43a5.43,5.43,0,0,1,5,7.5l-6.9,16.82a5.43,5.43,0,0,1-5,3.38H542a5.44,5.44,0,0,1-4.75-2.8l-9.35-16.82A5.44,5.44,0,0,1,532.63,827Z" transform="translate(-27.1 -3.35)"/><path d="M656.66,1019.73h0a463.34,463.34,0,0,1-197.75,8.35l-3.18-8.35a51,51,0,0,1,6.34-48l47.86-66.2A44.58,44.58,0,0,1,546.08,887h20.24a44.61,44.61,0,0,1,36.16,18.48l47.84,66.19A51,51,0,0,1,656.66,1019.73Z" transform="translate(-27.1 -3.35)"/><path d="M998.22,355.16V575.55c-9-160.75-128.12-191.5-142.49-286.43s-38.37-155.2-132.68-177.78-178,27.12-258.61,18.08C273.73,108,253.86,222.83,217.7,340.34S80.94,502.23,80.94,614.2q-1.62-19.12-1.62-38.65V365.07A312.72,312.72,0,0,1,234,95.22l19.64-11.5a580.91,580.91,0,0,1,593.09,3.49A312.7,312.7,0,0,1,998.22,355.16Z" transform="translate(-27.1 -3.35)"/></svg>