<svg id="Calque_1" data-name="Calque 1" xmlns="http://www.w3.org/2000/svg" viewBox="0 0 1041.52 989.01"><defs><style>.cls-1,.cls-6,.cls-7{fill:#1e1e30;}.cls-2{fill:#e8a777;}.cls-2,.cls-3,.cls-4,.cls-5{stroke:#000;stroke-miterlimit:10;stroke-width:1.4px;}.cls-3{fill:none;}.cls-4{fill:#fff;}.cls-6{opacity:0.05;}.cls-7{opacity:0.03;}</style></defs><path class="cls-1" d="M916.39,269.07c0,244-229.57,445.06-459.28,472.16A441.32,441.32,0,0,1,405,744.35c-155.47,0-265.66-85.19-325.63-214.25V369.84a299.55,299.55,0,0,1,148.16-258.5l18.85-11a556.58,556.58,0,0,1,568.15,3.34,299.52,299.52,0,0,1,96.81,93.54A509.36,509.36,0,0,1,916.39,269.07Z" transform="translate(-4.71 -23.3)"/><path class="cls-1" d="M959.64,360.34V571.47c0,8-.22,16-.65,24-77.58,250.35-228.77,409.06-357.17,363C532,933.43,481.9,852.42,457.11,741.23,431.59,626.65,433,480,467.2,329.52c27.32-119.95,71.36-224,123.51-301.92a555.66,555.66,0,0,1,223.81,76.05A299.5,299.5,0,0,1,959.64,360.34Z" transform="translate(-4.71 -23.3)"/><circle class="cls-2" cx="112.82" cy="582.76" r="112.12"/><polyline class="cls-3" points="50.8 563.68 103.28 594.69 62.73 599.46"/><circle class="cls-2" cx="928.7" cy="582.76" r="112.12"/><polyline class="cls-3" points="985.79 561.79 933.3 592.8 973.86 597.57"/><path class="cls-2" d="M959.64,360.34V571.47c0,8-.22,16-.65,24-12.45,231.95-204.44,416.17-439.49,416.17-243.07,0-440.14-197.05-440.14-440.14V369.84c0-3.7.07-7.4.21-11.07a299.59,299.59,0,0,1,148-247.43l18.85-11a556.58,556.58,0,0,1,568.15,3.34,299.58,299.58,0,0,1,80.37,70.67q8.77,11.06,16.44,22.87a294,294,0,0,1,17.46,30.75,299.3,299.3,0,0,1,30.32,114.7Q959.65,351.45,959.64,360.34Z" transform="translate(-4.71 -23.3)"/><path class="cls-3" d="M515.93,703.87c0,19.08-19.09,47.71-31,47.71,26.25,0,71.32,23.44,125.18-23.36" transform="translate(-4.71 -23.3)"/><path class="cls-3" d="M498.13,751.58c10.64,9.54,10.64,45.33,22.57,47.71" transform="translate(-4.71 -23.3)"/><path d="M486.18,657c-.29,7.16-7.47,15.25-18.13,19.52-12.84,5.15-25.84,2.91-29-5s4.6-18.58,17.43-23.73a37.18,37.18,0,0,1,11.22-2.68A27.2,27.2,0,0,1,471,645a55.52,55.52,0,0,0,14.91,9.33A8.84,8.84,0,0,1,486.18,657Z" transform="translate(-4.71 -23.3)"/><path d="M602.14,672.07c-3.41,7.85-16.46,9.78-29.15,4.29-10.78-4.67-17.87-13.21-17.63-20.49a9.17,9.17,0,0,1,.48-2.89A52.69,52.69,0,0,0,568,644.92a25.29,25.29,0,0,1,3.63-.14,36.63,36.63,0,0,1,13.67,3.1C598,653.39,605.53,664.22,602.14,672.07Z" transform="translate(-4.71 -23.3)"/><path class="cls-3" d="M419.31,624c-11.93-4.77-39.64,14.12-33.4,45.33,4.77,23.85,28.63,31,52.49,21.47" transform="translate(-4.71 -23.3)"/><path class="cls-3" d="M626,624c11.93-4.77,39.64,14.12,33.4,45.33-4.77,23.85-28.63,31-52.48,21.47" transform="translate(-4.71 -23.3)"/><path class="cls-3" d="M487.3,493.94c0,23.85-9.54,95.42-47.71,112.12" transform="translate(-4.71 -23.3)"/><path class="cls-3" d="M573.13,641.36c-10.26,12.36-30.42,20.76-53.62,20.76-25.2,0-46.82-9.91-56.06-24" transform="translate(-4.71 -23.3)"/><polyline class="cls-3" points="260.73 501.65 325.24 488.96 375.21 479.13 406.25 473.02 427.72 487.34"/><line class="cls-4" x1="291.74" y1="513.58" x2="408.64" y2="496.88"/><path d="M379.93,502.43a26.31,26.31,0,0,1-26.22,24.91A26.29,26.29,0,0,1,330,512.26Z" transform="translate(-4.71 -23.3)"/><polyline class="cls-3" points="759.73 487.16 694.36 480.16 643.71 474.74 612.26 471.37 592.13 487.5"/><line class="cls-4" x1="729.88" y1="501.76" x2="611.97" y2="495.34"/><path class="cls-5" d="M648.42,498a26.26,26.26,0,0,0,50.65,5.42Z" transform="translate(-4.71 -23.3)"/><path d="M597,401.7h0a13.51,13.51,0,0,0,13.51,13.51h0a71.36,71.36,0,0,0,24.67-4.39L735,374.16a13.51,13.51,0,0,1,10.15.34l88,35.94L743,356.91a13.5,13.5,0,0,0-11.39-2.05L607,388.65A13.52,13.52,0,0,0,597,401.7Z" transform="translate(-4.71 -23.3)"/><path d="M417.58,393.37h0a14.61,14.61,0,0,1-13.95,20.72l-109.88-5.15a56.46,56.46,0,0,0-34.32,9.64l-65.56,44.34L266,404.84a56.6,56.6,0,0,1,31.44-12.36l105.86-7.56A14.61,14.61,0,0,1,417.58,393.37Z" transform="translate(-4.71 -23.3)"/><path class="cls-6" d="M981.9,417.93l2-6.8c-.21,3.06-.5,6.11-.81,9.14C982.71,419.48,982.3,418.7,981.9,417.93Z" transform="translate(-4.71 -23.3)"/><path d="M960.31,342.64A299.3,299.3,0,0,0,930,227.94a294,294,0,0,0-17.46-30.75q-7.65-11.81-16.43-22.87a299.78,299.78,0,0,0-80.38-70.67,556.58,556.58,0,0,0-568.15-3.34l-18.84,11a299.57,299.57,0,0,0-148,247.43c-.14,3.67-.21,7.37-.21,11.07V596c0-.07,76.83-199.63,76.54-308.22,94.45-108.31,256.71-155.51,411.68-155.51,142.92,0,193.58,33.85,287.69,97.9,0,0,9.67,131.9,103.86,342.3l.51-193.25V360.34Q960.84,351.43,960.31,342.64Z" transform="translate(-4.71 -23.3)"/><ellipse class="cls-7" cx="679.28" cy="528.53" rx="40.55" ry="133.59" transform="translate(47.59 1094.86) rotate(-81.13)"/><ellipse class="cls-7" cx="338.15" cy="535.68" rx="133.59" ry="40.55" transform="translate(-112.28 62.23) rotate(-12.45)"/></svg>