<svg id="Calque_1" data-name="Calque 1" xmlns="http://www.w3.org/2000/svg" viewBox="0 0 1741.03 1050.83"><defs><style>.cls-1,.cls-26,.cls-28,.cls-29,.cls-9{fill:none;}.cls-1,.cls-13,.cls-14,.cls-16,.cls-22,.cls-24,.cls-25,.cls-26,.cls-27,.cls-32,.cls-35,.cls-36,.cls-39,.cls-4,.cls-6{stroke:#000;}.cls-1,.cls-10,.cls-11,.cls-12,.cls-14,.cls-15,.cls-18,.cls-19,.cls-20,.cls-22,.cls-24,.cls-25,.cls-27,.cls-28,.cls-29,.cls-30,.cls-32,.cls-34,.cls-35,.cls-36,.cls-39,.cls-4,.cls-6,.cls-8,.cls-9{stroke-miterlimit:10;}.cls-1,.cls-10,.cls-11,.cls-12,.cls-15,.cls-16,.cls-18,.cls-19,.cls-20,.cls-22,.cls-24,.cls-25,.cls-26,.cls-27,.cls-28,.cls-29,.cls-30,.cls-32,.cls-34,.cls-36,.cls-39,.cls-4,.cls-6,.cls-8,.cls-9{stroke-width:0.83px;}.cls-2,.cls-6{fill:#383d44;}.cls-3,.cls-8{fill:#e28100;}.cls-14,.cls-24,.cls-4,.cls-5{fill:#e8a777;}.cls-11,.cls-35,.cls-7{fill:#f4eeed;}.cls-10,.cls-15,.cls-18,.cls-19,.cls-20,.cls-30,.cls-34,.cls-8,.cls-9{stroke:#1a1a1a;}.cls-10{fill:#0b57c1;}.cls-11,.cls-12,.cls-29{stroke:#262626;}.cls-11,.cls-12,.cls-13,.cls-16,.cls-24,.cls-25,.cls-26,.cls-29,.cls-39{stroke-linecap:round;}.cls-12{fill:#e5e8da;}.cls-13,.cls-16,.cls-21{fill:#ffd652;}.cls-13,.cls-16,.cls-26{stroke-linejoin:round;}.cls-13,.cls-14{stroke-width:0.73px;}.cls-15{fill:#5e5e5e;}.cls-17{fill:#11161e;}.cls-18{fill:#4b4b4b;}.cls-19{fill:#383838;}.cls-20{fill:#1a1a1a;}.cls-22,.cls-23,.cls-25{fill:#442821;}.cls-27,.cls-31,.cls-39{fill:#ffca9f;}.cls-28{stroke:#020202;}.cls-30{fill:#425f89;}.cls-32,.cls-33{fill:#3c4d6b;}.cls-34,.cls-36,.cls-37{fill:#212f46;}.cls-35{stroke-width:0.62px;}.cls-38{fill:#429ac6;opacity:0.42;}</style></defs><line class="cls-1" y1="1016.32" x2="1741.03" y2="1016.32"/><ellipse class="cls-2" cx="176.59" cy="827.24" rx="71.57" ry="64.17"/><path d="M270.47,778.08c39.24,0,71.16,28.6,71.16,63.75s-31.92,63.75-71.16,63.75-71.15-28.6-71.15-63.75,31.92-63.75,71.15-63.75m0-.83c-39.75,0-72,28.91-72,64.58s32.23,64.58,72,64.58,72-28.92,72-64.58-32.23-64.58-72-64.58Z" transform="translate(-93.88 -14.58)"/><path class="cls-3" d="M224.36,800.15c-5,0-8-5.08-8.79-10.11-.09-.87-9-89.32,40.87-159,23.35-32.61,62.09-55.38,94.21-55.38,11.92,0,22.3,3.13,30.86,9.3l.05,0,23.38,8.11c.63.16,1.22.31,1.8.48,19.05,5.46,31.07,24.73,28,44.8L413.45,739.48,226,800A8.26,8.26,0,0,1,224.36,800.15Z" transform="translate(-93.88 -14.58)"/><path d="M350.65,575.26v.84h0c11.83,0,22.13,3.1,30.62,9.21l.09.08.12,0,23.33,8.08,0,0h0c.59.14,1.17.29,1.74.46,18.85,5.4,30.75,24.47,27.69,44.29L413.1,739.16l-187.18,60.4a7.68,7.68,0,0,1-1.56.17c-4.75,0-7.63-4.9-8.37-9.72,0-.22-2.35-22.46,1.51-53,3.56-28.17,13.27-69.37,39.28-105.69A145.79,145.79,0,0,1,300,591.91c17.38-10.35,34.91-15.81,50.69-15.81v-.84m0,0c-32.87,0-71.93,24-94.55,55.55-50.56,70.62-40.94,159.29-40.94,159.29.88,5.72,4.23,10.46,9.2,10.46a8.56,8.56,0,0,0,1.78-.19L413.81,739.8l21.31-101.34c3.09-20-8.81-39.68-28.27-45.26-.58-.17-1.17-.33-1.77-.47l-23.33-8.09c-9-6.48-19.67-9.38-31.1-9.38Z" transform="translate(-93.88 -14.58)"/><path class="cls-4" d="M465.41,597.74l-39.7,22.33s4.82,15.17-4.58,16.35-41.77-6.95-55.23-41c21-19.18,42.73-46,42.73-46Z" transform="translate(-93.88 -14.58)"/><path class="cls-5" d="M489.18,623.53a111.63,111.63,0,0,1-19.12-1.66c-1.63-.29-3.28-.61-4.9-1a110.59,110.59,0,0,1-84.5-86.43,108.37,108.37,0,0,1-2.1-22.6c0-1.24.05-2.46.1-3.7.08-1.64.18-3.23.31-4.71.19-2.12.44-4.28.76-6.43.11-.75.22-1.51.35-2.27.36-2,.72-3.9,1.13-5.73.27-1.22.57-2.45.88-3.66a114,114,0,0,1,3.68-11.62c1.55-4.08,3-8,4.41-11.8,15.4-41.59,23.89-64.5,67.26-64.5,14.19,0,32.39,2.51,55.62,7.67a110.46,110.46,0,0,1,84.4,129.5c-.15.8-.31,1.58-.49,2.37-.59,2.66-1.32,5.43-2.15,8.22-.63,2.06-1.25,3.92-1.88,5.67a110.05,110.05,0,0,1-13.85,26.32c-.56.81-1.14,1.59-1.74,2.38a111.89,111.89,0,0,1-36.43,31,110.22,110.22,0,0,1-51.74,12.91Z" transform="translate(-93.88 -14.58)"/><path d="M457.44,397.86c14.16,0,32.33,2.51,55.53,7.67a110.05,110.05,0,0,1,84.08,129c-.15.78-.31,1.57-.48,2.35-.59,2.65-1.32,5.41-2.15,8.19-.63,2.06-1.24,3.91-1.87,5.64A109.23,109.23,0,0,1,578.74,577c-.48.7-1,1.45-1.72,2.36a111.39,111.39,0,0,1-36.29,30.92,109.79,109.79,0,0,1-70.6,11.21c-1.62-.28-3.26-.61-4.88-1h-.05a110.17,110.17,0,0,1-84.14-86.09A108.27,108.27,0,0,1,379,511.87c0-1.13,0-2.33.09-3.67.08-1.65.19-3.23.32-4.7.18-2.12.44-4.27.76-6.42.09-.73.21-1.49.34-2.26.35-2,.72-3.87,1.13-5.7.24-1.11.53-2.3.87-3.64a111.73,111.73,0,0,1,3.67-11.59c1.55-4.08,3-8,4.41-11.8,15.33-41.41,23.78-64.23,66.87-64.23m0-.83c-47.64,0-53.56,27.71-72.05,76.57a110.9,110.9,0,0,0-3.7,11.67c-.31,1.21-.61,2.44-.89,3.67-.42,1.92-.79,3.83-1.13,5.74h0c-.13.76-.25,1.53-.35,2.28-.32,2.15-.57,4.31-.76,6.45-.14,1.58-.24,3.16-.32,4.74-.05,1.24-.08,2.47-.09,3.7a108.22,108.22,0,0,0,2.1,22.69A110.94,110.94,0,0,0,465,621.29h.05c1.64.37,3.28.69,4.91,1a111.08,111.08,0,0,0,107.71-42.44c.59-.79,1.18-1.58,1.74-2.39A110.55,110.55,0,0,0,593.33,551c.68-1.88,1.3-3.77,1.88-5.69.82-2.71,1.54-5.45,2.17-8.25.17-.79.33-1.58.49-2.38a110.89,110.89,0,0,0-84.72-130c-23.31-5.18-41.4-7.69-55.71-7.69Z" transform="translate(-93.88 -14.58)"/><circle cx="393.72" cy="564.22" r="1.82"/><path class="cls-6" d="M378.77,478.05c-1-24.69,8.51-53.8,22.65-61.93-2-9.5-23-7.9-23-7.9a.79.79,0,0,1,.34-1.54s15.9-3.49,26.93,2.82c2.64,1.51,1.12-.69.73-1.24l-13.79-19.7a.79.79,0,0,1,1.2-1L412,405.11c.48.47,1.27,1.49,1.34-.5.36-10.18,9.57-28.43,9.57-28.43a.79.79,0,0,1,1.57-.07s-5.86,16.2-4.93,24.34c81.52-63.31,190.26-1.51,175.87,54.21-5.72,22.11,2.42,42.49,2.42,42.49s-3.39-20.64-17.72-33.52c-13.76-12.38-52.51-38.54-101.55-25.27-33.81,9.16-47,31.25-49.74,40.22s5.09,31.14-18.09,20.61c-2.3,8.77-16.12,7.32-31.21,1.84S378.77,478.05,378.77,478.05Z" transform="translate(-93.88 -14.58)"/><path class="cls-4" d="M382,526.31a35.35,35.35,0,0,1-6.72-3.28,43.06,43.06,0,0,1-5.86-4.42c-10-9.05-16.31-23.12-12.07-35a31.56,31.56,0,0,1,40.27-19.12l.9.34a31.43,31.43,0,0,1,19.31,22.56s2.29,6.44-1,14.9" transform="translate(-93.88 -14.58)"/><polyline class="cls-1" points="284.89 463.46 300.6 481.58 276.35 480.66"/><path class="cls-6" d="M594.5,452.5c14.17-8.37,26.25-26.82,18.62-43.4-.34,10.14-33.41,33.33-51.46,26.39" transform="translate(-93.88 -14.58)"/><path class="cls-6" d="M591.5,470.47c14.37-4.08,29.24-17.49,26.37-33.82-2.64,8.83-37,21.56-51.3,11.3" transform="translate(-93.88 -14.58)"/><path class="cls-1" d="M532.68,518.16c16.39,6.91,16.51,25.59.13,21" transform="translate(-93.88 -14.58)"/><line class="cls-1" x1="485.95" y1="498.97" x2="443.91" y2="499.23"/><line class="cls-1" x1="472.01" y1="510.74" x2="471.94" y2="499.06"/><line class="cls-1" x1="429.21" y1="499.32" x2="381.33" y2="499.61"/><line class="cls-1" x1="415.28" y1="513.41" x2="415.19" y2="499.4"/><path class="cls-1" d="M532.93,559.38c.05,7,7.07,9.3,7.08,11.64s-2.32,2.35-11.66,2.4" transform="translate(-93.88 -14.58)"/><line class="cls-1" x1="443.05" y1="558.79" x2="434.54" y2="570.52"/><path class="cls-7" d="M404.74,1018.13a31.62,31.62,0,0,1-27.19-47.72l46.74-79.06a31.62,31.62,0,0,1,43.31-11.13,31.62,31.62,0,0,1,11.13,43.32L432,1002.59a31.69,31.69,0,0,1-24.5,15.42C406.58,1018.09,405.65,1018.13,404.74,1018.13Z" transform="translate(-93.88 -14.58)"/><path d="M451.54,875.4v.83a31.22,31.22,0,0,1,26.83,47.1l-46.74,79a31.29,31.29,0,0,1-24.18,15.22c-.9.07-1.81.11-2.71.11a31.2,31.2,0,0,1-26.83-47.09l46.73-79.06a31.39,31.39,0,0,1,26.9-15.33v-.83m0,0a32,32,0,0,0-27.61,15.74L377.19,970.2a32,32,0,0,0,27.55,48.34c.93,0,1.86,0,2.78-.12a32,32,0,0,0,24.83-15.61l46.74-79.06a32.06,32.06,0,0,0-27.55-48.35Z" transform="translate(-93.88 -14.58)"/><path class="cls-2" d="M443,954.52a39.37,39.37,0,0,1-31.88-62.33l66.51-92.65a39.5,39.5,0,0,1,32-16.42,39.11,39.11,0,0,1,22.92,7.39c10.15,7.29,3,36.36-2.14,53-7.51,24.33-18.79,48.62-24.92,57.16l-30.41,37.37a39.52,39.52,0,0,1-32,16.43Z" transform="translate(-93.88 -14.58)"/><path d="M509.64,782.71v.83h0a38.7,38.7,0,0,1,22.68,7.31c7.26,5.21,6.42,24.38-2.29,52.59-7.5,24.27-18.73,48.48-24.85,57l-30.41,37.36,0,0v0a39.08,39.08,0,0,1-31.68,16.25H443a39,39,0,0,1-31.54-61.68L478,799.78a39.07,39.07,0,0,1,31.68-16.24v-.83m0,0a39.74,39.74,0,0,0-32.36,16.58l-66.51,92.65a39.8,39.8,0,0,0,32.22,63h.07a39.75,39.75,0,0,0,32.35-16.59L505.84,901c12.81-17.85,44.82-98,27-110.79a39.59,39.59,0,0,0-23.16-7.46Z" transform="translate(-93.88 -14.58)"/><path class="cls-2" d="M455.4,945.19A54.49,54.49,0,0,1,431,939.45,55.2,55.2,0,0,1,406,865.58L414,853l-88.81,30.42a55.13,55.13,0,1,1-37.84-103.56L502.82,706.1a54.6,54.6,0,0,1,15.1-3.22c.39,0,.75-.06,1.12-.08,1.21-.08,2.4-.11,3.57-.11A54.45,54.45,0,0,1,547,708.42a55.21,55.21,0,0,1,25,73.87L504.86,914.5a55.3,55.3,0,0,1-40.61,30A54.65,54.65,0,0,1,455.4,945.19Z" transform="translate(-93.88 -14.58)"/><path d="M522.61,702.27v.83a54.73,54.73,0,0,1,49,79L504.49,914.32a54.87,54.87,0,0,1-40.3,29.74,54.23,54.23,0,0,1-33-5A54.77,54.77,0,0,1,406.4,865.8l7.36-11.55,1.27-2-2.24.77-87.71,30a54.71,54.71,0,0,1-37.56-102.78L503,706.48a54.27,54.27,0,0,1,15-3.19c.36,0,.72-.06,1.12-.08,1.16-.07,2.34-.11,3.5-.11v-.83m0,0c-1.19,0-2.37,0-3.55.11-.39,0-.78,0-1.17.09a54.73,54.73,0,0,0-15.21,3.23L287.25,779.49a55.54,55.54,0,1,0,38.12,104.34l87.69-30-7.39,11.59a55.55,55.55,0,1,0,99.56,49.29l67.11-132.21a55.57,55.57,0,0,0-49.73-80.2Z" transform="translate(-93.88 -14.58)"/><path class="cls-7" d="M289.7,983.41a33.7,33.7,0,0,1-3.49-.19,31.62,31.62,0,0,1-20-52.54l61.3-68.39a31.62,31.62,0,0,1,47.09,42.22l-61.3,68.38A31.64,31.64,0,0,1,289.7,983.41Z" transform="translate(-93.88 -14.58)"/><path d="M351,851.36v.83a31.21,31.21,0,0,1,23.23,52L313,972.62A31.29,31.29,0,0,1,289.7,983a31.14,31.14,0,0,1-20.82-8A31.21,31.21,0,0,1,266.47,931l61.3-68.38A31.27,31.27,0,0,1,351,852.19v-.83m0,0A32,32,0,0,0,327.15,862l-61.3,68.38a32,32,0,0,0,47.71,42.77l61.3-68.38A32,32,0,0,0,351,851.36Z" transform="translate(-93.88 -14.58)"/><path class="cls-2" d="M331.13,940.57a39.5,39.5,0,0,1-4.35-.24,39.37,39.37,0,0,1-25-65.41L378,790a39.37,39.37,0,1,1,58.63,52.56l-76.12,84.92A39.44,39.44,0,0,1,331.13,940.57Z" transform="translate(-93.88 -14.58)"/><path d="M407.28,776.49v.83h0a39,39,0,0,1,29,65L360.15,927.2a39,39,0,0,1-29,13,39,39,0,0,1-29-65l76.13-84.93a39,39,0,0,1,29-12.95v-.83m0,0a39.68,39.68,0,0,0-29.64,13.23l-76.13,84.92a39.8,39.8,0,0,0,25.22,66.11,40.36,40.36,0,0,0,4.39.24,39.72,39.72,0,0,0,29.65-13.23l76.12-84.93a39.79,39.79,0,0,0-29.61-66.34Z" transform="translate(-93.88 -14.58)"/><path class="cls-2" d="M267.74,897.69A55.68,55.68,0,0,1,243,891.86,54.77,54.77,0,0,1,219,868.35a66.79,66.79,0,0,1-5.79-44.85c3.49-16,12.39-28.58,25-35.29l189.44-88a55.13,55.13,0,1,1,51.64,97.42l-185.8,93.6A55.34,55.34,0,0,1,267.74,897.69Z" transform="translate(-93.88 -14.58)"/><path d="M453.46,694.22a54.72,54.72,0,0,1,25.67,103.07l-185.82,93.6a54.69,54.69,0,0,1-74-22.73,66.46,66.46,0,0,1-5.76-44.57c3.47-15.93,12.29-28.36,24.81-35l189.5-88a54.81,54.81,0,0,1,25.57-6.37h0m0-.83a55.33,55.33,0,0,0-26,6.47L238,787.84c-27.11,14.36-33.8,53.6-19.43,80.71a55.29,55.29,0,0,0,24.23,23.68,55.86,55.86,0,0,0,24.9,5.87,55.26,55.26,0,0,0,25.95-6.47L479.51,798a55.55,55.55,0,0,0-26.05-104.64Z" transform="translate(-93.88 -14.58)"/><polygon class="cls-2" points="154.28 777.57 116.64 799.46 105.86 814.96 119.69 860.82 143.05 883.52 177.9 886.41 197.47 881.73 213.34 874.99 214.87 835.75 197.47 798.56 154.28 777.57"/><path class="cls-2" d="M346.88,927.88a56,56,0,0,1-6.08-.33A55.14,55.14,0,0,1,305.85,836L412.47,712.13a55.13,55.13,0,0,1,82.1,73.6L388,909.56A55.24,55.24,0,0,1,346.88,927.88Z" transform="translate(-93.88 -14.58)"/><path d="M453.54,693.39v.83a54.72,54.72,0,0,1,40.71,91.25L387.64,909.27a54.77,54.77,0,0,1-40.76,18.2,55.43,55.43,0,0,1-6-.33,54.71,54.71,0,0,1-34.67-90.92l106.6-123.81a54.8,54.8,0,0,1,40.76-18.19v-.83m0,0a55.41,55.41,0,0,0-41.38,18.47L305.54,835.67A55.55,55.55,0,0,0,340.75,928a54.62,54.62,0,0,0,6.13.34,55.39,55.39,0,0,0,41.38-18.47L494.88,786a55.54,55.54,0,0,0-41.35-92.62Z" transform="translate(-93.88 -14.58)"/><polygon class="cls-2" points="255.43 736.76 315.71 694.25 359.26 691.49 306.32 728.54 255.43 736.76"/><path class="cls-8" d="M540.08,1048.22c-28,0-80.17.17-103-.08-15.51-11.17-65.42-17-91.79-19.46h0a6.54,6.54,0,0,0,3.71-3.89L367.47,971a7.12,7.12,0,0,1,8-4.72c21.09,4,28.84,18.45,40,18.45,12.17,0,14.2-2.53,29.4-20.28,10.43-12.17,24.2-9.31,31.83-6.32a6.17,6.17,0,0,1,3.42,8.07c-3.22,7.87-9,23.15-11.18,36.75a7.08,7.08,0,0,0,4.81,7.86C517.2,1024.69,534,1038.33,540.08,1048.22Z" transform="translate(-93.88 -14.58)"/><path class="cls-7" d="M339.77,1062.87a8.4,8.4,0,0,1-7.89-11.23l6.25-17.5a8.75,8.75,0,0,1,5-5.24c28.56,2.64,78.61,8.68,93.74,19.58l.11.07h.13c9.32.11,24.8.16,46,.16,19.43,0,39.93,0,54.64-.07h2.06c4.7,7.76,2.66,13.14,2.14,14.24Z" transform="translate(-93.88 -14.58)"/><path d="M343.22,1029.32c28.53,2.64,78.39,8.67,93.43,19.49l.21.16h.26c9.33.1,24.83.15,46.07.15,19.51,0,39.92,0,54.81-.07h1.61c4.23,7.11,2.72,12,2.11,13.4h-202a8,8,0,0,1-7.5-10.67l6.26-17.51a8.31,8.31,0,0,1,4.69-5m-.13-.85a9.2,9.2,0,0,0-5.35,5.53l-6.26,17.5a8.82,8.82,0,0,0,8.29,11.78H542.24s3.48-5.93-2.16-15.06c-14.82,0-36.44.07-56.89.07-18.14,0-35.35,0-46.06-.15-15.51-11.17-67.67-17.23-94-19.67Z" transform="translate(-93.88 -14.58)"/><path class="cls-9" d="M355.88,1004.89c17.06,1.6,46.15,10.37,63.73,35.81" transform="translate(-93.88 -14.58)"/><path class="cls-9" d="M456.34,1048.29c2-13.25-2-19.36,63.34-18" transform="translate(-93.88 -14.58)"/><line class="cls-9" x1="362.45" y1="970.99" x2="379.29" y2="970.99"/><line class="cls-9" x1="358.03" y1="979.74" x2="377.2" y2="979.74"/><line class="cls-9" x1="354.37" y1="990.85" x2="375.47" y2="990.85"/><path class="cls-7" d="M277,728.15a5,5,0,0,1-.76-.07l.17-.28A5.6,5.6,0,0,1,277,728.15Z" transform="translate(-93.88 -14.58)"/><path d="M276.36,727.8l-.17.28a2.8,2.8,0,0,0,.61.07H277a5.6,5.6,0,0,0-.59-.35Z" transform="translate(-93.88 -14.58)"/><path class="cls-3" d="M246.94,776a30.82,30.82,0,0,1-15.39-5.29c-1-.94-1.86-1.69-2.71-2.42a30.6,30.6,0,0,1-6.06-6.58c-7.38-10.47-15.26-27.88-15.26-45.34,0-14.37,2.57-43.24,19.9-75.14,16.64-30.64,41.8-54.77,74.77-71.72,9.94-5.11,19.44-7.7,28.25-7.7A40.45,40.45,0,0,1,365.54,582a30.78,30.78,0,0,1-10.84,42.12c-28.75,17-55.29,50.54-66.63,64.86l-1.32,1.67c-6.15,7.73-13.54,19.4-13.82,31.1v.1c-.11,4.52,1.42,6,2.64,6.53l-28.18,47.73Z" transform="translate(-93.88 -14.58)"/><path d="M330.44,561.43v.83a40,40,0,0,1,34.74,19.9,30.36,30.36,0,0,1-10.69,41.55c-28.82,17-55.4,50.62-66.75,65l-1.32,1.67c-6.18,7.78-13.62,19.53-13.9,31.35v.1c-.1,4.26,1.23,6,2.47,6.72l-27.82,47.12H247a30.51,30.51,0,0,1-15.13-5.18c-1-1-1.89-1.71-2.73-2.43a29.85,29.85,0,0,1-6-6.51c-7.34-10.42-15.19-27.74-15.19-45.1,0-14.33,2.57-43.12,19.85-74.94,16.61-30.56,41.7-54.64,74.6-71.55,9.88-5.08,19.32-7.65,28.06-7.65v-.83m0,0c-8.23,0-17.72,2.23-28.44,7.74-73.31,37.69-94.91,105-94.9,147.23,0,17.8,8,35.15,15.34,45.58,3.47,4.95,5.39,5.78,8.87,9.11a31.34,31.34,0,0,0,15.61,5.36l.7,0,28.57-48.41c-1.08-.22-3-1.29-2.85-6.27.07-2.63.17-13.91,13.73-30.95,10-12.57,37.92-48.74,67.84-66.43a31.18,31.18,0,0,0,11-42.69,40.69,40.69,0,0,0-35.46-20.31Z" transform="translate(-93.88 -14.58)"/><path class="cls-3" d="M247.64,776.07l-.7,0a31.24,31.24,0,0,1-23.18-12.85A30,30,0,0,1,221,758.5a31,31,0,0,1,9.85-38.71c1.45-1,17.44-9,37.68-19.17l18.76-9.39c41.27-20.68,90.44-45.6,104.41-54.83A31.08,31.08,0,1,1,426,688.23c-20.21,13.38-101.91,56.27-132.67,72.42L283.15,766c-6.29,3.33-27.86,10.08-35.08,10.08Z" transform="translate(-93.88 -14.58)"/><path d="M408.8,631.65a30.66,30.66,0,0,1,17,56.23c-20.21,13.38-101.93,56.28-132.69,72.44-4.63,2.43-8.13,4.26-10.12,5.32-6.25,3.31-27.71,10-34.88,10h-.4l-.7,0A30.74,30.74,0,0,1,224.1,763a29.21,29.21,0,0,1-2.75-4.63,30.59,30.59,0,0,1,9.71-38.19c1.43-1,17.43-9,37.69-19.17l18.7-9.36c41.29-20.69,90.47-45.61,104.45-54.86a30.57,30.57,0,0,1,16.9-5.09h0m0-.84a31.38,31.38,0,0,0-17.36,5.24c-14,9.26-63.82,34.5-104.37,54.81-29.8,14.94-54.59,27.24-56.5,28.6a31.49,31.49,0,0,0-10,39.22,30.76,30.76,0,0,0,2.82,4.75,31.55,31.55,0,0,0,23.5,13l.7,0h.45c7.31,0,28.91-6.76,35.27-10.13C298.65,758.26,403,704,426.22,688.58a31.5,31.5,0,0,0-17.42-57.77Z" transform="translate(-93.88 -14.58)"/><circle class="cls-4" cx="323.9" cy="652.39" r="39.09"/><path class="cls-5" d="M476.43,687.32a10.29,10.29,0,0,1-10.2-9.42l-2.47-30.55,0-.07c-1.73-3.43-4.2-5.43-7.33-5.93a10,10,0,0,0-1.55-.13,13.1,13.1,0,0,0-9.72,4.79,10.25,10.25,0,1,1-15.61-13.28,33.8,33.8,0,0,1,25.34-12,30.54,30.54,0,0,1,4.79.38c10.63,1.71,19.26,8.93,23.69,19.82l.6,1.46,2.73,33.87a10.3,10.3,0,0,1-7.89,10.81,11.11,11.11,0,0,1-1.5.23Z" transform="translate(-93.88 -14.58)"/><path d="M454.85,620.31v.83a29.75,29.75,0,0,1,4.72.37c10.48,1.69,19,8.82,23.38,19.57l.57,1.4,2.73,33.8a9.88,9.88,0,0,1-9,10.6c-.26,0-.53,0-.8,0a9.88,9.88,0,0,1-9.79-9l-2.46-30.46v-.16l-.08-.15c-1.79-3.56-4.36-5.63-7.64-6.15a9.46,9.46,0,0,0-1.61-.13,13.51,13.51,0,0,0-10,4.93,9.84,9.84,0,0,1-15-12.75,33.42,33.42,0,0,1,25-11.85v-.83m0,0a34,34,0,0,0-25.66,12.15,10.67,10.67,0,1,0,16.25,13.82,12.73,12.73,0,0,1,9.4-4.64,9.14,9.14,0,0,1,1.48.12c3,.48,5.36,2.4,7,5.71l2.46,30.46a10.67,10.67,0,0,0,10.62,9.81,8.44,8.44,0,0,0,.87,0,10.13,10.13,0,0,0,1.56-.24,10.67,10.67,0,0,0,8.22-11.25l-2.74-33.92-.62-1.53c-4.49-11-13.24-18.34-24-20.07a30.39,30.39,0,0,0-4.85-.38Z" transform="translate(-93.88 -14.58)"/><path class="cls-5" d="M449.9,699.12a10.73,10.73,0,0,1-1.51-.11,10.27,10.27,0,0,1-8.65-11.64l4.48-30.31,0-.08c-.91-3.74-2.86-6.24-5.81-7.44a10.53,10.53,0,0,0-4-.74,13.62,13.62,0,0,0-8.06,2.75,10.17,10.17,0,0,1-6.1,2,10.25,10.25,0,0,1-10.15-11.75,10.16,10.16,0,0,1,4-6.73,34.24,34.24,0,0,1,20.27-6.79,31,31,0,0,1,11.7,2.25c10,4.06,16.76,13,18.62,24.65l.25,1.56-5,33.61A10.31,10.31,0,0,1,449.9,699.12Z" transform="translate(-93.88 -14.58)"/><path d="M434.43,627.88v.83A30.31,30.31,0,0,1,446,630.94c9.84,4,16.53,12.86,18.37,24.32l.24,1.5-5,33.55a9.87,9.87,0,0,1-9.71,8.39,10,10,0,0,1-1.45-.1,9.86,9.86,0,0,1-8.3-11.17l4.47-30.23,0-.16,0-.16c-.95-3.87-3-6.47-6.06-7.72a10.76,10.76,0,0,0-4.12-.78,14.12,14.12,0,0,0-8.31,2.83,9.84,9.84,0,0,1-11.73-15.79,33.85,33.85,0,0,1,20-6.71v-.83m0,0a34.58,34.58,0,0,0-20.52,6.87,10.67,10.67,0,1,0,12.72,17.13,13.32,13.32,0,0,1,7.81-2.67,10.13,10.13,0,0,1,3.81.72c2.81,1.14,4.68,3.54,5.56,7.15l-4.47,30.23a10.67,10.67,0,0,0,9,12.11,10.38,10.38,0,0,0,1.57.12,10.68,10.68,0,0,0,10.54-9.11l5-33.67-.26-1.63c-1.88-11.75-8.76-20.85-18.87-25a31.33,31.33,0,0,0-11.86-2.29Z" transform="translate(-93.88 -14.58)"/><path class="cls-5" d="M431.24,697.42a11,11,0,0,1-1.51-.11,10.26,10.26,0,0,1-8.64-11.64l4.48-30.32,0-.08c-.92-3.73-2.87-6.23-5.81-7.43a10.59,10.59,0,0,0-4-.75,13.69,13.69,0,0,0-8.06,2.75,10.12,10.12,0,0,1-6.1,2,10.31,10.31,0,0,1-8.24-4.15,10.25,10.25,0,0,1,2.12-14.34,34.36,34.36,0,0,1,20.28-6.79,30.77,30.77,0,0,1,11.69,2.26c10,4.06,16.76,13,18.63,24.64l.25,1.56-5,33.61A10.31,10.31,0,0,1,431.24,697.42Z" transform="translate(-93.88 -14.58)"/><path d="M415.77,626.18V627a30.59,30.59,0,0,1,11.54,2.22c9.83,4,16.53,12.87,18.37,24.33l.24,1.5-5,33.54a9.89,9.89,0,0,1-9.72,8.4,8.85,8.85,0,0,1-1.45-.11,9.83,9.83,0,0,1-8.29-11.16L426,655.49l0-.16,0-.15c-.95-3.88-3-6.47-6.06-7.72a10.76,10.76,0,0,0-4.12-.78,14.12,14.12,0,0,0-8.3,2.83,9.84,9.84,0,1,1-11.73-15.79,33.83,33.83,0,0,1,20-6.71v-.83m0,0a34.59,34.59,0,0,0-20.53,6.87A10.67,10.67,0,0,0,408,650.18a13.27,13.27,0,0,1,7.81-2.67,10.12,10.12,0,0,1,3.81.71c2.82,1.15,4.68,3.55,5.56,7.15l-4.46,30.23a10.66,10.66,0,0,0,9,12.12,12,12,0,0,0,1.57.11,10.67,10.67,0,0,0,10.54-9.11l5-33.67-.26-1.62c-1.89-11.75-8.77-20.85-18.88-25a31.5,31.5,0,0,0-11.85-2.28Z" transform="translate(-93.88 -14.58)"/><path class="cls-8" d="M393.47,1053.3c-17.79.08-71.17.33-79.13,0-9.58-.43-38.3-2.17-41.78-24.81S238.17,974,230.33,966.65c-6.22-5.88-7-12-5.91-20.4.81-.1,1.27-.12,1.27-.12L263,908.79a3.54,3.54,0,0,1,6,2.17c.8,8.57,3.24,22.14,10.55,29.84,10.08,10.6,26.31,13.61,42.78,7.76a61.86,61.86,0,0,1,23.08-3.74c10.65.42,17.3,3.39,21.2,6.11a4.49,4.49,0,0,1-.35,7.55c-5.77,3.38-15.2,9.37-21.91,16a17.68,17.68,0,0,0-.46,24.61C359.32,1015.57,391.05,1034.34,393.47,1053.3Z" transform="translate(-93.88 -14.58)"/><path class="cls-7" d="M355.89,1064.49c-17.31,0-35.63-.08-47.95-.16a69.42,69.42,0,0,1-32.63-8.33c-22.08-12-60.52-37.21-70-72.08-2.84-11.74-2-21,2.47-27.59,4.8-7,12.51-9,16.12-9.59-.94,8-.18,14.27,6.11,20.21.38.36,38.19,36.28,42.1,61.58,2.39,15.55,16.58,24,42.17,25.15,2.81.13,11.58.2,26.07.2,17.7,0,39.38-.1,51-.15h1.69a66.75,66.75,0,0,1,1,10.52C386.08,1064.41,373.22,1064.49,355.89,1064.49Z" transform="translate(-93.88 -14.58)"/><path d="M223.47,947.24c-.86,7.91,0,14.09,6.29,20,.38.36,38.09,36.18,42,61.34,2.42,15.78,16.74,24.36,42.57,25.51,2.81.12,11.58.19,26.08.19,17.54,0,39.13-.09,50.72-.15h1.67a65.23,65.23,0,0,1,.94,9.69c-8.08.17-20.81.25-37.84.25-17.3,0-35.62-.09-47.93-.16a69.21,69.21,0,0,1-32.44-8.28c-22-11.92-60.36-37.11-69.76-71.8-2.81-11.64-2-20.82,2.42-27.28s11.56-8.66,15.3-9.32m.95-1c-5.58.75-27.24,5.69-19.47,37.78,9.45,34.89,47.6,60.13,70.16,72.34a69.82,69.82,0,0,0,32.83,8.38c12.54.07,30.73.16,47.94.16,15.18,0,29.6-.07,38.69-.27a67.3,67.3,0,0,0-1.1-11.34c-10.7,0-34.26.16-53.08.16-12.48,0-22.87,0-26.05-.19-9.58-.43-38.3-2.17-41.78-24.81S238.17,974,230.33,966.65c-6.22-5.88-7-12-5.91-20.4Z" transform="translate(-93.88 -14.58)"/><line class="cls-10" x1="239.69" y1="952.82" x2="258.89" y2="952.82"/><line class="cls-10" x1="231.91" y1="963.73" x2="247.11" y2="963.73"/><line class="cls-10" x1="224.7" y1="973.57" x2="245.34" y2="973.57"/><path class="cls-9" d="M293.3,1050.45c2.63-11.16-4-22.54,87.1-18.69" transform="translate(-93.88 -14.58)"/><path class="cls-9" d="M260.89,1002.65v0c.08-.65,1.37-13.27-.44-37.07-1.61-20.88-12.56-30.73-21.52-32.66" transform="translate(-93.88 -14.58)"/><path class="cls-3" d="M222.93,760l-.23-.47c-2.1-2.35-5.08-8.12-5.08-8.12l-4.05-43L262,688.6l-6.05,26L291.35,711l-49.11,51Z" transform="translate(-93.88 -14.58)"/><polygon class="cls-3" points="235.03 584.47 253.32 575.08 267.93 584.47 271.05 612.25 263.38 621.02 250.45 627.1 235.03 584.47"/><path class="cls-5" d="M419.56,661.22c-12.16,9.51,8.05,23.84-7.38,23.84a27.95,27.95,0,1,1,0-55.89C427.61,629.17,440.88,644.55,419.56,661.22Z" transform="translate(-93.88 -14.58)"/><polygon class="cls-2" points="148.33 796.43 147.57 807.64 196.27 775.52 205.78 761.91 200.79 763.12 153.53 778.85 148.33 796.43"/><rect class="cls-11" x="280.91" y="680.68" width="110.63" height="21.1" rx="4.88"/><path class="cls-11" d="M472.29,711l-2.44-6.45a15.51,15.51,0,0,1,1.06-13.24l75.43-131.16A14.23,14.23,0,0,1,558.67,553H761a11.26,11.26,0,0,1,9.82,16.77L691.29,711.48a13.18,13.18,0,0,1-11.61,6.73L480,716.32A8.28,8.28,0,0,1,472.29,711Z" transform="translate(-93.88 -14.58)"/><line class="cls-12" x1="475.21" y1="538.42" x2="380.42" y2="701.69"/><path class="cls-13" d="M1408.78,315.59C1421.64,343.11,1424,383,1425,397c1.37,19-4.12,27.17-5.37,29.1-2.37,3.65-4.26,3.5-5.15,3.12l-3.27,49,.53.32a27.35,27.35,0,0,0,13.9,3.83c4.16-.68,6-.33,10.89-2.19,10.45-3.9,24.77-12.48,33.55-25.32,20.87-30.49,38.47-89.65,4.18-153-15.75-29.1-38.66-28.83-52.29-22.46A27.25,27.25,0,0,0,1408.78,315.59Z" transform="translate(-93.88 -14.58)"/><path class="cls-5" d="M1425.59,481.93a26.88,26.88,0,0,1-13.69-3.77l-.52-.31c-5-3.1-17.63-19.05-20.63-24.76-.91-1.75-2.53-4.8-4.68-8.85-14.22-26.82-52-98.09-60-117.71A27.1,27.1,0,0,1,1341,291.2a23.09,23.09,0,0,1,8.52-2c7.08,0,10.54,5.44,15.19,16.87,2.6,6.38,11.81,19.37,22.49,34.41,12.09,17,27.14,38.24,37.38,56.7l8.83,15.9c9.64,17.36,17.26,31.07,17.79,32.54a27,27,0,0,1-12,32.71,25.83,25.83,0,0,1-4.31,2,26.94,26.94,0,0,1-9.14,1.6Z" transform="translate(-93.88 -14.58)"/><path d="M1349.52,289.61c6.84,0,10.22,5.35,14.8,16.6,2.62,6.43,11.41,18.82,22.54,34.5,12.09,17,27.13,38.22,37.36,56.66l8.87,16c9.61,17.3,17.2,31,17.72,32.4A26.63,26.63,0,0,1,1439,478a25.89,25.89,0,0,1-4.25,2,26.31,26.31,0,0,1-9,1.58h-.19a26.52,26.52,0,0,1-13.47-3.71l-.52-.31c-4.93-3.07-17.5-18.93-20.48-24.61l-4.67-8.83c-14.22-26.82-52-98.08-60-117.69a26.7,26.7,0,0,1,14.68-34.78,22.58,22.58,0,0,1,8.37-2m0-.83a23.42,23.42,0,0,0-8.68,2,27.51,27.51,0,0,0-15.13,35.86c9.18,22.59,57.63,113.2,64.68,126.6,3,5.69,15.69,21.76,20.77,24.92l.53.32a27.35,27.35,0,0,0,13.9,3.83h.19a27.22,27.22,0,0,0,9.28-1.63,25.77,25.77,0,0,0,4.38-2,27.52,27.52,0,0,0,12.15-33.21c-.7-1.92-12.52-23-26.64-48.5-19.23-34.65-54.33-77.48-59.86-91.07-4.34-10.67-7.95-17.12-15.57-17.12Z" transform="translate(-93.88 -14.58)"/><circle class="cls-14" cx="1249.92" cy="305.37" r="34.16"/><path class="cls-4" d="M1369.12,310.12c14.14,2.24,40.85.12,38.41,19-2.9,22.38-50.82.67-50.82.67" transform="translate(-93.88 -14.58)"/><path class="cls-11" d="M1267.83,316.08l111.53,11.54.53,464.9-21.64,59.75a10,10,0,0,1-9,5.71l-97.21.12Z" transform="translate(-93.88 -14.58)"/><path class="cls-5" d="M1291.84,330.88a8.8,8.8,0,0,1-1.91-.21,9.67,9.67,0,0,1-1.27-.37,9,9,0,0,1-5.59-10.28l6.29-29,.68-1.19c5.1-8.92,13.42-14.18,22.82-14.43h.69a29.13,29.13,0,0,1,24.06,13.56,9,9,0,0,1-2.68,12.38,8.95,8.95,0,0,1-12.38-2.68,11.23,11.23,0,0,0-9-5.34h-.22c-2.77.08-5.14,1.52-7,4.29l0,.06-5.66,26.17a9,9,0,0,1-8.75,7.07Z" transform="translate(-93.88 -14.58)"/><path d="M1313.55,275.74a28.77,28.77,0,0,1,23.76,13.39,8.6,8.6,0,0,1-14.46,9.31,11.57,11.57,0,0,0-9.3-5.51h-.23c-2.89.08-5.36,1.57-7.33,4.45l-.08.12,0,.14-5.65,26.1a8.57,8.57,0,0,1-10.22,6.58,8.94,8.94,0,0,1-1.22-.36,8.64,8.64,0,0,1-5.36-9.86l6.27-29,.66-1.15c5-8.81,13.24-14,22.51-14.25h.68m0-.73h-.7c-9.53.25-18,5.58-23.12,14.61l-.71,1.24-6.3,29.07a9.32,9.32,0,0,0,5.82,10.7,9.18,9.18,0,0,0,1.32.39,9.59,9.59,0,0,0,2,.21,9.33,9.33,0,0,0,9.1-7.35l5.65-26.1c1.83-2.67,4.1-4.06,6.75-4.13h.21a10.81,10.81,0,0,1,8.69,5.18,9.32,9.32,0,0,0,15.68-10.09A29.38,29.38,0,0,0,1313.55,275Z" transform="translate(-93.88 -14.58)"/><path class="cls-5" d="M1313.46,344.17a9.64,9.64,0,0,1-1.19-.08,9,9,0,0,1-7.76-8.76l-.41-29.68.4-1.33c3-9.83,9.87-16.83,19-19.19a26.89,26.89,0,0,1,6.71-.85,29.72,29.72,0,0,1,20.47,8.47,9,9,0,1,1-12.49,12.85,11.66,11.66,0,0,0-8-3.4,8.92,8.92,0,0,0-2.21.27c-2.68.7-4.67,2.64-5.89,5.77l0,.07.38,26.77a9,9,0,0,1-8.83,9.08Z" transform="translate(-93.88 -14.58)"/><path d="M1330.18,284.64a29.37,29.37,0,0,1,20.21,8.37,8.6,8.6,0,0,1-12,12.33,12,12,0,0,0-8.23-3.51,9.17,9.17,0,0,0-2.3.29c-2.81.73-4.87,2.74-6.14,6l0,.13v.14l.38,26.71a8.61,8.61,0,0,1-8.48,8.71h-.12a8.88,8.88,0,0,1-1.15-.07,8.64,8.64,0,0,1-7.44-8.4l-.42-29.63.38-1.27c2.92-9.71,9.75-16.62,18.73-18.95a26.5,26.5,0,0,1,6.61-.84m0-.72a27,27,0,0,0-6.8.86c-9.23,2.39-16.24,9.48-19.23,19.44l-.42,1.38.42,29.74a9.34,9.34,0,0,0,8.08,9.11,10.06,10.06,0,0,0,1.24.08h.13a9.33,9.33,0,0,0,9.19-9.45l-.37-26.71c1.18-3,3.07-4.88,5.64-5.55a8.85,8.85,0,0,1,2.12-.26,11.35,11.35,0,0,1,7.72,3.3,9.32,9.32,0,0,0,13-13.37,30,30,0,0,0-20.72-8.57Z" transform="translate(-93.88 -14.58)"/><path class="cls-5" d="M1329.82,344.85a9.64,9.64,0,0,1-1.19-.08,9,9,0,0,1-7.76-8.76l-.41-29.68.39-1.32c3-9.84,9.88-16.84,19-19.2a26.81,26.81,0,0,1,6.7-.85,29.65,29.65,0,0,1,20.47,8.48,9,9,0,1,1-12.49,12.84,11.63,11.63,0,0,0-8-3.4,8.92,8.92,0,0,0-2.21.27c-2.69.7-4.67,2.64-5.89,5.77l0,.07.38,26.77a9,9,0,0,1-8.84,9.09Z" transform="translate(-93.88 -14.58)"/><path d="M1346.53,285.33a29.33,29.33,0,0,1,20.22,8.37,8.59,8.59,0,1,1-12,12.32,12,12,0,0,0-8.23-3.5,9.12,9.12,0,0,0-2.3.28c-2.81.73-4.87,2.75-6.14,6l0,.13v.15l.37,26.7a8.59,8.59,0,0,1-8.47,8.71h-.12a8.77,8.77,0,0,1-1.15-.07,8.64,8.64,0,0,1-7.45-8.4l-.41-29.63.38-1.27c2.92-9.71,9.74-16.62,18.72-18.95a26.61,26.61,0,0,1,6.61-.83m0-.73a27,27,0,0,0-6.79.86c-9.23,2.39-16.24,9.48-19.23,19.44l-.42,1.38.42,29.74a9.32,9.32,0,0,0,8.07,9.11,10.23,10.23,0,0,0,1.25.08h.13a9.32,9.32,0,0,0,9.19-9.45l-.37-26.7c1.17-3,3.07-4.89,5.64-5.55a8.27,8.27,0,0,1,2.12-.27,11.35,11.35,0,0,1,7.72,3.3,9.32,9.32,0,1,0,13-13.36,29.93,29.93,0,0,0-20.73-8.58Z" transform="translate(-93.88 -14.58)"/><path class="cls-5" d="M1342.94,314.77c9.43,9.64-4.94,5.35,8.43,7.13s20.86,6.76,22.64-6.6a24.43,24.43,0,0,0-21-27.44C1339.67,286.08,1326.4,297.86,1342.94,314.77Z" transform="translate(-93.88 -14.58)"/><path class="cls-15" d="M1546.25,961.54c10.92,0,17.94,5.85,17.94,10.63v14.14l-12,6.65s-13-6-13.3-6.65-3.43-20.2-3.43-20.2Z" transform="translate(-93.88 -14.58)"/><rect class="cls-7" x="1326" y="882.24" width="60.13" height="94.95"/><path d="M1479.6,897.24v94.11h-59.3V897.24h59.3m.83-.83h-61v95.77h61V896.41Z" transform="translate(-93.88 -14.58)"/><rect class="cls-7" x="1389.19" y="879.78" width="60.13" height="97.4"/><path d="M1542.79,894.78v96.57h-59.3V894.78h59.3m.83-.83h-61v98.23h61V894Z" transform="translate(-93.88 -14.58)"/><path class="cls-16" d="M1516.7,303.6c-25.91,8.83-34.21,31.3-37.51,47.09a239.62,239.62,0,0,0-50.9-18,29.48,29.48,0,1,1,13.2-57.46C1466.2,280.89,1493,290.38,1516.7,303.6Z" transform="translate(-93.88 -14.58)"/><path class="cls-17" d="M1482.89,926.46c-7.72-4.33-22.45-7.32-36.26-7.32-12.81,0-23.3,2.56-29.66,7.23l-16.61-454.56c0-21.3,16.65-38.64,37.11-38.64s37.11,17.34,37.11,38.66Z" transform="translate(-93.88 -14.58)"/><path d="M1437.47,433.58c20.24,0,36.7,17.16,36.7,38.27l8.29,453.9c-7.93-4.17-22.32-7-35.82-7-12.5,0-22.8,2.43-29.29,6.87l-16.57-453.76c0-21.09,16.46-38.25,36.69-38.25m0-.83c-20.72,0-37.52,17.5-37.52,39.08l16.63,455.36c6.93-5.49,18.37-7.64,30.06-7.64,14.56,0,29.52,3.33,36.68,7.64L1475,471.83c0-21.58-16.8-39.08-37.53-39.08Z" transform="translate(-93.88 -14.58)"/><path class="cls-17" d="M1547.47,929.77c-14.52-7.08-27.12-10.53-38.48-10.53a51.13,51.13,0,0,0-29.46,9.15l-6.26-456.1c0-21.57,21-39.12,46.86-39.12S1567,450.72,1567,472.29Z" transform="translate(-93.88 -14.58)"/><path d="M1520.13,433.58c25.61,0,46.45,17.37,46.45,38.68l-19.5,456.86c-14.34-6.92-26.81-10.29-38.09-10.29a51.36,51.36,0,0,0-29,8.79l-6.26-455.32c0-21.35,20.84-38.72,46.45-38.72m0-.83c-26.11,0-47.28,17.7-47.28,39.55l6.28,456.87a51.05,51.05,0,0,1,29.86-9.51c12.13,0,25,3.94,38.87,10.76l19.55-458.12c0-21.85-21.17-39.55-47.28-39.55Z" transform="translate(-93.88 -14.58)"/><ellipse class="cls-17" cx="1384.72" cy="476.87" rx="82.18" ry="51.22"/><path d="M1478.6,440.66c45.08,0,81.76,22.79,81.76,50.8s-36.68,50.8-81.76,50.8-81.76-22.79-81.76-50.8,36.67-50.8,81.76-50.8m0-.83c-45.62,0-82.59,23.11-82.59,51.63s37,51.63,82.59,51.63,82.59-23.11,82.59-51.63-37-51.63-82.59-51.63Z" transform="translate(-93.88 -14.58)"/><polygon class="cls-17" points="1460.91 516.19 1460.91 481.37 1381.67 506.29 1381.67 566.77 1460.91 516.19"/><polygon class="cls-17" points="1304.73 516.19 1304.73 481.37 1357.59 500.26 1357.59 560.74 1304.73 516.19"/><path class="cls-18" d="M1431.67,954.49h-17.54c-6.68,0-12.56,5-13,11.66-.22,3.2.42,7.25,2.51,12.34,8.35,20.38,47.59,20.07,51.51,3.47,2.18-9.21-3.06-16.66-8.16-21.46A22.25,22.25,0,0,0,1431.67,954.49Z" transform="translate(-93.88 -14.58)"/><path class="cls-19" d="M1350.84,1045.92h175.92c-2.13-22.44-19-54.28-22.38-61.21-9,2.29-18.58-3.48-24.94-8.61-7.92-6.38-19.71-4.87-25.3,3.62a2.8,2.8,0,0,0-.2.32c-3.54-2.86-9.11-4.49-15.24-5.37-19.93-2.84-40.14,3.3-55.69,16.09-12.47,10.29-26.18,24.69-30,40.66A76.33,76.33,0,0,0,1350.84,1045.92Z" transform="translate(-93.88 -14.58)"/><path class="cls-18" d="M1359.1,1065h162.57c4.67-4,5.89-11,5.09-19.33H1350.84C1350.07,1063.31,1359.1,1065,1359.1,1065Z" transform="translate(-93.88 -14.58)"/><path class="cls-1" d="M1453.57,980.47s-41.71,39.19-76.54,39.19c-2.89,0-7.75.22-19.65.22" transform="translate(-93.88 -14.58)"/><path class="cls-1" d="M1391.76,984.32c18.26-6.48,51.74-1.05,55.42,1.73" transform="translate(-93.88 -14.58)"/><path class="cls-1" d="M1380,993.05c17.93-7.16,52.76-1.21,56.51,1.66" transform="translate(-93.88 -14.58)"/><path class="cls-1" d="M1371,1001.57c18.64-5.31,49.31-.6,52.81,2.07" transform="translate(-93.88 -14.58)"/><path class="cls-1" d="M1363.93,1009.78c18.46-3.12,42.11-.61,45.14,1.69" transform="translate(-93.88 -14.58)"/><rect class="cls-20" x="1428.36" y="1008.32" width="77.35" height="17.36" rx="2.74" transform="translate(2840.18 2019.41) rotate(-180)"/><rect class="cls-20" x="1428.36" y="1008.32" width="77.35" height="17.36" rx="2.74" transform="translate(2840.18 2019.41) rotate(-180)"/><path class="cls-18" d="M1495.31,954.49h-17.54c-6.68,0-12.55,5-13,11.66-.23,3.2.41,7.25,2.5,12.34,8.35,20.38,47.59,20.07,51.52,3.47,2.17-9.21-3.07-16.66-8.16-21.46A22.29,22.29,0,0,0,1495.31,954.49Z" transform="translate(-93.88 -14.58)"/><path class="cls-19" d="M1414.49,1045.92H1590.4c-2.13-22.44-19-54.28-22.38-61.21-9,2.29-18.57-3.48-24.94-8.61-7.92-6.38-19.71-4.87-25.3,3.62a2.8,2.8,0,0,0-.2.32c-3.54-2.86-9.11-4.49-15.24-5.37-19.93-2.84-40.14,3.3-55.69,16.09-12.47,10.29-26.18,24.69-30,40.66A76.21,76.21,0,0,0,1414.49,1045.92Z" transform="translate(-93.88 -14.58)"/><path class="cls-18" d="M1422.74,1065h162.57c4.67-4,5.89-11,5.09-19.33H1414.49C1413.71,1063.31,1422.74,1065,1422.74,1065Z" transform="translate(-93.88 -14.58)"/><path class="cls-1" d="M1517.21,980.47s-41.71,39.19-76.54,39.19c-2.89,0-7.75.22-19.65.22" transform="translate(-93.88 -14.58)"/><path class="cls-1" d="M1455.4,984.32c18.26-6.48,51.74-1.05,55.42,1.73" transform="translate(-93.88 -14.58)"/><path class="cls-1" d="M1443.65,993.05c17.92-7.16,52.75-1.21,56.51,1.66" transform="translate(-93.88 -14.58)"/><path class="cls-1" d="M1434.66,1001.57c18.63-5.31,49.31-.6,52.81,2.07" transform="translate(-93.88 -14.58)"/><path class="cls-1" d="M1427.57,1009.78c18.46-3.12,42.11-.61,45.14,1.69" transform="translate(-93.88 -14.58)"/><rect class="cls-20" x="1492" y="1008.32" width="77.35" height="17.36" rx="2.74" transform="translate(2967.47 2019.41) rotate(-180)"/><rect class="cls-20" x="1492" y="1008.32" width="77.35" height="17.36" rx="2.74" transform="translate(2967.47 2019.41) rotate(-180)"/><path class="cls-7" d="M1395.67,488.39a7.53,7.53,0,0,1-5.16-2.51,10.13,10.13,0,0,1-3-7.09l18.28-78.18c.39-2.21.83-4.62,1.3-7.17,2.51-13.81,5.65-31,6.6-42.72,4.77-59,30.34-94,72-98.49,38.47,2.65,61.28,9.46,71.69,21.43,9.67,11.13,8.59,26.26,7.35,43.79-.47,6.58-1,13.38-1,20.6,0,1,3.17,95.86,3.84,139.8a9,9,0,0,1-2.59,6.5,9.15,9.15,0,0,1-6.47,2.72,9.48,9.48,0,0,1-2.18-.26c-41.55-10.18-72.8-14.91-98.35-14.91-26.18,0-45.6,5.05-59.37,15.46A4.91,4.91,0,0,1,1395.67,488.39Z" transform="translate(-93.88 -14.58)"/><path d="M1485.67,252.65c38.39,2.64,61.08,9.4,71.4,21.28,9.56,11,8.49,26.05,7.25,43.49-.47,6.58-1,13.39-1,20.65,0,1,3.17,95.85,3.85,139.79a8.54,8.54,0,0,1-2.48,6.2,8.58,8.58,0,0,1-8.25,2.34c-41.58-10.18-72.87-14.92-98.45-14.92-26.28,0-45.78,5.09-59.62,15.55a4.53,4.53,0,0,1-2.75.94,7.12,7.12,0,0,1-4.86-2.38,9.75,9.75,0,0,1-2.87-6.7l18.28-78.23c.39-2.19.83-4.6,1.3-7.15,2.52-13.81,5.65-31,6.6-42.76,4.76-58.76,30.17-93.6,71.55-98.1m9.25-1.32h-17.44q4.21.21,8.18.49a85.12,85.12,0,0,1,9.26-.49Zm-9.26.49c-39.92,4.3-67.36,37.06-72.37,98.87-1.12,13.93-5.43,36.07-7.89,49.83l-18.29,78.26c-.12,5,4.26,10,8.56,10a5.3,5.3,0,0,0,3.25-1.11c14.48-10.94,34.82-15.38,59.12-15.38,28.39,0,62.17,6.06,98.25,14.9a9.48,9.48,0,0,0,11.76-9.36c-.68-44.46-3.85-139.8-3.85-139.8,0-46.65,20.5-79.44-78.54-86.23Z" transform="translate(-93.88 -14.58)"/><path class="cls-21" d="M1438.49,268.29l5.81-2.81,10.33,9s-12.27,6.75-14.26,30.67L1416,301l4.3-15.71Z" transform="translate(-93.88 -14.58)"/><path class="cls-7" d="M1556,332.4l-2.13-2.62-9.64-56.85-13.3-2.27-43.16,15.57s-5.13,43.61-2.56,46.17,52.09,7.16,52.09,7.16Z" transform="translate(-93.88 -14.58)"/><path class="cls-4" d="M1413.29,239l35.42,35.46s-9.61,14.63,0,18.68,46.3,5.06,70.71-27.07c-16.58-26.56-31.58-61.47-31.58-61.47Z" transform="translate(-93.88 -14.58)"/><path class="cls-5" d="M1432.87,258.84c-1.68,0-3.37,0-5-.12a110.63,110.63,0,0,1-42.47-10.52,108.42,108.42,0,0,1-14.62-8.33,105.78,105.78,0,0,1-10.19-7.72,112.75,112.75,0,0,1-29.06-38.51c-.41-.9-.81-1.8-1.18-2.72a110.27,110.27,0,0,1-7.88-28.93c-.24-1.86-.44-3.82-.6-6-.22-2.92-.33-5.8-.33-8.56,0-.81,0-1.62,0-2.43a111.4,111.4,0,0,1,221.5-14.33c0,.18.06.33.08.48l0,.25a111.34,111.34,0,0,1,1.08,12.24c0,1.25.07,2.53.07,3.79,0,1.89,0,3.81-.15,5.88-.15,3-.42,5.92-.81,8.81-.19,1.48-.44,3.07-.72,4.71-.22,1.22-.45,2.44-.71,3.65a109.38,109.38,0,0,1-7,21.78,111.86,111.86,0,0,1-51.5,54.48l-.23.11h0a110.13,110.13,0,0,1-50.27,12Z" transform="translate(-93.88 -14.58)"/><path d="M1432.92,36.45a111,111,0,0,1,109.73,94.34c0,.15,0,.29.07.44l0,.23a113.55,113.55,0,0,1,1.08,12.2c0,1.4.06,2.64.06,3.78,0,1.89-.05,3.8-.14,5.87-.15,2.93-.43,5.88-.81,8.77-.19,1.47-.44,3-.72,4.68-.24,1.34-.47,2.53-.71,3.65a109.19,109.19,0,0,1-7,21.7,111.43,111.43,0,0,1-51.31,54.27l-.43.23a109.72,109.72,0,0,1-49.88,11.81h-.05c-1.68,0-3.36,0-5-.11a110.44,110.44,0,0,1-42.32-10.48,113.62,113.62,0,0,1-24.71-16,112.34,112.34,0,0,1-28.95-38.37c-.48-1-.85-1.9-1.18-2.71a110.39,110.39,0,0,1-7.85-28.83c-.24-1.84-.43-3.79-.6-6-.21-2.92-.32-5.79-.32-8.53,0-.8,0-1.62,0-2.43a110.88,110.88,0,0,1,111-108.56m0-.83A111.82,111.82,0,0,0,1321.14,145c0,.82,0,1.64,0,2.45q0,4.34.32,8.59c.16,2,.35,4,.61,6a111.06,111.06,0,0,0,7.9,29c.38.92.78,1.83,1.19,2.73a112.46,112.46,0,0,0,29.17,38.66,106.68,106.68,0,0,0,10.22,7.74,108.87,108.87,0,0,0,14.68,8.37,111.51,111.51,0,0,0,42.63,10.56c1.67.07,3.35.11,5,.11h.05a111.28,111.28,0,0,0,50.69-12.12h0a112.2,112.2,0,0,0,51.69-54.68,110.07,110.07,0,0,0,7-21.86c.25-1.22.49-2.44.71-3.67.27-1.57.52-3.15.72-4.73q.59-4.37.82-8.83h0c.09-2,.14-3.92.14-5.9,0-1.27,0-2.55-.06-3.81a115.69,115.69,0,0,0-1.09-12.29c0-.24-.07-.48-.12-.72a111.8,111.8,0,0,0-110.54-95Z" transform="translate(-93.88 -14.58)"/><path class="cls-1" d="M1401.71,140c-16.48,7.06-16.48,25.9,0,21.19" transform="translate(-93.88 -14.58)"/><line class="cls-1" x1="1260.28" y1="121.08" x2="1302.65" y2="121.08"/><line class="cls-1" x1="1274.4" y1="132.85" x2="1274.4" y2="121.08"/><polyline class="cls-1" points="1365.73 121.08 1317.47 121.08 1317.47 110.12"/><line class="cls-1" x1="1331.6" y1="135.21" x2="1331.6" y2="121.08"/><path class="cls-1" d="M1401.71,181.57c0,7.06-7.06,9.42-7.06,11.77s2.35,2.36,11.77,2.36" transform="translate(-93.88 -14.58)"/><line class="cls-1" x1="1303.88" y1="181.11" x2="1312.53" y2="192.88"/><path class="cls-22" d="M1376.18,193a4.35,4.35,0,0,1-2.37-8l20-12.94a4.35,4.35,0,0,1,4.72,7.3l-20,12.94A4.22,4.22,0,0,1,1376.18,193Z" transform="translate(-93.88 -14.58)"/><path class="cls-22" d="M1428.78,193a4.27,4.27,0,0,1-2.36-.7l-20-12.94a4.35,4.35,0,1,1,4.72-7.3l20,12.94a4.35,4.35,0,0,1-2.36,8Z" transform="translate(-93.88 -14.58)"/><circle class="cls-23" cx="1252.63" cy="166.99" r="2.59"/><path class="cls-22" d="M1324.2,121.24c-2.66-36,13.6-83.66,89.44-103.85,36.57-9.75,78.61,11.8,98,38.27C1523.34,45.71,1557.87,83,1547,128c-8.45,34.9-26.91,40.21-34.42,39s-21-2.66-19-35.89c2.17-35.57-6-55.49-26.57-61.51-39.15-11.45-74.89,34.74-111.91-2.4C1329.26,100.22,1324.2,121.24,1324.2,121.24Z" transform="translate(-93.88 -14.58)"/><path class="cls-24" d="M1529.67,203.36a35,35,0,0,0,7.48-.89,40.63,40.63,0,0,0,7-2.27c12.56-5.27,23.2-16.59,23.12-29.33a31.76,31.76,0,0,0-32-31.55c-.33,0-.65,0-1,0a31.67,31.67,0,0,0-25.87,15.06s-3.77,4.89-3.77,10.56" transform="translate(-93.88 -14.58)"/><polyline class="cls-1" points="1453.59 143.02 1434.16 157.42 1458.22 161.81"/><path class="cls-22" d="M1482.74,246.29v0A111.38,111.38,0,0,1,1432,258.06h0c-1.7,0-3.38-.07-5.05-.16A111.38,111.38,0,0,1,1384.32,247a108.14,108.14,0,0,1-14.61-8.48c4.68-4.81,10.84-12.07,15.22-15.49,7.16-6.5,13.29-9.39,21.6-9.33a26.45,26.45,0,0,1,13.33,3.72,29,29,0,0,1,8.14,7.25,51.51,51.51,0,0,0,6.19,6.92A60,60,0,0,0,1482.74,246.29Z" transform="translate(-93.88 -14.58)"/><path class="cls-25" d="M1355.47,67.49c-9.14-12-13.1-32.2-.93-43.66-3.2,8.72,16.17,41.4,33.87,41.71" transform="translate(-93.88 -14.58)"/><path class="cls-21" d="M1488.9,301l2.54-18.87,7.08-9.2s7.8-4.78,9.44-4.6,10.71,2.9,10.71,2.9,4.9,27.41,4.9,28-14.16,8.38-14.71,8.18S1488.9,301,1488.9,301Z" transform="translate(-93.88 -14.58)"/><path class="cls-16" d="M1490.83,295.14s-1.21-15.41,10.18-20.7c11-5.1,5.28,14,13.93,17,6.93,2.42,20.39-16.48,16.74-24.44-14.55-17.17-21.33-18.55-21.33-18.55s7.41,9.58,2.47,13.91-24,12.18-25.55,28c-1.43,14.25,15,239.09,22.46,283.64,1.31,7.89,10.51,7.13,14.94,6.76,21-1.79,76.54-8.9,83.13-34.3,8.14-31.4-34.11-215.83-34.11-215.83s30.31.66,62,27.86a1.46,1.46,0,0,0,2.36-.67c7.18-22.86,18.23-36.45,39.69-38.48a.75.75,0,0,0,.36-1.36c-29.52-21.57-53.71-42.9-123.33-54.13,0,0-19.38-10.74-34.57-9" transform="translate(-93.88 -14.58)"/><path class="cls-16" d="M1444.5,285.3c-5.5,9.09-25.06,251.67-28,288.81a7.39,7.39,0,0,1-5.42,6.59c-6.89,1.84-19.7,2.85-31.09-9.44-16.57-17.87,37.65-245,37.65-245l9.6-43.09" transform="translate(-93.88 -14.58)"/><polygon class="cls-21" points="1336.64 262.28 1323.19 270.71 1320.97 290.52 1332.1 297.98 1338.56 292.76 1339.03 280.56 1336.64 262.28"/><path class="cls-16" d="M1438.62,264.34c-13.09,2.59-18.45,29.9-16.32,29.89,2.45,0,2-15.84,10-14.94,7.41.84,7,17.46,7,17.46" transform="translate(-93.88 -14.58)"/><path class="cls-26" d="M1448.71,274.44c-3.91,4.66-6.07,18.31-6.76,23.08" transform="translate(-93.88 -14.58)"/><path class="cls-5" d="M1600.44,511.09a11.49,11.49,0,0,1-7.39-2.71l-44.9-38a11.44,11.44,0,1,1,14.79-17.47l44.9,38a11.44,11.44,0,0,1-7.4,20.18Z" transform="translate(-93.88 -14.58)"/><path d="M1555.55,450.59h0a11.06,11.06,0,0,1,7.12,2.61l44.9,38a11,11,0,0,1-14.26,16.84l-44.9-38a11,11,0,0,1-1.29-15.55,11,11,0,0,1,8.43-3.9m0-.83a11.85,11.85,0,0,0-7.67,20.91l44.9,38a11.86,11.86,0,0,0,15.33-18.1l-44.9-38a11.8,11.8,0,0,0-7.66-2.81Z" transform="translate(-93.88 -14.58)"/><path class="cls-5" d="M1580.07,545.36a27.43,27.43,0,0,1-14-51,317.37,317.37,0,0,0,35.32-24.07c38.87-30.88,55.05-62.4,48.09-93.7-.11-.51-.21-1-.29-1.34-1.14-5.85-4.9-11.76-11.17-17.57a.14.14,0,0,1,0-.07c7.8-24.86,19.56-36.28,39.31-38.16,13.79,13.48,22.42,28.67,25.68,45.16,5.29,26.72,1,55-12.29,81.84-15.77,31.7-43.55,60.73-82.57,86.3-4.64,3-9.38,6-14.09,8.79A27.35,27.35,0,0,1,1580.07,545.36Z" transform="translate(-93.88 -14.58)"/><path d="M1677.17,319.86c13.64,13.39,22.19,28.46,25.42,44.81,5.28,26.63,1,54.84-12.26,81.58-15.72,31.63-43.46,60.61-82.42,86.13-4.63,3-9.37,6-14.07,8.78a27,27,0,1,1-27.58-46.46,319,319,0,0,0,35.36-24.1c39-31,55.24-62.65,48.24-94.12-.12-.51-.21-1-.29-1.33-1.15-5.88-4.89-11.8-11.11-17.62,7.73-24.47,19.32-35.75,38.71-37.67m.29-.87a.65.65,0,0,1-.16,0c-21.47,2-32.52,15.62-39.7,38.47a.81.81,0,0,1-.11.27c6,5.56,10.07,11.48,11.27,17.55,1.55,7.84,13.7,45.89-47.66,94.64a316.67,316.67,0,0,1-35.27,24,27.84,27.84,0,0,0,28.43,47.88q7.34-4.35,14.11-8.79c84.08-55.09,104.8-119.29,95-168.57-3.49-17.66-12.88-32.79-26-45.52Z" transform="translate(-93.88 -14.58)"/><circle class="cls-27" cx="1485.35" cy="498.27" r="32.23"/><path class="cls-5" d="M1521.11,532.68a11.44,11.44,0,0,1-5.6-21.43l51.34-28.74a11.44,11.44,0,1,1,11.18,20l-51.34,28.74A11.36,11.36,0,0,1,1521.11,532.68Z" transform="translate(-93.88 -14.58)"/><path d="M1572.43,481.46h0a11.05,11.05,0,0,1,9.64,5.65,11,11,0,0,1-4.24,15l-51.34,28.74a11,11,0,1,1-10.78-19.25l51.34-28.74a11.08,11.08,0,0,1,5.38-1.41m0-.83a11.85,11.85,0,0,0-5.78,1.51l-51.34,28.75a11.86,11.86,0,0,0,11.59,20.7l51.33-28.75a11.86,11.86,0,0,0-5.8-22.21Z" transform="translate(-93.88 -14.58)"/><path class="cls-5" d="M1555.77,561.83a11.68,11.68,0,0,1-10.19-6,11.67,11.67,0,0,1,4.48-15.86l35.88-20.12a11.64,11.64,0,0,1,15.86,4.48,11.65,11.65,0,0,1-4.47,15.86l-35.88,20.12A11.69,11.69,0,0,1,1555.77,561.83Z" transform="translate(-93.88 -14.58)"/><path d="M1591.62,518.81h0a11.26,11.26,0,0,1,9.82,5.75,11.24,11.24,0,0,1-4.32,15.3L1561.24,560a11.24,11.24,0,0,1-11-19.62l35.88-20.12a11.34,11.34,0,0,1,5.48-1.43m0-.83a12,12,0,0,0-5.88,1.54l-35.88,20.12a12.07,12.07,0,0,0,5.91,22.6,11.94,11.94,0,0,0,5.88-1.54l35.88-20.12a12.07,12.07,0,0,0-5.91-22.6Z" transform="translate(-93.88 -14.58)"/><path class="cls-5" d="M1527.26,553.68a11.69,11.69,0,0,1-10.19-6,11.66,11.66,0,0,1,4.48-15.86L1590,493.61A11.66,11.66,0,0,1,1601.42,514l-68.48,38.25A11.68,11.68,0,0,1,1527.26,553.68Z" transform="translate(-93.88 -14.58)"/><path d="M1595.71,492.53h0a11.26,11.26,0,0,1,9.82,5.76,11.24,11.24,0,0,1-4.31,15.29l-68.49,38.25a11.24,11.24,0,0,1-11-19.61L1590.24,494a11.18,11.18,0,0,1,5.47-1.44m0-.83a12,12,0,0,0-5.88,1.54l-68.48,38.25a12.07,12.07,0,1,0,11.79,21.07l68.48-38.25a12.07,12.07,0,0,0-5.91-22.61Z" transform="translate(-93.88 -14.58)"/><path class="cls-5" d="M1594,540.22c6.4-3.76,15.27-9.29,15.27-9.29l14.27-16.6-2.68-15.43-27.47-19-4.58-3.41-6-1.58-27,15S1594.6,509.33,1594,540.22Z" transform="translate(-93.88 -14.58)"/><path class="cls-21" d="M1554.24,484.44c4.49,8.49,32,53.44,46,58.94-14,10-49.45,30-61.44,29s-27.47-15.49-27.47-15.49l-2.49-18.48-2-26.47Z" transform="translate(-93.88 -14.58)"/><path class="cls-28" d="M1597.3,542.51c-7.15-4.24-38.67-47.15-42.64-56.69" transform="translate(-93.88 -14.58)"/><path class="cls-16" d="M1531.69,267c3.63,8-9.81,26.85-16.75,24.43-6.75-2.36-4.76-14.52-8.79-17.3l14-19.17A117,117,0,0,1,1531.69,267Z" transform="translate(-93.88 -14.58)"/><polygon class="cls-21" points="1410.9 257.14 1412 258.41 1413.64 259.78 1425.02 257.96 1426.39 241.38 1424.93 240.29 1422.11 245.02 1418.46 249.76 1410.9 257.14"/><line class="cls-29" x1="1179.11" y1="333.38" x2="1274.19" y2="341.98"/><line class="cls-29" x1="1179.11" y1="340.22" x2="1274.19" y2="348.82"/><line class="cls-29" x1="1179.11" y1="346.79" x2="1274.19" y2="355.39"/><line class="cls-29" x1="1179.11" y1="353.63" x2="1274.19" y2="362.23"/><line class="cls-29" x1="1179.11" y1="359.94" x2="1274.19" y2="368.54"/><line class="cls-29" x1="1179.11" y1="366.78" x2="1274.19" y2="375.38"/><line class="cls-29" x1="1179.11" y1="373.36" x2="1274.19" y2="381.96"/><line class="cls-29" x1="1179.11" y1="380.2" x2="1274.19" y2="388.8"/><line class="cls-29" x1="1179.11" y1="387.99" x2="1274.19" y2="396.59"/><line class="cls-29" x1="1179.11" y1="394.83" x2="1274.19" y2="403.43"/><line class="cls-29" x1="1179.11" y1="401.41" x2="1274.19" y2="410.01"/><line class="cls-29" x1="1179.11" y1="408.25" x2="1274.19" y2="416.85"/><line class="cls-29" x1="1179.11" y1="414.56" x2="1274.19" y2="423.16"/><line class="cls-29" x1="1179.11" y1="421.4" x2="1274.19" y2="430"/><line class="cls-29" x1="1179.11" y1="427.97" x2="1274.19" y2="436.57"/><line class="cls-29" x1="1179.11" y1="434.81" x2="1274.19" y2="443.41"/><line class="cls-29" x1="1179.11" y1="478.06" x2="1274.19" y2="486.66"/><line class="cls-29" x1="1179.11" y1="484.9" x2="1274.19" y2="493.5"/><line class="cls-29" x1="1179.11" y1="491.47" x2="1274.19" y2="500.07"/><line class="cls-29" x1="1179.11" y1="498.31" x2="1274.19" y2="506.91"/><line class="cls-29" x1="1179.11" y1="504.63" x2="1274.19" y2="513.22"/><line class="cls-29" x1="1179.11" y1="511.46" x2="1274.19" y2="520.06"/><line class="cls-29" x1="1179.11" y1="518.04" x2="1274.19" y2="526.64"/><line class="cls-29" x1="1179.11" y1="524.88" x2="1274.19" y2="533.48"/><line class="cls-29" x1="1179.11" y1="532.67" x2="1274.19" y2="541.27"/><line class="cls-29" x1="1179.11" y1="539.51" x2="1274.19" y2="548.11"/><line class="cls-29" x1="1179.11" y1="546.09" x2="1274.19" y2="554.69"/><line class="cls-29" x1="1179.11" y1="552.93" x2="1274.19" y2="561.53"/><line class="cls-29" x1="1179.11" y1="559.24" x2="1274.19" y2="567.84"/><line class="cls-29" x1="1179.11" y1="566.08" x2="1274.19" y2="574.68"/><line class="cls-29" x1="1179.11" y1="572.66" x2="1274.19" y2="581.25"/><line class="cls-29" x1="1179.11" y1="579.49" x2="1274.19" y2="588.09"/><line class="cls-29" x1="1179.11" y1="705.15" x2="1274.19" y2="713.75"/><line class="cls-29" x1="1179.11" y1="711.99" x2="1274.19" y2="720.59"/><line class="cls-29" x1="1179.11" y1="718.57" x2="1274.19" y2="727.17"/><line class="cls-29" x1="1179.11" y1="725.41" x2="1274.19" y2="734.01"/><line class="cls-29" x1="1179.11" y1="731.72" x2="1274.19" y2="740.32"/><line class="cls-29" x1="1179.11" y1="738.56" x2="1274.19" y2="747.16"/><line class="cls-29" x1="1179.11" y1="745.13" x2="1274.19" y2="753.73"/><line class="cls-29" x1="1179.11" y1="751.97" x2="1274.19" y2="760.57"/><line class="cls-29" x1="1179.11" y1="759.77" x2="1274.19" y2="768.37"/><line class="cls-29" x1="1179.11" y1="766.61" x2="1274.19" y2="775.21"/><line class="cls-29" x1="1179.11" y1="773.18" x2="1274.19" y2="781.78"/><line class="cls-29" x1="1179.11" y1="780.02" x2="1274.19" y2="788.62"/><line class="cls-29" x1="1179.11" y1="786.33" x2="1274.19" y2="794.93"/><line class="cls-29" x1="1179.11" y1="595.2" x2="1274.19" y2="603.8"/><line class="cls-29" x1="1179.11" y1="602.04" x2="1274.19" y2="610.64"/><line class="cls-29" x1="1179.11" y1="608.61" x2="1274.19" y2="617.21"/><line class="cls-29" x1="1179.11" y1="615.45" x2="1274.19" y2="624.05"/><line class="cls-29" x1="1179.11" y1="621.77" x2="1274.19" y2="630.37"/><line class="cls-29" x1="1179.11" y1="628.6" x2="1274.19" y2="637.2"/><line class="cls-29" x1="1179.11" y1="635.18" x2="1274.19" y2="643.78"/><line class="cls-29" x1="1179.11" y1="642.02" x2="1274.19" y2="650.62"/><line class="cls-29" x1="1179.11" y1="649.81" x2="1274.19" y2="658.41"/><line class="cls-29" x1="1179.11" y1="656.65" x2="1274.19" y2="665.25"/><line class="cls-29" x1="1179.11" y1="663.23" x2="1274.19" y2="671.83"/><line class="cls-29" x1="1179.11" y1="670.07" x2="1274.19" y2="678.67"/><line class="cls-29" x1="1179.11" y1="676.38" x2="1274.19" y2="684.98"/><line class="cls-29" x1="1179.11" y1="683.22" x2="1274.19" y2="691.82"/><line class="cls-29" x1="1179.11" y1="689.8" x2="1274.19" y2="698.4"/><line class="cls-29" x1="1179.11" y1="696.63" x2="1274.19" y2="705.23"/><path class="cls-11" d="M1379.82,777.46c1.32,31.85-3.93,77.75-26.54,77.75-23.14,0-24.07-38.88-24.07-38.88H1176.57s-4,41.34,35.84,41.34h139.36" transform="translate(-93.88 -14.58)"/><polygon class="cls-7" points="1185.6 327.75 1178.3 790.53 1166.43 773.19 1174.65 439.11 1176.47 322.27 1185.6 327.75"/><path class="cls-7" d="M1364.76,350.23s0,453.12-8.42,465.75,16.84,6.31,16.84,6.31l2.1-31.56-4.21-370.36v-61l-.7-13.33Z" transform="translate(-93.88 -14.58)"/><polygon class="cls-7" points="1240.27 475.26 1240.27 507.27 1276.28 510.47 1274.67 472.06 1240.27 475.26"/><polygon class="cls-7" points="1177.96 591.28 1177.96 623.29 1213.97 626.49 1212.37 588.08 1177.96 591.28"/><polygon class="cls-7" points="1211.07 367.47 1211.26 403.06 1247.27 406.26 1247.4 371.02 1211.07 367.47"/><polygon class="cls-7" points="1248.5 332.62 1248.64 358.06 1274.38 360.35 1274.48 335.16 1248.5 332.62"/><polygon class="cls-7" points="1179.99 318.73 1180.13 344.17 1205.87 346.46 1205.97 321.27 1179.99 318.73"/><polygon class="cls-7" points="1220.53 685.88 1220.73 721.47 1256.74 724.67 1256.87 689.43 1220.53 685.88"/><polygon class="cls-7" points="1174.06 753.01 1174.26 788.6 1210.27 791.8 1210.4 756.56 1174.06 753.01"/><path class="cls-30" d="M890.27,960.3c-10.92,0-17.94,5.86-17.94,10.64v14.14l12,6.65s13-6,13.3-6.65,3.43-20.2,3.43-20.2Z" transform="translate(-93.88 -14.58)"/><rect class="cls-7" x="862.62" y="906.5" width="60.13" height="69.45"/><path d="M1016.22,921.5v68.62h-59.3V921.5h59.3m.83-.83h-61V991h61V920.67Z" transform="translate(-93.88 -14.58)"/><rect class="cls-7" x="792.89" y="906.5" width="60.14" height="69.45"/><path d="M946.5,921.5v68.62H887.19V921.5H946.5m.83-.83h-61V991h61V920.67Z" transform="translate(-93.88 -14.58)"/><path class="cls-31" d="M836.08,509.86a11.45,11.45,0,0,1-7.4-20.18l44.9-38a11.45,11.45,0,1,1,14.8,17.47l-44.9,38a11.51,11.51,0,0,1-7.4,2.71Z" transform="translate(-93.88 -14.58)"/><path d="M881,449.36a11,11,0,0,1,7.13,19.45l-44.9,38A11,11,0,0,1,829,490l44.9-38a11,11,0,0,1,7.13-2.61m0-.83a11.83,11.83,0,0,0-7.67,2.81l-44.9,38a11.86,11.86,0,0,0,15.34,18.1l44.9-38A11.86,11.86,0,0,0,881,448.53Z" transform="translate(-93.88 -14.58)"/><path class="cls-7" d="M957.63,348.85c-5.15-24-17.53-39.67-36.8-46.56,27.75-15.31,55.68-23.63,74.3-27.92a29.06,29.06,0,1,1,13,56.65A241.75,241.75,0,0,0,957.63,348.85Z" transform="translate(-93.88 -14.58)"/><path d="M1001.66,274a28.65,28.65,0,0,1,6.39,56.57,241.74,241.74,0,0,0-50.12,17.64c-5.18-23.51-17.31-39-36.1-46,27.45-15,55-23.19,73.39-27.44a29.24,29.24,0,0,1,6.44-.73m0-.83A29.55,29.55,0,0,0,995,274c-24.72,5.7-51.47,15.19-75.22,28.41,25.91,8.83,34.21,31.3,37.52,47.09a239.42,239.42,0,0,1,50.9-18,29.48,29.48,0,0,0-6.58-58.21Z" transform="translate(-93.88 -14.58)"/><line class="cls-32" x1="822.51" y1="458.71" x2="822.51" y2="918.92"/><path class="cls-33" d="M913,947.8c-25,0-50.24-5.48-50.24-16l6.76-460.77c0-21.58,21-39.13,46.86-39.13s46.86,17.55,46.86,39.12V931.84C963.25,942.32,938,947.8,913,947.8Z" transform="translate(-93.88 -14.58)"/><path d="M916.39,432.35c25.61,0,46.45,17.37,46.45,38.71V931.84c0,10.21-25.07,15.55-49.83,15.55s-49.82-5.34-49.82-15.54l6.75-460.79c0-21.34,20.84-38.71,46.45-38.71m0-.83c-26.11,0-47.28,17.7-47.28,39.54l-6.75,460.78c0,10.92,25.33,16.38,50.65,16.38s50.66-5.46,50.66-16.38V471.06c0-21.84-21.17-39.54-47.28-39.54Z" transform="translate(-93.88 -14.58)"/><line class="cls-32" x1="905.17" y1="458.71" x2="905.17" y2="925.37"/><path class="cls-33" d="M1001.73,941.73c-19.77,0-39.79-5.42-39.79-15.77V470.6c0-21.32,16.65-38.66,37.11-38.66s37.11,17.34,37.11,38.66L1041.52,926C1041.52,936.31,1021.5,941.73,1001.73,941.73Z" transform="translate(-93.88 -14.58)"/><path d="M999.05,432.35c20.23,0,36.69,17.16,36.7,38.26L1041.11,926c0,10.08-19.81,15.35-39.38,15.35S962.36,936,962.36,926V470.6c0-21.09,16.46-38.25,36.69-38.25m0-.83c-20.72,0-37.52,17.5-37.52,39.08V926c0,10.79,20.1,16.19,40.2,16.19s40.21-5.4,40.21-16.19l-5.36-455.36c0-21.58-16.8-39.08-37.53-39.08Z" transform="translate(-93.88 -14.58)"/><ellipse class="cls-33" cx="864.04" cy="475.64" rx="82.18" ry="51.22"/><path d="M957.93,439.43c45.08,0,81.76,22.79,81.76,50.8S1003,541,957.93,541s-81.77-22.79-81.77-50.8,36.68-50.8,81.77-50.8m0-.83c-45.62,0-82.6,23.11-82.6,51.63s37,51.63,82.6,51.63,82.59-23.11,82.59-51.63-37-51.63-82.59-51.63Z" transform="translate(-93.88 -14.58)"/><polygon class="cls-33" points="787.85 514.96 787.85 480.14 867.09 505.06 867.09 565.54 787.85 514.96"/><polygon class="cls-33" points="944.03 514.96 944.03 480.14 891.17 499.03 891.17 559.51 944.03 514.96"/><path class="cls-30" d="M1004.85,953.26h17.55c6.67,0,12.55,5,13,11.66.22,3.2-.41,7.25-2.5,12.34-8.35,20.38-47.6,20.07-51.52,3.47-2.18-9.21,3.06-16.66,8.16-21.46A22.25,22.25,0,0,1,1004.85,953.26Z" transform="translate(-93.88 -14.58)"/><path class="cls-34" d="M1085.68,1044.69H909.76c2.13-22.44,19-54.28,22.38-61.21,9,2.29,18.58-3.48,24.94-8.61,7.92-6.38,19.72-4.87,25.31,3.62.07.1.13.22.19.32,3.54-2.86,9.11-4.5,15.24-5.37,19.93-2.84,40.14,3.3,55.69,16.09,12.48,10.28,26.18,24.69,30,40.66A76.33,76.33,0,0,1,1085.68,1044.69Z" transform="translate(-93.88 -14.58)"/><path class="cls-30" d="M1077.42,1063.77H914.86c-4.68-4-5.89-11-5.1-19.33h175.92C1086.45,1062.08,1077.42,1063.77,1077.42,1063.77Z" transform="translate(-93.88 -14.58)"/><path class="cls-1" d="M983,979.24s41.71,39.19,76.55,39.19c2.88,0,7.75.22,19.65.22" transform="translate(-93.88 -14.58)"/><path class="cls-1" d="M1044.76,983.09c-18.26-6.48-51.73-1.05-55.41,1.73" transform="translate(-93.88 -14.58)"/><path class="cls-1" d="M1056.52,991.82c-17.92-7.16-52.75-1.21-56.51,1.66" transform="translate(-93.88 -14.58)"/><path class="cls-1" d="M1065.51,1000.34c-18.64-5.31-49.31-.6-52.81,2.07" transform="translate(-93.88 -14.58)"/><path class="cls-1" d="M1072.59,1008.55c-18.46-3.12-42.11-.61-45.13,1.69" transform="translate(-93.88 -14.58)"/><rect class="cls-20" x="836.93" y="992.51" width="77.35" height="17.36" rx="2.74"/><rect class="cls-20" x="836.93" y="992.51" width="77.35" height="17.36" rx="2.74"/><path class="cls-30" d="M937,953.26h17.55c6.67,0,12.55,5,13,11.66.22,3.2-.41,7.25-2.5,12.34-8.35,20.38-47.59,20.07-51.52,3.47-2.18-9.21,3.06-16.66,8.16-21.46A22.27,22.27,0,0,1,937,953.26Z" transform="translate(-93.88 -14.58)"/><path class="cls-34" d="M1017.8,1044.69H841.89c2.12-22.44,19-54.28,22.37-61.21,9,2.29,18.58-3.48,25-8.61,7.91-6.38,19.71-4.87,25.3,3.62a2.8,2.8,0,0,1,.2.32c3.54-2.86,9.11-4.5,15.23-5.37,19.93-2.84,40.14,3.3,55.7,16.09,12.47,10.28,26.17,24.69,30,40.66A75.53,75.53,0,0,1,1017.8,1044.69Z" transform="translate(-93.88 -14.58)"/><path class="cls-30" d="M1009.55,1063.77H847c-4.68-4-5.89-11-5.09-19.33H1017.8C1018.58,1062.08,1009.55,1063.77,1009.55,1063.77Z" transform="translate(-93.88 -14.58)"/><path class="cls-1" d="M915.07,979.24s41.71,39.19,76.55,39.19c2.88,0,7.75.22,19.65.22" transform="translate(-93.88 -14.58)"/><path class="cls-1" d="M976.89,983.09c-18.26-6.48-51.74-1.05-55.42,1.73" transform="translate(-93.88 -14.58)"/><path class="cls-1" d="M988.64,991.82c-17.92-7.16-52.75-1.21-56.51,1.66" transform="translate(-93.88 -14.58)"/><path class="cls-1" d="M997.63,1000.34c-18.64-5.31-49.31-.6-52.81,2.07" transform="translate(-93.88 -14.58)"/><path class="cls-1" d="M1004.71,1008.55c-18.46-3.12-42.11-.61-45.13,1.69" transform="translate(-93.88 -14.58)"/><rect class="cls-20" x="769.05" y="992.51" width="77.35" height="17.36" rx="2.74"/><rect class="cls-30" x="769.05" y="992.51" width="77.35" height="17.36" rx="2.74"/><path class="cls-7" d="M1040.85,487.16a4.93,4.93,0,0,1-3-1c-13.77-10.41-33.18-15.46-59.36-15.46-25.55,0-56.81,4.73-98.35,14.91a9.57,9.57,0,0,1-2.19.26h0a9.13,9.13,0,0,1-6.46-2.72,9,9,0,0,1-2.6-6.5c.68-43.94,3.82-138.84,3.85-139.79,0-7.23-.49-14-1-20.61-1.25-17.53-2.33-32.66,7.35-43.79,10.41-12,33.21-18.78,71.76-21.43,41.57,4.49,67.14,39.46,71.92,98.49.94,11.72,4.08,28.89,6.59,42.69.47,2.56.91,5,1.3,7.18L1049,477.65a10.09,10.09,0,0,1-3,7A7.53,7.53,0,0,1,1040.85,487.16Z" transform="translate(-93.88 -14.58)"/><path d="M950.85,251.42c41.38,4.5,66.8,39.34,71.55,98.1,1,11.75,4.09,29,6.61,42.76.46,2.55.9,5,1.3,7.2l18.27,78.18a9.74,9.74,0,0,1-2.86,6.7,7.14,7.14,0,0,1-4.87,2.38,4.5,4.5,0,0,1-2.74-.94c-13.85-10.46-33.35-15.55-59.62-15.55-25.59,0-56.87,4.74-98.45,14.92a8.6,8.6,0,0,1-8.26-2.34,8.62,8.62,0,0,1-2.48-6.2c.68-43.94,3.82-138.83,3.85-139.81,0-7.24-.48-14.05-.95-20.63-1.24-17.44-2.31-32.49,7.25-43.49,10.33-11.88,33-18.64,71.4-21.28M959,250.1H941.6a85.31,85.31,0,0,1,9.27.49c2.63-.19,5.36-.35,8.17-.49Zm-8.17.49c-99,6.79-78.55,39.57-78.55,86.23,0,0-3.16,95.34-3.85,139.79A9.48,9.48,0,0,0,880.23,486c36.09-8.84,69.87-14.9,98.26-14.9,24.29,0,44.64,4.44,59.11,15.38a5.34,5.34,0,0,0,3.25,1.11c4.3,0,8.69-5.07,8.56-10l-18.29-78.26c-2.46-13.76-6.76-35.9-7.89-49.83-5-61.81-32.45-94.57-72.36-98.87Z" transform="translate(-93.88 -14.58)"/><path class="cls-7" d="M1016.45,296.67l-23.1,19.8-25.16-45.28s20.88-11.66,20.33-10.85S1016.45,296.67,1016.45,296.67Z" transform="translate(-93.88 -14.58)"/><path class="cls-7" d="M836.34,337.43a.82.82,0,0,1-.8-.71c-3.25-23.07-13.74-39.08-31.18-47.6a.78.78,0,0,1-.45-.75.77.77,0,0,1,.48-.73,292.2,292.2,0,0,1,74.67-21.11,28.8,28.8,0,0,1,4.24-.31A29.06,29.06,0,0,1,887.47,324a242.51,242.51,0,0,0-50.83,13.33.8.8,0,0,1-.3.06Z" transform="translate(-93.88 -14.58)"/><path d="M883.3,266.63a28.65,28.65,0,0,1,4.11,57A242.77,242.77,0,0,0,836.49,337l-.15,0a.4.4,0,0,1-.39-.34c-3.27-23.22-13.84-39.34-31.41-47.92a.41.41,0,0,1-.22-.37.39.39,0,0,1,.24-.36,292,292,0,0,1,74.56-21.08,29.4,29.4,0,0,1,4.18-.31m0-.83a30,30,0,0,0-4.3.32c-24.26,3.56-50.7,10.5-74.78,21.14a1.23,1.23,0,0,0,0,2.23c22.34,10.92,28.79,31.93,31,47.29a1.22,1.22,0,0,0,1.21,1.06,1.19,1.19,0,0,0,.45-.08,240.29,240.29,0,0,1,50.74-13.31,29.48,29.48,0,0,0-4.23-58.65Z" transform="translate(-93.88 -14.58)"/><path class="cls-31" d="M856,544.5a27.34,27.34,0,0,1-14-3.84c-44.36-26.35-76.06-56.77-94.21-90.4-15.25-28.25-20.34-58.17-14.73-86.52,7.34-37.13,40.36-60.27,66.77-73.15,1.49-.75,3.1-1.51,5.07-2.4,17.78,7.77,28.3,23.4,31.29,46.48-2,.78-3.66,1.47-5.34,2.23-25.76,11.05-41.38,24.36-44,37.48l-.29,1.35c-11.05,49.8,39.27,91.52,83.42,117.75a27.43,27.43,0,0,1-14,51Z" transform="translate(-93.88 -14.58)"/><path d="M804.91,288.64c17.44,7.7,27.81,23.09,30.83,45.76-1.85.74-3.45,1.4-5,2.12-25.9,11.1-41.6,24.52-44.21,37.78-.07.37-.17.82-.29,1.34-1.28,5.8-4.7,21.22,4.48,42.13,11.44,26.08,38.07,51.67,79.14,76.07a27,27,0,0,1-27.6,46.47c-44.3-26.32-75.94-56.68-94.06-90.25-15.2-28.16-20.27-58-14.68-86.24,7.3-37,40.22-60,66.55-72.86,1.44-.73,3-1.47,4.89-2.32m0-.91c-1.77.8-3.52,1.61-5.25,2.49-33.3,16.23-60.47,40.4-67,73.44C722.37,415.59,745.94,484.07,841.79,541a27.85,27.85,0,1,0,28.44-47.9c-100.78-59.87-84.72-109.59-82.93-118.66,2.76-14,20.66-27.29,43.72-37.18,1.85-.84,3.72-1.59,5.63-2.35-1.91-15.11-8-36.91-31.75-47.2Z" transform="translate(-93.88 -14.58)"/><path class="cls-7" d="M880.55,331.17l2.13-2.62,9.64-56.85,13.3-2.27L948.78,285s5.13,43.61,2.56,46.17-52.09,7.16-52.09,7.16Z" transform="translate(-93.88 -14.58)"/><path class="cls-35" d="M948.68,327.09H893V355a27.87,27.87,0,0,0,27.87,27.87h0A27.86,27.86,0,0,0,948.68,355Z" transform="translate(-93.88 -14.58)"/><line class="cls-35" x1="854.8" y1="321.89" x2="799.07" y2="321.89"/><path class="cls-31" d="M1017.58,521.83a8.44,8.44,0,0,1-.87,0,10.71,10.71,0,0,1-9.18-14.41,10.58,10.58,0,0,1,5.58-6l34.06-15.76a10.57,10.57,0,0,1,4.45-1,10.75,10.75,0,0,1,9.75,6.25,10.72,10.72,0,0,1-5.28,14.2L1022,520.85A10.57,10.57,0,0,1,1017.58,521.83Z" transform="translate(-93.88 -14.58)"/><path d="M1051.62,485.06h0a10.31,10.31,0,0,1,9.37,6,10.31,10.31,0,0,1-5.07,13.65l-34.06,15.76a10.25,10.25,0,0,1-4.28.93c-.28,0-.56,0-.83,0a10.3,10.3,0,0,1-3.47-19.63L1047.34,486a10.25,10.25,0,0,1,4.28-.93m0-.84a11,11,0,0,0-4.62,1L1012.93,501a11.13,11.13,0,0,0,3.75,21.21l.9,0a11,11,0,0,0,4.62-1l34.06-15.76a11.13,11.13,0,0,0-4.64-21.25Z" transform="translate(-93.88 -14.58)"/><path class="cls-31" d="M1044.71,552.05a8.44,8.44,0,0,1-.87,0,10.71,10.71,0,0,1-3.61-20.42l18.36-8.59a10.71,10.71,0,0,1,8.92,19.48l-18.35,8.59A10.57,10.57,0,0,1,1044.71,552.05Z" transform="translate(-93.88 -14.58)"/><path d="M1063,522.44h0a10.34,10.34,0,0,1,9.37,6,10.3,10.3,0,0,1-5.08,13.65L1049,550.69a10,10,0,0,1-4.28.94c-.27,0-.55,0-.82,0a10.3,10.3,0,0,1-3.47-19.63l18.35-8.59a10.34,10.34,0,0,1,4.28-.94m0-.83a11.07,11.07,0,0,0-4.63,1l-18.35,8.59a11.13,11.13,0,0,0,3.75,21.21l.89,0a11,11,0,0,0,4.63-1l18.35-8.59a11.13,11.13,0,0,0-4.64-21.25Z" transform="translate(-93.88 -14.58)"/><path class="cls-31" d="M1022.62,541.45a8.25,8.25,0,0,1-.86,0,10.71,10.71,0,0,1-3.61-20.42l47.64-22a10.57,10.57,0,0,1,4.45-1,10.77,10.77,0,0,1,9.75,6.26,10.72,10.72,0,0,1-5.28,14.2l-47.63,22A10.61,10.61,0,0,1,1022.62,541.45Z" transform="translate(-93.88 -14.58)"/><path d="M1070.24,498.43h0a10.34,10.34,0,0,1,9.37,6,10.3,10.3,0,0,1-5.08,13.65l-47.63,22a10,10,0,0,1-4.28.94l-.83,0a10.3,10.3,0,0,1-3.46-19.63l47.63-22a10.26,10.26,0,0,1,4.28-.94m0-.83a11.06,11.06,0,0,0-4.63,1l-47.63,22a11.13,11.13,0,0,0,3.75,21.21c.29,0,.59,0,.89,0a11.06,11.06,0,0,0,4.63-1l47.63-22a11.13,11.13,0,0,0-4.64-21.25Z" transform="translate(-93.88 -14.58)"/><circle class="cls-27" cx="763.41" cy="497.04" r="32.23"/><path class="cls-31" d="M915.41,531.45a11.39,11.39,0,0,1-5.58-1.46l-51.34-28.74a11.46,11.46,0,0,1-4.4-15.58,11.5,11.5,0,0,1,10-5.86,11.37,11.37,0,0,1,5.57,1.47L921,510a11.44,11.44,0,0,1,4.4,15.58A11.46,11.46,0,0,1,915.41,531.45Z" transform="translate(-93.88 -14.58)"/><path d="M864.1,480.23a11,11,0,0,1,5.37,1.41l51.34,28.74a11,11,0,0,1-5.4,20.66,11.08,11.08,0,0,1-5.38-1.41l-51.34-28.74a11,11,0,0,1,5.41-20.66m0-.83a11.86,11.86,0,0,0-5.81,22.21l51.34,28.75a11.87,11.87,0,0,0,11.59-20.71l-51.34-28.74a11.88,11.88,0,0,0-5.78-1.51Z" transform="translate(-93.88 -14.58)"/><path class="cls-31" d="M880.76,560.6a11.66,11.66,0,0,1-5.68-1.49L839.2,539a11.65,11.65,0,1,1,11.38-20.34l35.88,20.12a11.66,11.66,0,0,1-5.7,21.83Z" transform="translate(-93.88 -14.58)"/><path d="M844.9,517.58a11.31,11.31,0,0,1,5.48,1.43l35.88,20.12a11.24,11.24,0,0,1-11,19.62L839.4,538.63a11.24,11.24,0,0,1,5.5-21m0-.83a12.07,12.07,0,0,0-5.91,22.6l35.88,20.12a12.07,12.07,0,1,0,11.8-21.06l-35.88-20.12a12,12,0,0,0-5.89-1.54Z" transform="translate(-93.88 -14.58)"/><path class="cls-31" d="M909.27,552.45a11.65,11.65,0,0,1-5.68-1.48L835.1,512.71a11.66,11.66,0,0,1,11.39-20.34L915,530.63a11.65,11.65,0,0,1-5.7,21.82Z" transform="translate(-93.88 -14.58)"/><path d="M840.81,491.3a11.24,11.24,0,0,1,5.48,1.44L914.77,531a11.24,11.24,0,1,1-11,19.61l-68.48-38.25a11.24,11.24,0,0,1-4.32-15.3,11.28,11.28,0,0,1,9.82-5.75m0-.83a12.07,12.07,0,0,0-5.91,22.61l68.48,38.25a12.07,12.07,0,0,0,11.8-21.07L846.69,492a12,12,0,0,0-5.88-1.54Z" transform="translate(-93.88 -14.58)"/><path class="cls-31" d="M842.25,538.88c-6.39-3.76-14.18-8.81-14.18-8.81l-15.14-16.19,2.69-15.43,27.47-19.05,4.58-3.42,6-1.58,27,15.05S841.62,508,842.25,538.88Z" transform="translate(-93.88 -14.58)"/><path class="cls-27" d="M1023.23,237.75l-35.42,35.46s9.62,14.63,0,18.68-46.3,5.06-70.71-27.07c16.58-26.56,31.58-61.47,31.58-61.47Z" transform="translate(-93.88 -14.58)"/><path class="cls-31" d="M993,260.39c-1.71,0-3.42,0-5.09-.12a111.32,111.32,0,0,1-105.39-96.72,114.16,114.16,0,0,1-.93-14.55,111.4,111.4,0,1,1,222.8,0,113,113,0,0,1-1,14.68C1096.23,218.82,1048.76,260.39,993,260.39Z" transform="translate(-93.88 -14.58)"/><path d="M993,38a111,111,0,0,1,111,111,112.23,112.23,0,0,1-1,14.63A111,111,0,0,1,993,260c-1.69,0-3.4,0-5.07-.12a110.88,110.88,0,0,1-105-96.37A115,115,0,0,1,882,149,111,111,0,0,1,993,38m0-.83A111.83,111.83,0,0,0,881.21,149a113.78,113.78,0,0,0,.94,14.6,110.72,110.72,0,0,0,9.09,31.76,111.91,111.91,0,0,0,96.69,65.33c1.69.08,3.4.12,5.11.12a111.82,111.82,0,0,0,0-223.64Z" transform="translate(-93.88 -14.58)"/><path class="cls-1" d="M961.82,145.46c-16.48,7.06-16.48,25.89,0,21.19" transform="translate(-93.88 -14.58)"/><line class="cls-1" x1="812.62" y1="122.63" x2="854.99" y2="122.63"/><line class="cls-1" x1="826.74" y1="134.4" x2="826.74" y2="122.63"/><line class="cls-1" x1="887.95" y1="122.63" x2="936.21" y2="122.63"/><line class="cls-1" x1="902.08" y1="136.76" x2="902.08" y2="122.63"/><path class="cls-1" d="M961.82,183.12c0,7.07-7.06,9.42-7.06,11.77s2.35,2.36,11.77,2.36" transform="translate(-93.88 -14.58)"/><line class="cls-1" x1="864" y1="182.66" x2="872.65" y2="194.43"/><path class="cls-36" d="M936.29,194.53a4.34,4.34,0,0,1-2.36-8l20-12.95a4.35,4.35,0,0,1,4.72,7.3l-20,13A4.34,4.34,0,0,1,936.29,194.53Z" transform="translate(-93.88 -14.58)"/><path class="cls-36" d="M988.89,194.53a4.34,4.34,0,0,1-2.36-.69l-20-13a4.35,4.35,0,1,1,4.73-7.3l20,12.95a4.35,4.35,0,0,1-2.37,8Z" transform="translate(-93.88 -14.58)"/><path class="cls-37" d="M987.93,262.31A111.9,111.9,0,0,1,891.24,197a11.87,11.87,0,0,0,2.31,1.29c6.06,2.59,12.09,8.26,17.42,14.64a157.44,157.44,0,0,1,13.29,19,17.31,17.31,0,0,0,16.41,8.33l27-2.34a174.08,174.08,0,0,1,30.63,0l24.65,2.15c7.26.63,6.58-7,9.53-13.68a61.85,61.85,0,0,1,32.24-31.87c2.65-1.13,7.17-4.54,8.55-7.06l5.68-21.72C1113.16,212.59,1045.55,260,987.93,262.31Z" transform="translate(-93.88 -14.58)"/><path class="cls-37" d="M1094.35,184.21v6.86a10.93,10.93,0,0,1-1.35,5.27l-3.15,6-4.79,8.54s-6.16,8-6.86,8.39-7.38-16.7-3.64-22.15,6.14-14.77,6.48-15.91,9.21-5.28,10.09-4.49,3.16,3.08,3,5.1S1094.35,184.21,1094.35,184.21Z" transform="translate(-93.88 -14.58)"/><path class="cls-36" d="M1104.85,133c0,2.68-.12,5.34-.33,8v0c-.47,3.08-20.2-4.48-21.72-1.72-1.66,3-2.67,18.55-3,21.94a2.13,2.13,0,0,1-4.14.5l-13.49-39.15A9.8,9.8,0,0,0,1054,116c-32.37-3.67-54.51-37.86-61-67.57a2.42,2.42,0,0,0-4.68-.19c-14.9,49.43-51.91,79.27-97.56,89.91a12.64,12.64,0,0,0-9.56,9.89l.94,15.59c-.21,1,.61,1.38-.17,1.12a1.5,1.5,0,0,1-1-1.2l-.76-4.33-3.5-20.25c-.12-2-.19-4-.19-6,0-57.21,51.11-103.59,114.17-103.59S1104.85,75.76,1104.85,133Z" transform="translate(-93.88 -14.58)"/><ellipse class="cls-1" cx="811.62" cy="138.39" rx="36.94" ry="47.08"/><ellipse class="cls-1" cx="917.27" cy="138.39" rx="42.85" ry="47.08"/><ellipse class="cls-38" cx="811.62" cy="138.39" rx="36.94" ry="47.08"/><ellipse class="cls-38" cx="917.27" cy="138.39" rx="42.85" ry="47.08"/><path class="cls-39" d="M1080.6,192.79c16.83,5,40.48-3.31,45.47-20.14a31.79,31.79,0,0,0-51.51-32.86" transform="translate(-93.88 -14.58)"/><polyline class="cls-27" points="1015.2 136.98 995.97 151.63 1020.08 155.71"/></svg>