<svg id="Calque_1" data-name="Calque 1" xmlns="http://www.w3.org/2000/svg" viewBox="0 0 1116.36 674.1"><defs><style>.cls-1,.cls-26,.cls-28,.cls-29,.cls-9{fill:none;}.cls-1,.cls-13,.cls-14,.cls-16,.cls-22,.cls-24,.cls-25,.cls-26,.cls-27,.cls-32,.cls-35,.cls-36,.cls-39,.cls-4,.cls-6{stroke:#000;}.cls-1,.cls-10,.cls-11,.cls-12,.cls-14,.cls-15,.cls-18,.cls-19,.cls-20,.cls-22,.cls-24,.cls-25,.cls-27,.cls-28,.cls-29,.cls-30,.cls-32,.cls-34,.cls-35,.cls-36,.cls-39,.cls-4,.cls-6,.cls-8,.cls-9{stroke-miterlimit:10;}.cls-1,.cls-10,.cls-11,.cls-12,.cls-15,.cls-16,.cls-18,.cls-19,.cls-20,.cls-22,.cls-24,.cls-25,.cls-26,.cls-27,.cls-28,.cls-29,.cls-30,.cls-32,.cls-34,.cls-36,.cls-39,.cls-4,.cls-6,.cls-8,.cls-9{stroke-width:0.83px;}.cls-2,.cls-6{fill:#383d44;}.cls-3,.cls-8{fill:#e28100;}.cls-14,.cls-24,.cls-4,.cls-5{fill:#e8a777;}.cls-11,.cls-35,.cls-7{fill:#f4eeed;}.cls-10,.cls-15,.cls-18,.cls-19,.cls-20,.cls-30,.cls-34,.cls-8,.cls-9{stroke:#1a1a1a;}.cls-10{fill:#0b57c1;}.cls-11,.cls-12,.cls-29{stroke:#262626;}.cls-11,.cls-12,.cls-13,.cls-16,.cls-24,.cls-25,.cls-26,.cls-29,.cls-39{stroke-linecap:round;}.cls-12{fill:#e5e8da;}.cls-13,.cls-16,.cls-21{fill:#ffd652;}.cls-13,.cls-16,.cls-26{stroke-linejoin:round;}.cls-13,.cls-14{stroke-width:0.73px;}.cls-15{fill:#5e5e5e;}.cls-17{fill:#11161e;}.cls-18{fill:#4b4b4b;}.cls-19{fill:#383838;}.cls-20{fill:#1a1a1a;}.cls-22,.cls-23,.cls-25{fill:#442821;}.cls-27,.cls-31,.cls-39{fill:#ffca9f;}.cls-28{stroke:#020202;}.cls-30{fill:#425f89;}.cls-32,.cls-33{fill:#3c4d6b;}.cls-34,.cls-36,.cls-37{fill:#212f46;}.cls-35{stroke-width:0.62px;}.cls-38{fill:#429ac6;opacity:0.42;}</style></defs><line class="cls-1" y1="651.82" x2="1116.36" y2="651.82"/><ellipse class="cls-2" cx="113.23" cy="530.58" rx="45.74" ry="40.99"/><path d="M515.05,695.61c25,0,45.33,18.2,45.33,40.57s-20.33,40.58-45.33,40.58-45.32-18.2-45.32-40.58,20.33-40.57,45.32-40.57m0-.83c-25.49,0-46.15,18.53-46.15,41.4s20.66,41.41,46.15,41.41,46.16-18.54,46.16-41.41-20.67-41.4-46.16-41.4Z" transform="translate(-401.82 -205.6)"/><path class="cls-3" d="M485.48,709.31c-3.11,0-5-3.19-5.48-6.36-.06-.55-5.78-57.2,26.18-101.83,14.94-20.87,39.73-35.44,60.28-35.44,7.61,0,14.24,2,19.7,5.93l.05,0,15,5.2c.41.11.79.2,1.16.31a25.53,25.53,0,0,1,17.83,28.56L606.6,670.44,486.5,709.2A4.83,4.83,0,0,1,485.48,709.31Z" transform="translate(-401.82 -205.6)"/><path d="M566.46,565.26v.83c7.53,0,14.07,2,19.46,5.86l.1.07.11,0,15,5.19h.08c.37.09.74.18,1.1.29a25.1,25.1,0,0,1,17.54,28.06l-13.56,64.5L486.41,708.8a4.86,4.86,0,0,1-.92.09c-2.87,0-4.62-3-5.08-6a162.86,162.86,0,0,1,1-33.9c2.28-18,8.49-44.42,25.13-67.67a93.45,93.45,0,0,1,27.6-25.17c10.94-6.51,22.43-10.1,32.35-10.1v-.83m0,0c-21.08,0-46.12,15.37-60.62,35.62C473.42,646.16,479.59,703,479.59,703c.56,3.67,2.71,6.7,5.9,6.7a5.82,5.82,0,0,0,1.14-.12L607,670.76l13.67-65c2-12.83-5.65-25.45-18.13-29-.38-.11-.75-.21-1.14-.3l-15-5.19a33.54,33.54,0,0,0-19.95-6Z" transform="translate(-401.82 -205.6)"/><path class="cls-4" d="M640.05,579.68,614.59,594s3.09,9.73-2.94,10.48-26.78-4.45-35.41-26.32c13.48-12.29,27.4-29.52,27.4-29.52Z" transform="translate(-401.82 -205.6)"/><path class="cls-5" d="M655.29,596.06A70.92,70.92,0,0,1,643.05,595c-1-.18-2.08-.39-3.13-.62a70.78,70.78,0,0,1-54.07-55.3,69.48,69.48,0,0,1-1.34-14.47c0-.79,0-1.57.06-2.36,0-1,.11-2,.2-3,.12-1.35.28-2.73.49-4.11.06-.48.14-1,.22-1.45.23-1.29.46-2.49.72-3.67.18-.78.37-1.57.57-2.34a71.61,71.61,0,0,1,2.35-7.44q1.49-3.93,2.83-7.56c9.85-26.61,15.28-41.27,43-41.27,9.09,0,20.74,1.61,35.63,4.92a70.67,70.67,0,0,1,54,82.86c-.09.51-.2,1-.31,1.52-.38,1.7-.84,3.47-1.38,5.26-.4,1.32-.8,2.51-1.2,3.62a70.5,70.5,0,0,1-8.86,16.85c-.36.51-.73,1-1.11,1.52A71.73,71.73,0,0,1,688.4,587.8a70.43,70.43,0,0,1-33.11,8.26Z" transform="translate(-401.82 -205.6)"/><path d="M634.94,451.81c9.06,0,20.68,1.6,35.54,4.91a70.26,70.26,0,0,1,53.68,82.38c-.09.5-.2,1-.31,1.5-.37,1.69-.83,3.45-1.37,5.22-.4,1.32-.79,2.5-1.19,3.61a69.55,69.55,0,0,1-8.82,16.75c-.31.45-.65.93-1.09,1.51a71.13,71.13,0,0,1-23.18,19.74,70.25,70.25,0,0,1-32.91,8.22,71.11,71.11,0,0,1-12.17-1.06c-1-.18-2.08-.39-3.14-.63a70.32,70.32,0,0,1-53.72-55,68.54,68.54,0,0,1-1.34-14.37c0-.72,0-1.49.07-2.35,0-1,.11-2.06.2-3,.11-1.35.28-2.72.48-4.1.06-.47.14-.95.22-1.44.23-1.28.46-2.47.72-3.64.16-.7.34-1.47.56-2.33a71.43,71.43,0,0,1,2.34-7.39q1.49-3.93,2.83-7.57c9.79-26.43,15.18-41,42.6-41m0-.83c-30.55,0-34.35,17.76-46.2,49.09a72.62,72.62,0,0,0-2.38,7.49c-.19.77-.39,1.56-.56,2.35-.28,1.23-.51,2.45-.73,3.68h0c-.08.49-.16,1-.22,1.46-.21,1.38-.37,2.76-.49,4.14-.09,1-.16,2-.2,3,0,.8-.06,1.59-.07,2.38a69.69,69.69,0,0,0,1.35,14.55,71.13,71.13,0,0,0,54.36,55.61h0c1,.24,2.1.44,3.15.63a71.6,71.6,0,0,0,12.31,1.07,71,71,0,0,0,33.3-8.32,71.44,71.44,0,0,0,23.45-20c.38-.51.76-1,1.12-1.53a70.76,70.76,0,0,0,8.91-16.95c.44-1.2.83-2.41,1.21-3.64.52-1.74,1-3.5,1.38-5.29.12-.51.22-1,.32-1.53a71.1,71.1,0,0,0-54.32-83.34c-14.95-3.33-26.54-4.93-35.72-4.93Z" transform="translate(-401.82 -205.6)"/><circle cx="252.46" cy="361.93" r="1.17"/><path class="cls-6" d="M584.49,502.92c-.65-15.82,5.46-34.49,14.53-39.7-1.28-6.09-14.77-5.07-14.77-5.07a.5.5,0,0,1,.22-1s10.19-2.24,17.26,1.8c1.7,1,.72-.44.47-.79l-8.84-12.63a.51.51,0,0,1,.77-.66l11.66,11.27c.31.3.82.95.86-.32.23-6.53,6.13-18.23,6.13-18.23a.51.51,0,0,1,1,0S610,448,610.63,453.17c52.27-40.6,122-1,112.76,34.76-3.66,14.18,1.56,27.24,1.56,27.24s-2.18-13.23-11.36-21.49c-8.83-7.94-33.67-24.71-65.12-16.2-21.68,5.87-30.15,20-31.89,25.79s3.26,20-11.6,13.22c-1.47,5.61-10.34,4.68-20,1.17S584.49,502.92,584.49,502.92Z" transform="translate(-401.82 -205.6)"/><path class="cls-4" d="M586.56,533.87a22.86,22.86,0,0,1-4.31-2.1,27.28,27.28,0,0,1-3.76-2.84c-6.43-5.8-10.46-14.82-7.74-22.46a20.19,20.19,0,0,1,20.47-13.37,19.8,19.8,0,0,1,5.35,1.12l.58.21a20.18,20.18,0,0,1,12.39,14.47,14.83,14.83,0,0,1-.62,9.55" transform="translate(-401.82 -205.6)"/><polyline class="cls-1" points="182.67 297.32 192.75 308.94 177.2 308.35"/><path class="cls-6" d="M722.82,486.54c9.09-5.36,16.83-17.19,11.94-27.82-.22,6.5-21.42,21.37-33,16.92" transform="translate(-401.82 -205.6)"/><path class="cls-6" d="M720.9,498.07c9.21-2.62,18.75-11.22,16.9-21.69-1.69,5.66-23.74,13.83-32.89,7.24" transform="translate(-401.82 -205.6)"/><path class="cls-1" d="M683.18,528.65c10.51,4.43,10.59,16.41.09,13.48" transform="translate(-401.82 -205.6)"/><line class="cls-1" x1="311.59" y1="320.09" x2="284.64" y2="320.26"/><line class="cls-1" x1="302.65" y1="327.64" x2="302.61" y2="320.15"/><line class="cls-1" x1="275.21" y1="320.31" x2="244.51" y2="320.5"/><line class="cls-1" x1="266.28" y1="329.35" x2="266.22" y2="320.37"/><path class="cls-1" d="M683.34,555.08c0,4.49,4.53,6,4.54,7.46s-1.49,1.51-7.48,1.54" transform="translate(-401.82 -205.6)"/><line class="cls-1" x1="284.09" y1="358.45" x2="278.63" y2="365.97"/><path class="cls-7" d="M601.15,849.08a20.13,20.13,0,0,1-17.31-30.37l30-50.69a20.12,20.12,0,1,1,34.65,20.48l-30,50.69a20.18,20.18,0,0,1-15.6,9.81A16.88,16.88,0,0,1,601.15,849.08Z" transform="translate(-401.82 -205.6)"/><path d="M631.15,757.71v.83a19.71,19.71,0,0,1,17,29.75l-30,50.69a19.75,19.75,0,0,1-15.27,9.61c-.57,0-1.15.08-1.71.08a19.71,19.71,0,0,1-16.95-29.75l30-50.69a19.83,19.83,0,0,1,17-9.69v-.83m0,0a20.54,20.54,0,0,0-17.7,10.09l-30,50.7a20.56,20.56,0,0,0,17.67,31c.59,0,1.19,0,1.78-.08a20.53,20.53,0,0,0,15.92-10l30-50.69a20.56,20.56,0,0,0-17.67-31Z" transform="translate(-401.82 -205.6)"/><path class="cls-2" d="M625.67,808.3a25.1,25.1,0,0,1-20.32-39.74L648,709.15a25.09,25.09,0,0,1,35-5.75c11,7.92-8.84,58.56-17.39,70.46l-19.49,23.95a25.2,25.2,0,0,1-20.42,10.49Z" transform="translate(-401.82 -205.6)"/><path d="M668.41,698.28v.83a24.52,24.52,0,0,1,14.37,4.63c4.54,3.26,4,15.43-1.58,33.39-4.8,15.53-12,31-15.89,36.47l-19.49,23.95,0,0v0a24.8,24.8,0,0,1-20.12,10.29,24.68,24.68,0,0,1-20-39.08l42.64-59.4a24.75,24.75,0,0,1,20.08-10.29v-.83m0,0a25.48,25.48,0,0,0-20.75,10.63L605,768.32a25.52,25.52,0,0,0,20.66,40.39h.05a25.44,25.44,0,0,0,20.74-10.64l19.51-24c8.22-11.44,28.74-62.82,17.29-71a25.32,25.32,0,0,0-14.85-4.78Z" transform="translate(-401.82 -205.6)"/><path class="cls-2" d="M633.63,802.31A34.84,34.84,0,0,1,618,798.65a35.26,35.26,0,0,1-15.93-47.17l5.36-8.4-57.35,19.64A35.2,35.2,0,1,1,526,696.6l138.13-47.31a34.86,34.86,0,0,1,9.65-2c.26,0,.5,0,.74,0,.75-.05,1.51-.07,2.25-.07a34.81,34.81,0,0,1,15.59,3.66,35.24,35.24,0,0,1,15.93,47.16l-43,84.77a35.3,35.3,0,0,1-25.93,19.14A34.45,34.45,0,0,1,633.63,802.31Z" transform="translate(-401.82 -205.6)"/><path d="M676.72,647.53h0a34.45,34.45,0,0,1,15.41,3.62,34.83,34.83,0,0,1,15.74,46.6l-43,84.78a34.93,34.93,0,0,1-31.21,19.37,34.79,34.79,0,0,1-31.16-50.2l4.71-7.39,1.27-2-2.24.77L550,762.34a34.71,34.71,0,0,1-31.6-4A34.77,34.77,0,0,1,526.08,697l138.15-47.32a34.34,34.34,0,0,1,9.57-2c.23,0,.46,0,.7,0,.74-.05,1.48-.07,2.22-.07m0-.83c-.76,0-1.52,0-2.27.07q-.37,0-.75.06A34.77,34.77,0,0,0,664,648.9L525.81,696.21a35.62,35.62,0,1,0,24.44,66.91l56.23-19.26-4.74,7.44a35.64,35.64,0,0,0,31.89,51.43,35.22,35.22,0,0,0,5.72-.47,35.58,35.58,0,0,0,26.23-19.36l43-84.77a35.63,35.63,0,0,0-31.89-51.43Z" transform="translate(-401.82 -205.6)"/><path class="cls-7" d="M527.38,826.82a20.5,20.5,0,0,1-2.22-.12,20.14,20.14,0,0,1-12.76-33.45l39.3-43.84a20.13,20.13,0,1,1,30,26.87l-39.31,43.84A20.12,20.12,0,0,1,527.38,826.82Z" transform="translate(-401.82 -205.6)"/><path d="M566.7,742.3v.83A19.71,19.71,0,0,1,581.37,776l-39.31,43.85a19.74,19.74,0,0,1-16.86,6.43,19.71,19.71,0,0,1-12.49-32.75L552,749.68a19.78,19.78,0,0,1,14.69-6.55v-.83m0,0a20.49,20.49,0,0,0-15.31,6.83L512.09,793a20.54,20.54,0,0,0,13,34.13,21.58,21.58,0,0,0,2.27.12,20.47,20.47,0,0,0,15.3-6.83L582,776.55A20.54,20.54,0,0,0,566.7,742.3Z" transform="translate(-401.82 -205.6)"/><path class="cls-2" d="M553.94,799.35a25.71,25.71,0,0,1-2.77-.15,25.1,25.1,0,0,1-15.91-41.7l48.82-54.45a25.09,25.09,0,1,1,37.37,33.5L572.64,791A25.14,25.14,0,0,1,553.94,799.35Z" transform="translate(-401.82 -205.6)"/><path d="M602.78,694.29v.83a24.68,24.68,0,0,1,18.36,41.16l-48.81,54.45a24.68,24.68,0,0,1-36.76-33l48.82-54.45a24.69,24.69,0,0,1,18.38-8.21v-.83m0,0a25.45,25.45,0,0,0-19,8.48L535,757.23a25.51,25.51,0,0,0,16.18,42.38,23.94,23.94,0,0,0,2.81.16,25.47,25.47,0,0,0,19-8.49l48.81-54.45a25.51,25.51,0,0,0-19-42.54Z" transform="translate(-401.82 -205.6)"/><path class="cls-2" d="M513.3,771.85a35.47,35.47,0,0,1-15.78-3.72,35,35,0,0,1-15.36-15,42.64,42.64,0,0,1-3.7-28.65c2.23-10.25,7.91-18.25,16-22.53l121.46-56.41a35.19,35.19,0,0,1,47.61,14.62,35.2,35.2,0,0,1-14.63,47.58l-119.13,60A35.42,35.42,0,0,1,513.3,771.85Z" transform="translate(-401.82 -205.6)"/><path d="M632.38,641v.83h0a34.79,34.79,0,0,1,16.33,65.53l-119.16,60a34.72,34.72,0,0,1-16.25,4.06,35.17,35.17,0,0,1-15.59-3.68,34.58,34.58,0,0,1-15.18-14.83,42.33,42.33,0,0,1-3.67-28.38c2.21-10.12,7.81-18,15.74-22.23l121.53-56.43a34.84,34.84,0,0,1,16.25-4.06V641m0,0a35.51,35.51,0,0,0-16.64,4.15L494.25,701.57c-17.38,9.21-21.66,34.36-12.46,51.75a35.6,35.6,0,0,0,48.15,14.8l119.15-60A35.62,35.62,0,0,0,632.38,641Z" transform="translate(-401.82 -205.6)"/><polygon class="cls-2" points="98.93 498.73 74.79 512.77 67.88 522.71 76.75 552.11 91.73 566.67 114.07 568.52 126.62 565.52 136.79 561.2 137.77 536.04 126.62 512.19 98.93 498.73"/><path class="cls-2" d="M564,791.21a35.89,35.89,0,0,1-3.88-.21,35.21,35.21,0,0,1-22.32-58.48l68.37-79.4a35.2,35.2,0,0,1,52.42,47l-68.37,79.4A35.25,35.25,0,0,1,564,791.21Z" transform="translate(-401.82 -205.6)"/><path d="M632.43,641v.83h0a34.78,34.78,0,0,1,25.88,58L590,779.23a34.78,34.78,0,1,1-51.79-46.45l68.35-79.38a34.84,34.84,0,0,1,25.91-11.57V641m0,0a35.51,35.51,0,0,0-26.53,11.85l-68.36,79.39a35.61,35.61,0,0,0,22.57,59.17,34.56,34.56,0,0,0,3.94.22,35.55,35.55,0,0,0,26.53-11.84l68.36-79.4A35.62,35.62,0,0,0,632.43,641Z" transform="translate(-401.82 -205.6)"/><polygon class="cls-2" points="163.78 472.56 202.44 445.31 230.36 443.53 196.42 467.3 163.78 472.56"/><path class="cls-8" d="M687.92,868.52c-17.92,0-51.4.11-66,0C612,861.31,580,857.56,563.06,856h0a4.2,4.2,0,0,0,2.38-2.5L577.25,819a4.56,4.56,0,0,1,5.15-3c13.53,2.55,18.5,11.83,25.64,11.83,7.81,0,9.11-1.63,18.86-13,6.68-7.8,15.52-6,20.41-4a4,4,0,0,1,2.19,5.18c-2.07,5-5.76,14.84-7.17,23.56a4.54,4.54,0,0,0,3.08,5C673.26,853.44,684,862.18,687.92,868.52Z" transform="translate(-401.82 -205.6)"/><path class="cls-7" d="M559.49,877.77a5.25,5.25,0,0,1-4.93-7l4-11.22a5.46,5.46,0,0,1,3.1-3.26c18.3,1.69,50.32,5.56,60,12.52l.11.08h.13c6,.06,15.93.1,29.56.1,12.52,0,25.71,0,35.14,0h1.08c2.85,4.76,1.74,8,1.37,8.83Z" transform="translate(-401.82 -205.6)"/><path d="M561.74,856.71c18.28,1.69,50.12,5.55,59.69,12.44l.21.15h.27c6,.07,15.92.1,29.55.1,12.51,0,25.59,0,35.14,0h.85c2.39,4.11,1.72,7,1.33,8H559.49a4.82,4.82,0,0,1-4.53-6.44l4-11.23a5.07,5.07,0,0,1,2.77-3m-.12-.85a5.9,5.9,0,0,0-3.43,3.55l-4,11.22a5.65,5.65,0,0,0,5.32,7.55H689.31s2.23-3.8-1.39-9.66c-9.49,0-23.35.05-36.46.05-11.64,0-22.68,0-29.54-.1-9.95-7.16-43.39-11.05-60.3-12.61Z" transform="translate(-401.82 -205.6)"/><path class="cls-9" d="M569.82,840.74c10.94,1,29.59,6.65,40.86,23" transform="translate(-401.82 -205.6)"/><path class="cls-9" d="M634.23,868.57c1.27-8.49-1.27-12.42,40.61-11.57" transform="translate(-401.82 -205.6)"/><line class="cls-9" x1="232.41" y1="622.75" x2="243.2" y2="622.75"/><line class="cls-9" x1="229.57" y1="628.36" x2="241.86" y2="628.36"/><line class="cls-9" x1="227.22" y1="635.49" x2="240.75" y2="635.49"/><path class="cls-7" d="M519.2,663.29a2.32,2.32,0,0,1-.48,0l.11-.18A3.11,3.11,0,0,1,519.2,663.29Z" transform="translate(-401.82 -205.6)"/><path d="M518.83,663.07l-.11.18a1.63,1.63,0,0,0,.39,0h.09a3.11,3.11,0,0,0-.37-.22Z" transform="translate(-401.82 -205.6)"/><path class="cls-3" d="M500,693.85a19.63,19.63,0,0,1-9.79-3.37c-.61-.59-1.19-1.08-1.73-1.54a19.29,19.29,0,0,1-3.86-4.19c-4.72-6.7-9.76-17.83-9.76-29a102.27,102.27,0,0,1,12.75-48.11c10.65-19.62,26.76-35.07,47.88-45.93,6.35-3.26,12.42-4.92,18-4.92a25.8,25.8,0,0,1,22.37,12.82A19.59,19.59,0,0,1,569,596.43c-18.47,10.92-35.5,32.43-42.77,41.62l-.85,1.07c-4,5-8.71,12.49-8.89,20-.07,2.85.83,3.92,1.63,4.31l-17.94,30.39Z" transform="translate(-401.82 -205.6)"/><path d="M553.51,557.22h0a25.56,25.56,0,0,1,22,12.61,19.17,19.17,0,0,1-6.75,26.24c-18.53,11-35.59,32.52-42.88,41.73l-.84,1.06c-4,5-8.8,12.62-9,20.29v.06c-.06,2.6.69,3.83,1.48,4.41l-17.6,29.81a19.2,19.2,0,0,1-9.47-3.25c-.65-.62-1.21-1.1-1.74-1.56a18.54,18.54,0,0,1-3.8-4.11c-4.68-6.65-9.68-17.69-9.68-28.75a101.88,101.88,0,0,1,12.69-47.91c10.62-19.54,26.67-34.94,47.71-45.76,6.29-3.23,12.3-4.87,17.86-4.87m0-.83c-5.28,0-11.36,1.43-18.24,5-47,24.17-60.86,67.3-60.85,94.41,0,11.41,5.12,22.54,9.83,29.23,2.23,3.17,3.46,3.7,5.69,5.84a20.06,20.06,0,0,0,10,3.43l.45,0,18.32-31c-.7-.14-1.9-.83-1.83-4,.05-1.69.11-8.92,8.81-19.85,6.39-8.06,24.31-31.25,43.5-42.59a20,20,0,0,0,7-27.38,26.1,26.1,0,0,0-22.73-13Z" transform="translate(-401.82 -205.6)"/><path class="cls-3" d="M500.42,693.87l-.45,0a19.63,19.63,0,0,1-9.79-3.37,19.38,19.38,0,0,1-5-4.81,18.69,18.69,0,0,1-1.77-3,19.73,19.73,0,0,1,6.26-24.63c.93-.66,11.17-5.79,24.14-12.28l12-6c26.47-13.26,58-29.24,67-35.16a19.78,19.78,0,1,1,21.85,33c-13,8.58-65.38,36.1-85.11,46.46l-6.47,3.4c-4,2.13-17.81,6.45-22.42,6.45Z" transform="translate(-401.82 -205.6)"/><path d="M603.75,600.88v.83a19.37,19.37,0,0,1,10.71,35.52c-12.94,8.56-65.33,36.07-85.06,46.42l-6.48,3.42c-4,2.11-17.67,6.39-22.23,6.39h-.24l-.45,0a19.37,19.37,0,0,1-14.44-8,18.42,18.42,0,0,1-1.74-2.92A19.33,19.33,0,0,1,490,658.39c.9-.64,11.15-5.77,24.13-12.26l12-6c26.48-13.26,58-29.25,67-35.19a19.38,19.38,0,0,1,10.68-3.22v-.83m0,0a20.11,20.11,0,0,0-11.13,3.36c-9,5.94-40.93,22.12-66.92,35.14-19.11,9.58-35,17.47-36.23,18.34A20.19,20.19,0,0,0,500,694.26l.45,0h.29c4.69,0,18.53-4.33,22.61-6.49,9.82-5.2,76.7-40,91.62-49.88a20.2,20.2,0,0,0-11.17-37Z" transform="translate(-401.82 -205.6)"/><circle class="cls-4" cx="207.69" cy="418.47" r="25.06"/><path class="cls-5" d="M647.11,637a6.46,6.46,0,0,1-6.39-5.91l-1.58-19.61,0-.08a6.52,6.52,0,0,0-4.81-3.88,6.9,6.9,0,0,0-1-.08,8.51,8.51,0,0,0-6.34,3.12,6.43,6.43,0,0,1-9.79-8.33,21.55,21.55,0,0,1,16.14-7.64,19.27,19.27,0,0,1,3,.24c6.76,1.09,12.26,5.69,15.08,12.62l.37.91L653.53,630a6.47,6.47,0,0,1-4.95,6.78,7.65,7.65,0,0,1-.94.15Z" transform="translate(-401.82 -205.6)"/><path d="M633.28,595h0a18.52,18.52,0,0,1,3,.23c6.61,1.06,12,5.57,14.76,12.36l.35.86,1.74,21.63a6,6,0,0,1-4.63,6.34,6.29,6.29,0,0,1-.87.13l-.5,0a6,6,0,0,1-6-5.52l-1.57-19.54,0-.16-.07-.14a6.9,6.9,0,0,0-5.12-4.11,6.38,6.38,0,0,0-1.08-.09,9,9,0,0,0-6.66,3.27,6,6,0,1,1-9.15-7.79A21.11,21.11,0,0,1,633.28,595m0-.84a21.86,21.86,0,0,0-16.45,7.79,6.84,6.84,0,1,0,10.42,8.87,8.17,8.17,0,0,1,6-3,6,6,0,0,1,1,.08,6.12,6.12,0,0,1,4.51,3.66l1.57,19.53a6.85,6.85,0,0,0,6.81,6.29l.56,0a6.52,6.52,0,0,0,1-.16,6.83,6.83,0,0,0,5.27-7.21l-1.76-21.75-.39-1c-2.88-7.07-8.49-11.76-15.4-12.87a20.51,20.51,0,0,0-3.12-.25Z" transform="translate(-401.82 -205.6)"/><path class="cls-5" d="M630.1,644.53a6,6,0,0,1-1-.07,6.4,6.4,0,0,1-5.41-7.29l2.87-19.47,0-.08a6.52,6.52,0,0,0-3.81-4.87,7,7,0,0,0-2.6-.49,8.86,8.86,0,0,0-5.25,1.8,6.43,6.43,0,1,1-7.66-10.32,21.8,21.8,0,0,1,12.91-4.32,19.67,19.67,0,0,1,7.44,1.43c6.35,2.58,10.67,8.3,11.85,15.69l.16,1L636.45,639A6.46,6.46,0,0,1,630.1,644.53Z" transform="translate(-401.82 -205.6)"/><path d="M620.18,599v.83a19.08,19.08,0,0,1,7.29,1.41c6.2,2.52,10.43,8.12,11.59,15.37l.15.91L636,639a6.05,6.05,0,0,1-5.94,5.14,6.8,6.8,0,0,1-.89-.07,6,6,0,0,1-5.06-6.82L627,617.84l0-.16,0-.16a6.91,6.91,0,0,0-4.06-5.15,7.21,7.21,0,0,0-2.76-.52,9.31,9.31,0,0,0-5.5,1.87,6,6,0,0,1-9.53-5.7,6,6,0,0,1,2.36-3.95,21.49,21.49,0,0,1,12.67-4.24V599m0,0A22.16,22.16,0,0,0,607,603.41a6.84,6.84,0,1,0,8.15,11,8.54,8.54,0,0,1,5-1.71,6.38,6.38,0,0,1,2.44.46,6.09,6.09,0,0,1,3.57,4.58l-2.86,19.39a6.83,6.83,0,0,0,5.76,7.76,7,7,0,0,0,1,.08,6.84,6.84,0,0,0,6.76-5.84l3.19-21.6-.17-1c-1.21-7.53-5.62-13.37-12.1-16a20,20,0,0,0-7.6-1.47Z" transform="translate(-401.82 -205.6)"/><path class="cls-5" d="M618.14,643.44a6.08,6.08,0,0,1-.95-.07,6.44,6.44,0,0,1-5.42-7.3l2.88-19.46,0-.08a6.5,6.5,0,0,0-3.81-4.87,7,7,0,0,0-2.6-.49A9,9,0,0,0,603,613a6.42,6.42,0,0,1-7.66-10.31,21.86,21.86,0,0,1,12.92-4.33,19.67,19.67,0,0,1,7.44,1.44c6.34,2.58,10.66,8.3,11.85,15.69l.16,1L624.49,638A6.47,6.47,0,0,1,618.14,643.44Z" transform="translate(-401.82 -205.6)"/><path d="M608.22,597.91v.83a19.25,19.25,0,0,1,7.28,1.4c6.21,2.53,10.44,8.13,11.6,15.37l.15.92-3.18,21.46a6,6,0,0,1-5.93,5.13,6.65,6.65,0,0,1-.89-.06,6,6,0,0,1-5.06-6.83l2.86-19.38,0-.16,0-.16a6.92,6.92,0,0,0-4.07-5.15,7.12,7.12,0,0,0-2.75-.52,9.29,9.29,0,0,0-5.5,1.87,6,6,0,0,1-7.17-9.65,21.46,21.46,0,0,1,12.67-4.24v-.83m0,0a22.16,22.16,0,0,0-13.16,4.41,6.84,6.84,0,1,0,8.15,11,8.54,8.54,0,0,1,5-1.71,6.65,6.65,0,0,1,2.44.45,6.15,6.15,0,0,1,3.57,4.59L611.36,636a6.84,6.84,0,0,0,5.77,7.77,7,7,0,0,0,1,.07A6.85,6.85,0,0,0,624.9,638l3.19-21.59-.17-1c-1.21-7.53-5.62-13.37-12.1-16a20.22,20.22,0,0,0-7.6-1.46Z" transform="translate(-401.82 -205.6)"/><path class="cls-8" d="M593.92,871.78c-11.41.05-45.63.22-50.74,0-6.14-.27-24.56-1.39-26.79-15.9s-22.05-34.9-27.08-39.64c-4-3.77-4.46-7.71-3.79-13.08l.82-.08,24-23.94a2.26,2.26,0,0,1,3.85,1.39c.52,5.5,2.08,14.2,6.77,19.14,6.46,6.79,16.87,8.72,27.43,5a40,40,0,0,1,14.8-2.4c6.83.27,11.09,2.18,13.59,3.92a2.88,2.88,0,0,1-.22,4.84c-3.7,2.17-9.75,6-14,10.3a11.33,11.33,0,0,0-.29,15.78C572,847.59,592.37,859.62,593.92,871.78Z" transform="translate(-401.82 -205.6)"/><path class="cls-7" d="M569.83,878.81c-11.07,0-22.83-.06-30.75-.1a44.58,44.58,0,0,1-20.86-5.32c-14.13-7.66-38.74-23.83-44.78-46.13-1.81-7.49-1.29-13.4,1.56-17.58a15.23,15.23,0,0,1,10.05-6c-.57,5.12,0,9.09,4,12.89.24.23,24.45,23.22,27,39.4,1.54,10.05,10.69,15.52,27.18,16.25,1.8.09,7.42.13,16.71.13,11.29,0,25.16-.06,32.61-.09h1.09a41.6,41.6,0,0,1,.63,6.45C589,878.76,580.83,878.81,569.83,878.81Z" transform="translate(-401.82 -205.6)"/><path d="M484.58,804.14c-.49,5,.16,8.91,4.16,12.68.25.23,24.35,23.13,26.83,39.16,1.58,10.28,10.86,15.87,27.57,16.61,1.81.08,7.44.12,16.75.12,11.26,0,25.11-.06,32.55-.09h.78a40.39,40.39,0,0,1,.55,5.62c-5.19.1-13.24.16-24,.16-11.09,0-22.83-.06-30.73-.11A44,44,0,0,1,518.42,873c-14.07-7.62-38.58-23.72-44.58-45.85-1.78-7.38-1.28-13.18,1.51-17.25a14.59,14.59,0,0,1,9.23-5.78m.94-1c-3.58.48-17.46,3.65-12.48,24.23,6.06,22.37,30.52,38.55,45,46.38a44.67,44.67,0,0,0,21.05,5.37c8,0,19.7.11,30.73.11,9.74,0,19-.05,24.81-.17a42.3,42.3,0,0,0-.7-7.28c-6.86,0-22,.1-34,.1-8,0-14.67,0-16.71-.12-6.14-.27-24.56-1.39-26.79-15.9s-22.05-34.9-27.08-39.64c-4-3.77-4.46-7.71-3.79-13.08Z" transform="translate(-401.82 -205.6)"/><line class="cls-10" x1="153.69" y1="611.1" x2="166" y2="611.1"/><line class="cls-10" x1="148.7" y1="618.1" x2="158.45" y2="618.1"/><line class="cls-10" x1="144.08" y1="624.41" x2="157.32" y2="624.41"/><path class="cls-9" d="M529.69,870c1.69-7.15-2.55-14.45,55.85-12" transform="translate(-401.82 -205.6)"/><path class="cls-9" d="M508.91,839.31v0c0-.42.88-8.51-.29-23.77-1-13.39-8.05-19.7-13.79-20.94" transform="translate(-401.82 -205.6)"/><path class="cls-3" d="M484.57,683.69l-.15-.31a34.55,34.55,0,0,1-3.26-5.21l-2.59-27.59,31-12.65-3.88,16.7,22.72-2.36L497,685Z" transform="translate(-401.82 -205.6)"/><polygon class="cls-3" points="150.7 374.91 162.43 368.89 171.8 374.91 173.8 392.73 168.88 398.35 160.59 402.25 150.7 374.91"/><path class="cls-5" d="M610.65,620.38c-7.8,6.1,5.16,15.28-4.74,15.28a17.92,17.92,0,0,1,0-35.83C615.81,599.83,624.32,609.69,610.65,620.38Z" transform="translate(-401.82 -205.6)"/><polygon class="cls-2" points="95.11 510.82 94.62 518.01 125.85 497.42 131.95 488.69 128.75 489.46 98.44 499.55 95.11 510.82"/><rect class="cls-11" x="180.12" y="436.61" width="70.94" height="13.53" rx="4.88"/><path class="cls-11" d="M644.46,652.28l-1.57-4.13a10,10,0,0,1,.68-8.49l48.37-84.1a9.12,9.12,0,0,1,7.91-4.57H829.6a7.22,7.22,0,0,1,6.3,10.75l-51,90.87a8.44,8.44,0,0,1-7.44,4.31l-128.06-1.21A5.31,5.31,0,0,1,644.46,652.28Z" transform="translate(-401.82 -205.6)"/><line class="cls-12" x1="304.71" y1="345.38" x2="243.92" y2="450.07"/><path class="cls-13" d="M1244.94,398.75c8.25,17.65,9.73,43.22,10.37,52.19.88,12.17-2.64,17.42-3.44,18.66-1.52,2.34-2.73,2.24-3.3,2l-2.1,31.42.34.21a17.53,17.53,0,0,0,8.91,2.45c2.67-.43,3.82-.21,7-1.4,6.69-2.5,15.88-8,21.51-16.23,13.38-19.55,24.66-57.49,2.68-98.12-10.1-18.65-24.79-18.48-33.53-14.4A17.48,17.48,0,0,0,1244.94,398.75Z" transform="translate(-401.82 -205.6)"/><path class="cls-5" d="M1255.72,505.27a17.09,17.09,0,0,1-8.7-2.4l-.33-.2c-3.17-2-11.26-12.17-13.18-15.82-.58-1.12-1.62-3.08-3-5.68-9.12-17.2-33.34-62.88-38.45-75.46a17.21,17.21,0,0,1,9.47-22.45A14.72,14.72,0,0,1,1207,382c4.45,0,6.64,3.46,9.59,10.72,1.68,4.11,7.31,12.05,14.44,22.1,7.76,10.92,17.4,24.51,24,36.34l5.64,10.17c6.19,11.14,11.07,19.94,11.41,20.87a17.19,17.19,0,0,1-7.61,20.79,15.65,15.65,0,0,1-2.74,1.28,17,17,0,0,1-5.81,1Z" transform="translate(-401.82 -205.6)"/><path d="M1206.94,382.39c4.22,0,6.33,3.38,9.22,10.47,1.69,4.15,7.34,12.11,14.49,22.18,7.74,10.91,17.38,24.49,23.93,36.3l5.7,10.26c5.9,10.64,11,19.82,11.33,20.72a16.79,16.79,0,0,1-15.77,22.53h-.12a16.72,16.72,0,0,1-8.48-2.33l-.29-.17,0,0c-3.06-1.9-11.17-12.14-13-15.66-.58-1.12-1.62-3.08-3-5.67-9.12-17.19-33.34-62.87-38.45-75.43a16.84,16.84,0,0,1,9.25-21.92,14.28,14.28,0,0,1,5.25-1.25m0-.83a15,15,0,0,0-5.56,1.31,17.65,17.65,0,0,0-9.71,23c5.89,14.48,37,72.58,41.48,81.17,1.92,3.65,10.06,14,13.32,16l.34.21a17.53,17.53,0,0,0,8.91,2.45h.12a17.49,17.49,0,0,0,6-1.05,16.77,16.77,0,0,0,2.81-1.31,17.64,17.64,0,0,0,7.79-21.29c-.45-1.23-8-14.76-17.08-31.1-12.33-22.22-34.83-49.68-38.38-58.4-2.79-6.84-5.1-11-10-11Z" transform="translate(-401.82 -205.6)"/><circle class="cls-14" cx="801.46" cy="195.96" r="21.9"/><path class="cls-4" d="M1219.51,395.25c9.07,1.44,26.19.08,24.63,12.17-1.86,14.35-32.58.43-32.58.43" transform="translate(-401.82 -205.6)"/><path class="cls-11" d="M1154.56,399.07l71.52,7.4.34,298.1-13.88,38.31a6.41,6.41,0,0,1-5.79,3.66l-62.33.08Z" transform="translate(-401.82 -205.6)"/><path class="cls-5" d="M1170,408.43a5.29,5.29,0,0,1-1.19-.13,6.23,6.23,0,0,1-.8-.23,5.64,5.64,0,0,1-3.5-6.44l4-18.59.43-.75c3.25-5.68,8.54-9,14.52-9.18h.44a18.55,18.55,0,0,1,15.32,8.63,5.61,5.61,0,1,1-9.44,6.08,7.33,7.33,0,0,0-5.88-3.48h-.14a5.7,5.7,0,0,0-4.62,2.81l0,.06-3.64,16.8a5.64,5.64,0,0,1-5.48,4.43Z" transform="translate(-401.82 -205.6)"/><path d="M1183.88,373.46a18.2,18.2,0,0,1,15,8.47,5.26,5.26,0,0,1,.71,4,5.24,5.24,0,0,1-9.54,1.73,7.7,7.7,0,0,0-6.19-3.65h-.15a6,6,0,0,0-4.91,3l-.08.12,0,.14-3.62,16.74a5.25,5.25,0,0,1-6.25,4,6.29,6.29,0,0,1-.74-.22,5.28,5.28,0,0,1-3.28-6l4-18.53.41-.7c3.18-5.57,8.36-8.85,14.21-9h.43m0-.72h-.45c-6.11.16-11.52,3.58-14.82,9.37l-.46.8-4,18.64a6,6,0,0,0,3.73,6.86,7.61,7.61,0,0,0,.85.25,6.08,6.08,0,0,0,1.27.13,6,6,0,0,0,5.84-4.71l3.62-16.74a5.36,5.36,0,0,1,4.33-2.65h.13a7,7,0,0,1,5.58,3.32,6,6,0,1,0,10-6.47,18.86,18.86,0,0,0-15.63-8.8Z" transform="translate(-401.82 -205.6)"/><path class="cls-5" d="M1183.83,417a6,6,0,0,1-.75-.05,5.63,5.63,0,0,1-4.86-5.49l-.27-19,.25-.83c1.88-6.26,6.28-10.72,12.08-12.22a16.86,16.86,0,0,1,4.26-.54,18.92,18.92,0,0,1,13,5.4,5.61,5.61,0,1,1-7.83,8.05,7.6,7.6,0,0,0-5.21-2.22,5.48,5.48,0,0,0-5.31,4l0,.06.24,17.2a5.61,5.61,0,0,1-5.53,5.69Z" transform="translate(-401.82 -205.6)"/><path d="M1194.54,379.18a18.5,18.5,0,0,1,12.78,5.29A5.25,5.25,0,0,1,1200,392a7.93,7.93,0,0,0-5.45-2.32,5.82,5.82,0,0,0-5.66,4.19l-.05.13v.14l.24,17.12a5.26,5.26,0,0,1-5.18,5.33h-.07a5.36,5.36,0,0,1-.7,0,5.28,5.28,0,0,1-4.55-5.13l-.27-19,.24-.77c1.84-6.14,6.15-10.51,11.82-12a16.6,16.6,0,0,1,4.17-.52m0-.73a17.29,17.29,0,0,0-4.35.55c-5.92,1.54-10.42,6.08-12.34,12.47l-.26.88.26,19.07a6,6,0,0,0,5.18,5.84,7,7,0,0,0,.8.05h.08a6,6,0,0,0,5.9-6.06l-.24-17.12a5.34,5.34,0,0,1,3.62-3.56,5.51,5.51,0,0,1,1.36-.17,7.27,7.27,0,0,1,5,2.12,6,6,0,0,0,8.33-8.57,19.19,19.19,0,0,0-13.29-5.5Z" transform="translate(-401.82 -205.6)"/><path class="cls-5" d="M1194.31,417.39a6,6,0,0,1-.74-.05,5.64,5.64,0,0,1-4.86-5.49l-.27-19,.25-.83c1.88-6.26,6.28-10.72,12.07-12.22a16.94,16.94,0,0,1,4.27-.54,18.88,18.88,0,0,1,13,5.4,5.61,5.61,0,1,1-7.82,8.05,7.6,7.6,0,0,0-5.21-2.22,5.46,5.46,0,0,0-5.31,4l0,.06.24,17.19a5.63,5.63,0,0,1-5.53,5.7Z" transform="translate(-401.82 -205.6)"/><path d="M1205,379.61a18.53,18.53,0,0,1,12.78,5.3,5.25,5.25,0,0,1-3.66,9,5.23,5.23,0,0,1-3.66-1.48,8,8,0,0,0-5.46-2.33,5.88,5.88,0,0,0-5.65,4.19l-.05.14v.14l.24,17.12a5.26,5.26,0,0,1-5.18,5.32h-.07a5.37,5.37,0,0,1-.7,0,5.27,5.27,0,0,1-4.55-5.13l-.27-19,.24-.78c1.84-6.14,6.15-10.5,11.82-12a16.61,16.61,0,0,1,4.17-.53m0-.72a17.37,17.37,0,0,0-4.36.55c-5.92,1.53-10.41,6.08-12.33,12.46l-.26.89.26,19.07a6,6,0,0,0,5.18,5.84,7,7,0,0,0,.8.05h.08a6,6,0,0,0,5.89-6.06l-.23-17.12a5.34,5.34,0,0,1,3.61-3.56,5.63,5.63,0,0,1,1.36-.17,7.24,7.24,0,0,1,5,2.12,6,6,0,1,0,8.34-8.57,19.19,19.19,0,0,0-13.29-5.5Z" transform="translate(-401.82 -205.6)"/><path class="cls-5" d="M1202.72,398.23c6,6.18-3.16,3.43,5.41,4.58s13.37,4.33,14.52-4.24A15.66,15.66,0,0,0,1209.2,381C1200.63,379.83,1192.12,387.39,1202.72,398.23Z" transform="translate(-401.82 -205.6)"/><path class="cls-15" d="M1333.09,812.94c7,0,11.51,3.76,11.51,6.82v9.06l-7.68,4.27s-8.36-3.86-8.53-4.27-2.2-12.94-2.2-12.94Z" transform="translate(-401.82 -205.6)"/><rect class="cls-7" x="850.39" y="565.99" width="38.26" height="60.58"/><path d="M1290.06,772v59.75h-37.43V772h37.43m.83-.83H1251.8v61.41h39.09V771.18Z" transform="translate(-401.82 -205.6)"/><rect class="cls-7" x="890.91" y="564.42" width="38.26" height="62.16"/><path d="M1330.57,770.44v61.32h-37.43V770.44h37.43m.83-.83h-39.09v63h39.09v-63Z" transform="translate(-401.82 -205.6)"/><path class="cls-16" d="M1314.14,391.07c-16.61,5.66-21.93,20.07-24.05,30.19a153.5,153.5,0,0,0-32.64-11.56,18.9,18.9,0,1,1,8.46-36.84A187.69,187.69,0,0,1,1314.14,391.07Z" transform="translate(-401.82 -205.6)"/><path class="cls-17" d="M1292.31,790.2c-5-2.72-14.35-4.59-23.1-4.59-8.09,0-14.75,1.59-18.88,4.5l-10.64-291.19c0-13.57,10.61-24.62,23.65-24.62S1287,485.35,1287,498.94Z" transform="translate(-401.82 -205.6)"/><path d="M1263.34,474.71c12.81,0,23.23,10.87,23.23,24.24l5.31,290.56c-5.21-2.58-14.21-4.32-22.66-4.32-7.79,0-14.28,1.47-18.5,4.16l-10.61-290.41c0-13.36,10.42-24.23,23.23-24.23m0-.83c-13.29,0-24.06,11.22-24.06,25.06l10.67,292c4.44-3.52,11.77-4.9,19.27-4.9,9.33,0,18.93,2.13,23.52,4.9l-5.34-292c0-13.84-10.77-25.06-24.06-25.06Z" transform="translate(-401.82 -205.6)"/><path class="cls-17" d="M1333.73,792.34c-9.25-4.48-17.28-6.67-24.53-6.67a32.87,32.87,0,0,0-18.74,5.74l-4-292.18c0-13.74,13.42-24.93,29.9-24.93s29.9,11.19,29.9,24.94Z" transform="translate(-401.82 -205.6)"/><path d="M1316.34,474.71c16.26,0,29.49,11,29.49,24.49l-12.49,292.49c-9.06-4.32-17-6.43-24.14-6.43a33.15,33.15,0,0,0-18.34,5.39l-4-291.41c0-13.53,13.22-24.53,29.48-24.53m0-.83c-16.74,0-30.31,11.35-30.31,25.36l4,293a32.78,32.78,0,0,1,19.15-6.1c7.77,0,16,2.53,24.92,6.9l12.54-293.75c0-14-13.57-25.36-30.32-25.36Z" transform="translate(-401.82 -205.6)"/><ellipse class="cls-17" cx="887.89" cy="305.92" rx="52.54" ry="32.69"/><path d="M1289.71,479.25c28.74,0,52.13,14.48,52.13,32.28s-23.39,32.27-52.13,32.27-52.13-14.48-52.13-32.27,23.39-32.28,52.13-32.28m0-.83c-29.25,0-53,14.82-53,33.11s23.71,33.1,53,33.1,53-14.82,53-33.1-23.71-33.11-53-33.11Z" transform="translate(-401.82 -205.6)"/><polygon class="cls-17" points="936.74 331.13 936.74 308.81 885.93 324.79 885.93 363.56 936.74 331.13"/><polygon class="cls-17" points="836.6 331.13 836.6 308.81 870.49 320.92 870.49 359.7 836.6 331.13"/><path class="cls-18" d="M1259.62,808.42h-11.25a8.26,8.26,0,0,0-8.34,7.48,17.73,17.73,0,0,0,1.6,7.92c5.36,13.06,30.52,12.86,33,2.22,1.39-5.91-2-10.68-5.24-13.76A14.28,14.28,0,0,0,1259.62,808.42Z" transform="translate(-401.82 -205.6)"/><path class="cls-19" d="M1207.79,867.05h112.8c-1.36-14.39-12.17-34.81-14.35-39.25-5.75,1.47-11.91-2.23-16-5.52A11.09,11.09,0,0,0,1274,824.6a2.39,2.39,0,0,0-.13.21c-2.27-1.84-5.84-2.89-9.77-3.45a46.21,46.21,0,0,0-35.71,10.32c-8,6.6-16.79,15.83-19.22,26.07A49.58,49.58,0,0,0,1207.79,867.05Z" transform="translate(-401.82 -205.6)"/><path class="cls-18" d="M1213.09,879.28h104.24c3-2.56,3.77-7.06,3.26-12.39h-112.8C1207.3,878.2,1213.09,879.28,1213.09,879.28Z" transform="translate(-401.82 -205.6)"/><path class="cls-1" d="M1273.66,825.08s-26.74,25.13-49.08,25.13c-1.85,0-5,.14-12.6.14" transform="translate(-401.82 -205.6)"/><path class="cls-1" d="M1234,827.55c11.71-4.15,33.17-.67,35.53,1.11" transform="translate(-401.82 -205.6)"/><path class="cls-1" d="M1226.49,833.15c11.49-4.59,33.83-.78,36.24,1.06" transform="translate(-401.82 -205.6)"/><path class="cls-1" d="M1220.73,838.61c12-3.4,31.61-.38,33.86,1.33" transform="translate(-401.82 -205.6)"/><path class="cls-1" d="M1216.19,843.88c11.83-2,27-.4,28.94,1.08" transform="translate(-401.82 -205.6)"/><rect class="cls-20" x="1257.5" y="842.94" width="49.6" height="11.13" rx="2.74" transform="translate(2162.77 1491.41) rotate(-180)"/><rect class="cls-20" x="1257.5" y="842.94" width="49.6" height="11.13" rx="2.74" transform="translate(2162.77 1491.41) rotate(-180)"/><path class="cls-18" d="M1300.43,808.42h-11.25a8.27,8.27,0,0,0-8.35,7.48,17.9,17.9,0,0,0,1.61,7.92c5.35,13.06,30.52,12.86,33,2.22,1.4-5.91-2-10.68-5.23-13.76A14.28,14.28,0,0,0,1300.43,808.42Z" transform="translate(-401.82 -205.6)"/><path class="cls-19" d="M1248.6,867.05h112.8c-1.37-14.39-12.17-34.81-14.35-39.25-5.75,1.47-11.91-2.23-16-5.52a11.1,11.1,0,0,0-16.23,2.32,1.13,1.13,0,0,0-.12.21c-2.27-1.84-5.85-2.89-9.77-3.45a46.24,46.24,0,0,0-35.72,10.32c-8,6.6-16.78,15.83-19.22,26.07A48.64,48.64,0,0,0,1248.6,867.05Z" transform="translate(-401.82 -205.6)"/><path class="cls-18" d="M1253.89,879.28h104.24c3-2.56,3.78-7.06,3.27-12.39H1248.6C1248.1,878.2,1253.89,879.28,1253.89,879.28Z" transform="translate(-401.82 -205.6)"/><path class="cls-1" d="M1314.47,825.08s-26.74,25.13-49.08,25.13c-1.85,0-5,.14-12.6.14" transform="translate(-401.82 -205.6)"/><path class="cls-1" d="M1274.84,827.55c11.71-4.15,33.17-.67,35.53,1.11" transform="translate(-401.82 -205.6)"/><path class="cls-1" d="M1267.3,833.15c11.49-4.59,33.82-.78,36.23,1.06" transform="translate(-401.82 -205.6)"/><path class="cls-1" d="M1261.53,838.61c12-3.4,31.62-.38,33.87,1.33" transform="translate(-401.82 -205.6)"/><path class="cls-1" d="M1257,843.88c11.84-2,27-.4,28.94,1.08" transform="translate(-401.82 -205.6)"/><rect class="cls-20" x="1298.3" y="842.94" width="49.6" height="11.13" rx="2.74" transform="translate(2244.38 1491.41) rotate(-180)"/><rect class="cls-20" x="1298.3" y="842.94" width="49.6" height="11.13" rx="2.74" transform="translate(2244.38 1491.41) rotate(-180)"/><path class="cls-7" d="M1236.54,509.41a4.67,4.67,0,0,1-3.21-1.57,6.3,6.3,0,0,1-1.86-4.43l11.71-50.1c.26-1.43.54-3,.83-4.6,1.62-8.86,3.63-19.88,4.24-27.41,3.06-37.77,19.4-60.15,46-63,24.6,1.69,39.19,6,45.84,13.69,6.16,7.09,5.47,16.76,4.67,28-.29,4.22-.61,8.58-.61,13.22,0,.62,2,61.47,2.47,89.64a5.58,5.58,0,0,1-1.62,4.06,5.73,5.73,0,0,1-4,1.7,5.82,5.82,0,0,1-1.37-.16c-26.65-6.53-46.7-9.57-63.09-9.57-16.82,0-29.31,3.26-38.16,9.95A3,3,0,0,1,1236.54,509.41Z" transform="translate(-401.82 -205.6)"/><path d="M1294.25,358.7c24.52,1.69,39,6,45.55,13.54,6,7,5.37,16.56,4.58,27.67-.3,4.23-.61,8.6-.61,13.27,0,.62,2,61.46,2.47,89.63a5.22,5.22,0,0,1-1.51,3.76,5.29,5.29,0,0,1-3.74,1.58,5,5,0,0,1-1.27-.16c-26.68-6.53-46.76-9.57-63.19-9.57-16.92,0-29.48,3.28-38.41,10a2.58,2.58,0,0,1-1.58.54,4.24,4.24,0,0,1-2.91-1.44,5.94,5.94,0,0,1-1.75-4.05l11.71-50.14c.25-1.41.54-2.95.83-4.58,1.62-8.87,3.63-19.9,4.24-27.45,3-37.51,19.23-59.75,45.59-62.63m5.93-1.15H1289c1.81.09,3.55.2,5.25.31a57.58,57.58,0,0,1,5.94-.31Zm-5.94.31c-25.6,2.76-43.2,23.77-46.4,63.4-.73,8.93-3.49,23.13-5.06,31.95l-11.73,50.19c-.08,3.17,2.73,6.42,5.49,6.42a3.44,3.44,0,0,0,2.08-.71c9.28-7,22.33-9.86,37.91-9.86,18.2,0,39.86,3.89,63,9.55a6.07,6.07,0,0,0,7.54-6c-.44-28.51-2.47-89.64-2.47-89.64,0-29.92,13.15-50.94-50.36-55.3Z" transform="translate(-401.82 -205.6)"/><path class="cls-21" d="M1264,368.43l3.73-1.8,6.62,5.74s-7.86,4.33-9.14,19.67l-15.6-2.63,2.75-10.08Z" transform="translate(-401.82 -205.6)"/><path class="cls-7" d="M1339.32,409.54l-1.36-1.68-6.18-36.45-8.53-1.46-27.68,10s-3.28,28-1.64,29.61,33.4,4.58,33.4,4.58Z" transform="translate(-401.82 -205.6)"/><path class="cls-4" d="M1247.84,349.64l22.71,22.73s-6.17,9.38,0,12,29.69,3.24,45.34-17.36c-10.63-17-20.25-39.41-20.25-39.41Z" transform="translate(-401.82 -205.6)"/><path class="cls-5" d="M1260.39,362.22c-1.08,0-2.16,0-3.22-.08a70.45,70.45,0,0,1-36.53-12.06,69,69,0,0,1-6.52-4.94,72,72,0,0,1-18.59-24.64c-.27-.57-.52-1.15-.76-1.73a71,71,0,0,1-5-18.52c-.15-1.2-.28-2.45-.39-3.83-.13-1.88-.21-3.73-.21-5.48q0-.78,0-1.56a71.28,71.28,0,0,1,141.73-9.17,2.19,2.19,0,0,1,0,.31l0,.16a74.44,74.44,0,0,1,.69,7.83c0,.8,0,1.62,0,2.43,0,1.21,0,2.44-.09,3.76-.1,1.89-.27,3.78-.52,5.64-.13,1-.29,2-.46,3-.14.79-.29,1.56-.46,2.34a70,70,0,0,1-4.48,13.94,71.57,71.57,0,0,1-33,34.85l-.22.12h0a70.4,70.4,0,0,1-32.09,7.62Z" transform="translate(-401.82 -205.6)"/><path d="M1260.42,220.07a70.87,70.87,0,0,1,70.07,60.25,2.51,2.51,0,0,1,0,.27l0,.15a70.94,70.94,0,0,1,.69,7.78c0,.9,0,1.69,0,2.42,0,1.2,0,2.43-.1,3.74-.09,1.88-.27,3.76-.51,5.6-.13,1-.28,2-.46,3-.15.85-.3,1.61-.45,2.32a69.81,69.81,0,0,1-4.46,13.86,71.11,71.11,0,0,1-32.77,34.65l-.38.21a70.23,70.23,0,0,1-31.77,7.48c-1.07,0-2.15,0-3.2-.07a70.53,70.53,0,0,1-27-6.69,69.21,69.21,0,0,1-9.3-5.31,66.38,66.38,0,0,1-6.48-4.9,71.79,71.79,0,0,1-18.49-24.5c-.3-.67-.54-1.21-.75-1.73a70.41,70.41,0,0,1-5-18.41c-.15-1.17-.28-2.42-.38-3.8-.14-1.87-.21-3.7-.21-5.45,0-.51,0-1,0-1.55a70.88,70.88,0,0,1,70.84-69.32m0-.83a71.71,71.71,0,0,0-71.68,70.13c0,.52,0,1.05,0,1.57,0,1.85.07,3.69.21,5.51.1,1.29.22,2.57.39,3.85a71.4,71.4,0,0,0,5.06,18.62c.25.59.5,1.17.77,1.75a72.14,72.14,0,0,0,18.7,24.79,74,74,0,0,0,16,10.33,71.32,71.32,0,0,0,27.33,6.77c1.07.05,2.15.07,3.24.07h0a71.27,71.27,0,0,0,32.5-7.77h0a71.93,71.93,0,0,0,33.15-35.06,70,70,0,0,0,4.51-14c.17-.78.31-1.56.46-2.35.17-1,.33-2,.46-3,.25-1.87.42-3.75.52-5.66h0c.06-1.25.1-2.51.1-3.78,0-.81,0-1.64,0-2.44a72.78,72.78,0,0,0-.69-7.88c0-.16-.05-.31-.08-.47a71.69,71.69,0,0,0-70.88-60.91Z" transform="translate(-401.82 -205.6)"/><path class="cls-1" d="M1240.41,286.18c-10.57,4.53-10.57,16.61,0,13.59" transform="translate(-401.82 -205.6)"/><line class="cls-1" x1="808.1" y1="77.79" x2="835.27" y2="77.79"/><line class="cls-1" x1="817.15" y1="85.33" x2="817.15" y2="77.79"/><polyline class="cls-1" points="875.72 77.79 844.77 77.79 844.77 70.76"/><line class="cls-1" x1="853.83" y1="86.84" x2="853.83" y2="77.79"/><path class="cls-1" d="M1240.41,312.82c0,4.53-4.53,6-4.53,7.55s1.51,1.51,7.55,1.51" transform="translate(-401.82 -205.6)"/><line class="cls-1" x1="836.06" y1="116.28" x2="841.61" y2="123.83"/><path class="cls-22" d="M1224,320.14a2.79,2.79,0,0,1-1.52-5.13l12.83-8.3a2.79,2.79,0,1,1,3,4.68l-12.83,8.3A2.72,2.72,0,0,1,1224,320.14Z" transform="translate(-401.82 -205.6)"/><path class="cls-22" d="M1257.76,320.14a2.74,2.74,0,0,1-1.51-.45l-12.83-8.3a2.79,2.79,0,0,1,3-4.68l12.83,8.3a2.79,2.79,0,0,1-1.52,5.13Z" transform="translate(-401.82 -205.6)"/><circle class="cls-23" cx="803.19" cy="107.22" r="1.66"/><path class="cls-22" d="M1190.71,274.14c-1.7-23.1,8.72-53.64,57.35-66.59,23.45-6.25,50.41,7.57,62.86,24.54,7.48-6.38,29.62,17.53,22.63,46.41-5.41,22.38-17.25,25.78-22.07,25s-13.5-1.7-12.2-23c1.39-22.81-3.85-35.59-17-39.44-25.11-7.34-48,22.27-71.76-1.54C1194,260.66,1190.71,274.14,1190.71,274.14Z" transform="translate(-401.82 -205.6)"/><path class="cls-24" d="M1322.46,326.8a22.72,22.72,0,0,0,4.8-.58,27.18,27.18,0,0,0,4.51-1.45c8-3.38,14.88-10.64,14.82-18.81a20.37,20.37,0,0,0-20.51-20.23h-.62a20.32,20.32,0,0,0-16.59,9.66,12.56,12.56,0,0,0-2.42,6.77" transform="translate(-401.82 -205.6)"/><polyline class="cls-1" points="932.05 91.85 919.6 101.09 935.02 103.9"/><path class="cls-22" d="M1292.37,354.32h0a71.36,71.36,0,0,1-32.56,7.54h0c-1.09,0-2.17,0-3.24-.1a71.22,71.22,0,0,1-36.65-12.4c3-3.09,6.95-7.74,9.76-9.94,4.59-4.16,8.52-6,13.85-6a16.89,16.89,0,0,1,8.55,2.39,18.46,18.46,0,0,1,5.22,4.64,32.73,32.73,0,0,0,4,4.44A38.49,38.49,0,0,0,1292.37,354.32Z" transform="translate(-401.82 -205.6)"/><path class="cls-25" d="M1210.76,239.67c-5.86-7.67-8.4-20.65-.6-28-2.05,5.59,10.37,26.54,21.72,26.74" transform="translate(-401.82 -205.6)"/><path class="cls-21" d="M1296.31,389.38l1.63-12.1,4.54-5.9s5-3.06,6.06-2.95,6.86,1.87,6.86,1.87,3.14,17.57,3.14,17.92-9.07,5.38-9.42,5.25S1296.31,389.38,1296.31,389.38Z" transform="translate(-401.82 -205.6)"/><path class="cls-16" d="M1297.56,385.65s-.78-9.89,6.52-13.28c7-3.27,3.39,9,8.93,10.92,4.45,1.55,13.08-10.56,10.74-15.67-9.33-11-13.68-11.9-13.68-11.9s4.75,6.15,1.59,8.92-15.37,7.82-16.39,18c-.91,9.14,9.64,153.31,14.4,181.88.84,5,6.74,4.57,9.58,4.33,13.45-1.15,49.08-5.71,53.3-22,5.22-20.13-21.86-138.39-21.86-138.39s19.43.42,39.76,17.87a.94.94,0,0,0,1.52-.44c4.6-14.65,11.68-23.36,25.45-24.67a.48.48,0,0,0,.22-.87c-18.92-13.83-34.43-27.5-79.08-34.71,0,0-12.42-6.88-22.16-5.78" transform="translate(-401.82 -205.6)"/><path class="cls-16" d="M1267.85,379.33c-3.53,5.83-16.07,161.37-18,185.19a4.73,4.73,0,0,1-3.47,4.23c-4.42,1.18-12.63,1.83-19.94-6-10.62-11.47,24.14-157.11,24.14-157.11l6.16-27.64" transform="translate(-401.82 -205.6)"/><polygon class="cls-21" points="857.07 168.32 848.44 173.73 847.02 186.44 854.15 191.21 858.29 187.87 858.6 180.04 857.07 168.32"/><path class="cls-16" d="M1264.08,365.9c-8.4,1.66-11.83,19.17-10.47,19.16,1.57,0,1.26-10.16,6.38-9.58,4.75.54,4.46,11.19,4.46,11.19" transform="translate(-401.82 -205.6)"/><path class="cls-26" d="M1270.55,372.37c-2.51,3-3.9,11.74-4.34,14.8" transform="translate(-401.82 -205.6)"/><path class="cls-5" d="M1367.83,524a7.19,7.19,0,0,1-4.64-1.7l-28.79-24.38a7.19,7.19,0,0,1,9.29-11l28.8,24.39a7.19,7.19,0,0,1-4.66,12.67Z" transform="translate(-401.82 -205.6)"/><path d="M1339.05,485.62h0a6.83,6.83,0,0,1,4.38,1.6l28.79,24.38a6.78,6.78,0,1,1-8.76,10.34l-28.79-24.38a6.88,6.88,0,0,1-2-2.79,6.77,6.77,0,0,1,6.35-9.15m0-.83a7.6,7.6,0,0,0-4.92,13.41l28.79,24.38a7.61,7.61,0,1,0,9.83-11.61L1344,486.59a7.57,7.57,0,0,0-4.91-1.8Z" transform="translate(-401.82 -205.6)"/><path class="cls-5" d="M1354.77,545.94a17.44,17.44,0,0,1-8.91-32.44,204.61,204.61,0,0,0,22.66-15.44c25-19.84,35.36-40.11,30.89-60.23-.08-.33-.14-.62-.19-.86-.73-3.76-3.14-7.55-7.14-11.29,5-15.8,12.46-23.09,25-24.3,8.79,8.61,14.3,18.3,16.37,28.82,3.39,17.11.67,35.22-7.87,52.39-10.09,20.3-27.89,38.89-52.89,55.28-3,1.94-6,3.83-9,5.62A17.34,17.34,0,0,1,1354.77,545.94Z" transform="translate(-401.82 -205.6)"/><path d="M1416.92,401.81c8.65,8.51,14.07,18.09,16.12,28.48,3.37,17,.67,35-7.83,52.11-10.06,20.24-27.81,38.78-52.74,55.12-3,1.94-6,3.83-9,5.62a17,17,0,1,1-17.38-29.28,204.15,204.15,0,0,0,22.71-15.48c25.11-19.94,35.55-40.35,31-60.64l-.18-.85c-.74-3.79-3.12-7.6-7.07-11.33,4.89-15.38,12.2-22.5,24.36-23.75m.3-.87h-.1c-13.77,1.31-20.85,10-25.45,24.67a.75.75,0,0,1-.08.18c3.88,3.56,6.46,7.36,7.23,11.25,1,5,8.78,29.43-30.56,60.68a203.79,203.79,0,0,1-22.62,15.42,17.85,17.85,0,0,0,18.24,30.7q4.69-2.79,9-5.64c53.91-35.32,67.2-76.48,60.94-108.09-2.24-11.32-8.26-21-16.64-29.18Z" transform="translate(-401.82 -205.6)"/><circle class="cls-27" cx="952.41" cy="319.64" r="20.66"/><path class="cls-5" d="M1317,537.81a7.21,7.21,0,0,1-6.28-3.68,7.13,7.13,0,0,1-.65-5.46,7.22,7.22,0,0,1,3.41-4.33l32.92-18.42a7.08,7.08,0,0,1,3.51-.92,7.21,7.21,0,0,1,6.28,3.68,7.19,7.19,0,0,1-2.77,9.78l-32.91,18.43A7.21,7.21,0,0,1,1317,537.81Z" transform="translate(-401.82 -205.6)"/><path d="M1349.87,505.41h0a6.77,6.77,0,0,1,5.92,3.47,6.77,6.77,0,0,1-2.6,9.22l-32.92,18.43a6.73,6.73,0,0,1-3.3.87,6.78,6.78,0,0,1-3.32-12.69l32.92-18.43a6.73,6.73,0,0,1,3.3-.87m0-.83a7.53,7.53,0,0,0-3.7,1L1313.25,524a7.61,7.61,0,0,0,3.72,14.25,7.67,7.67,0,0,0,3.71-1l32.92-18.43a7.61,7.61,0,0,0-3.73-14.25Z" transform="translate(-401.82 -205.6)"/><path class="cls-5" d="M1339.19,556.5a7.32,7.32,0,0,1-3.58-13.72l23-12.9a7.32,7.32,0,1,1,7.16,12.78l-23,12.9A7.35,7.35,0,0,1,1339.19,556.5Z" transform="translate(-401.82 -205.6)"/><path d="M1362.18,529.36h0a6.91,6.91,0,0,1,3.38,12.94l-23,12.9a6.91,6.91,0,1,1-6.75-12.06l23-12.9a7,7,0,0,1,3.37-.88m0-.83a7.67,7.67,0,0,0-3.77,1l-23,12.9a7.74,7.74,0,0,0,7.56,13.51l23-12.9a7.74,7.74,0,0,0-3.79-14.5Z" transform="translate(-401.82 -205.6)"/><path class="cls-5" d="M1320.91,551.28a7.32,7.32,0,0,1-3.58-13.72L1361.24,513a7.32,7.32,0,0,1,7.15,12.78l-43.91,24.53A7.32,7.32,0,0,1,1320.91,551.28Z" transform="translate(-401.82 -205.6)"/><path d="M1364.81,512.51h0a6.91,6.91,0,0,1,6.65,8.79,6.83,6.83,0,0,1-3.27,4.15L1324.28,550a6.91,6.91,0,1,1-6.75-12.06l43.91-24.53a7,7,0,0,1,3.37-.88m0-.83a7.74,7.74,0,0,0-3.78,1l-43.91,24.53a7.74,7.74,0,1,0,7.56,13.5l43.91-24.52a7.74,7.74,0,0,0-3.78-14.5Z" transform="translate(-401.82 -205.6)"/><path class="cls-5" d="M1363.68,542.79c4.1-2.41,9.79-6,9.79-6l9.15-10.64-1.72-9.89-17.61-12.22-2.94-2.19-3.85-1-17.32,9.65S1364.09,523,1363.68,542.79Z" transform="translate(-401.82 -205.6)"/><path class="cls-21" d="M1338.21,507c2.88,5.44,20.5,34.26,29.47,37.79-9,6.4-31.71,19.21-39.4,18.57s-17.61-9.93-17.61-9.93l-1.6-11.85-1.28-17Z" transform="translate(-401.82 -205.6)"/><path class="cls-28" d="M1365.83,544.26c-4.59-2.72-24.8-30.23-27.35-36.35" transform="translate(-401.82 -205.6)"/><path class="cls-16" d="M1323.75,367.62c2.33,5.11-6.29,17.22-10.74,15.67s-3-9.31-5.63-11.1l9-12.29A73.3,73.3,0,0,1,1323.75,367.62Z" transform="translate(-401.82 -205.6)"/><polygon class="cls-21" points="904.68 165.03 905.38 165.84 906.43 166.72 913.73 165.55 914.61 154.92 913.67 154.22 911.86 157.26 909.53 160.3 904.68 165.03"/><line class="cls-29" x1="756.05" y1="213.91" x2="817.02" y2="219.43"/><line class="cls-29" x1="756.05" y1="218.3" x2="817.02" y2="223.81"/><line class="cls-29" x1="756.05" y1="222.51" x2="817.02" y2="228.03"/><line class="cls-29" x1="756.05" y1="226.9" x2="817.02" y2="232.41"/><line class="cls-29" x1="756.05" y1="230.95" x2="817.02" y2="236.46"/><line class="cls-29" x1="756.05" y1="235.33" x2="817.02" y2="240.85"/><line class="cls-29" x1="756.05" y1="239.55" x2="817.02" y2="245.06"/><line class="cls-29" x1="756.05" y1="243.93" x2="817.02" y2="249.45"/><line class="cls-29" x1="756.05" y1="248.93" x2="817.02" y2="254.45"/><line class="cls-29" x1="756.05" y1="253.32" x2="817.02" y2="258.83"/><line class="cls-29" x1="756.05" y1="257.53" x2="817.02" y2="263.05"/><line class="cls-29" x1="756.05" y1="261.92" x2="817.02" y2="267.43"/><line class="cls-29" x1="756.05" y1="265.97" x2="817.02" y2="271.48"/><line class="cls-29" x1="756.05" y1="270.35" x2="817.02" y2="275.87"/><line class="cls-29" x1="756.05" y1="274.57" x2="817.02" y2="280.08"/><line class="cls-29" x1="756.05" y1="278.95" x2="817.02" y2="284.47"/><line class="cls-29" x1="756.05" y1="306.68" x2="817.02" y2="312.2"/><line class="cls-29" x1="756.05" y1="311.07" x2="817.02" y2="316.58"/><line class="cls-29" x1="756.05" y1="315.28" x2="817.02" y2="320.8"/><line class="cls-29" x1="756.05" y1="319.67" x2="817.02" y2="325.18"/><line class="cls-29" x1="756.05" y1="323.72" x2="817.02" y2="329.23"/><line class="cls-29" x1="756.05" y1="328.1" x2="817.02" y2="333.62"/><line class="cls-29" x1="756.05" y1="332.32" x2="817.02" y2="337.83"/><line class="cls-29" x1="756.05" y1="336.71" x2="817.02" y2="342.22"/><line class="cls-29" x1="756.05" y1="341.7" x2="817.02" y2="347.22"/><line class="cls-29" x1="756.05" y1="346.09" x2="817.02" y2="351.6"/><line class="cls-29" x1="756.05" y1="350.3" x2="817.02" y2="355.82"/><line class="cls-29" x1="756.05" y1="354.69" x2="817.02" y2="360.2"/><line class="cls-29" x1="756.05" y1="358.74" x2="817.02" y2="364.25"/><line class="cls-29" x1="756.05" y1="363.12" x2="817.02" y2="368.64"/><line class="cls-29" x1="756.05" y1="367.34" x2="817.02" y2="372.85"/><line class="cls-29" x1="756.05" y1="371.72" x2="817.02" y2="377.24"/><line class="cls-29" x1="756.05" y1="452.3" x2="817.02" y2="457.81"/><line class="cls-29" x1="756.05" y1="456.68" x2="817.02" y2="462.2"/><line class="cls-29" x1="756.05" y1="460.9" x2="817.02" y2="466.41"/><line class="cls-29" x1="756.05" y1="465.28" x2="817.02" y2="470.8"/><line class="cls-29" x1="756.05" y1="469.33" x2="817.02" y2="474.85"/><line class="cls-29" x1="756.05" y1="473.72" x2="817.02" y2="479.23"/><line class="cls-29" x1="756.05" y1="477.93" x2="817.02" y2="483.45"/><line class="cls-29" x1="756.05" y1="482.32" x2="817.02" y2="487.83"/><line class="cls-29" x1="756.05" y1="487.32" x2="817.02" y2="492.83"/><line class="cls-29" x1="756.05" y1="491.7" x2="817.02" y2="497.22"/><line class="cls-29" x1="756.05" y1="495.92" x2="817.02" y2="501.43"/><line class="cls-29" x1="756.05" y1="500.3" x2="817.02" y2="505.82"/><line class="cls-29" x1="756.05" y1="504.35" x2="817.02" y2="509.87"/><line class="cls-29" x1="756.05" y1="381.79" x2="817.02" y2="387.31"/><line class="cls-29" x1="756.05" y1="386.18" x2="817.02" y2="391.69"/><line class="cls-29" x1="756.05" y1="390.4" x2="817.02" y2="395.91"/><line class="cls-29" x1="756.05" y1="394.78" x2="817.02" y2="400.3"/><line class="cls-29" x1="756.05" y1="398.83" x2="817.02" y2="404.34"/><line class="cls-29" x1="756.05" y1="403.21" x2="817.02" y2="408.73"/><line class="cls-29" x1="756.05" y1="407.43" x2="817.02" y2="412.95"/><line class="cls-29" x1="756.05" y1="411.82" x2="817.02" y2="417.33"/><line class="cls-29" x1="756.05" y1="416.81" x2="817.02" y2="422.33"/><line class="cls-29" x1="756.05" y1="421.2" x2="817.02" y2="426.71"/><line class="cls-29" x1="756.05" y1="425.42" x2="817.02" y2="430.93"/><line class="cls-29" x1="756.05" y1="429.8" x2="817.02" y2="435.31"/><line class="cls-29" x1="756.05" y1="433.85" x2="817.02" y2="439.36"/><line class="cls-29" x1="756.05" y1="438.23" x2="817.02" y2="443.75"/><line class="cls-29" x1="756.05" y1="442.45" x2="817.02" y2="447.96"/><line class="cls-29" x1="756.05" y1="446.84" x2="817.02" y2="452.35"/><path class="cls-11" d="M1226.37,694.91c.85,20.43-2.52,49.85-17,49.85-14.84,0-15.44-24.92-15.44-24.92h-97.87s-2.56,26.5,23,26.5h89.36" transform="translate(-401.82 -205.6)"/><polygon class="cls-7" points="760.22 210.3 755.53 507.04 747.92 495.92 753.19 281.71 754.36 206.79 760.22 210.3"/><path class="cls-7" d="M1216.72,421s0,290.54-5.4,298.64,10.79,4,10.79,4l1.35-20.24L1220.76,466V426.82l-.45-8.55Z" transform="translate(-401.82 -205.6)"/><polygon class="cls-7" points="795.27 304.89 795.27 325.41 818.36 327.46 817.33 302.84 795.27 304.89"/><polygon class="cls-7" points="755.32 379.28 755.32 399.81 778.4 401.86 777.38 377.23 755.32 379.28"/><polygon class="cls-7" points="776.54 235.78 776.67 258.59 799.76 260.65 799.84 238.05 776.54 235.78"/><polygon class="cls-7" points="800.55 213.43 800.64 229.74 817.14 231.21 817.2 215.05 800.55 213.43"/><polygon class="cls-7" points="756.62 204.52 756.71 220.84 773.21 222.3 773.27 206.15 756.62 204.52"/><polygon class="cls-7" points="782.61 439.94 782.74 462.76 805.83 464.81 805.91 442.22 782.61 439.94"/><polygon class="cls-7" points="752.82 482.98 752.94 505.8 776.03 507.86 776.11 485.26 752.82 482.98"/><path class="cls-30" d="M912.47,812.15c-7,0-11.5,3.76-11.5,6.82V828l7.67,4.27s8.37-3.87,8.53-4.27,2.2-12.95,2.2-12.95Z" transform="translate(-401.82 -205.6)"/><rect class="cls-7" x="553.27" y="581.55" width="38.26" height="44.23"/><path d="M992.94,787.57V831H955.51v-43.4h37.43m.83-.83h-39.1V831.8h39.1V786.74Z" transform="translate(-401.82 -205.6)"/><rect class="cls-7" x="508.56" y="581.55" width="38.26" height="44.23"/><path d="M948.23,787.57V831H910.8v-43.4h37.43m.83-.83H910V831.8h39.1V786.74Z" transform="translate(-401.82 -205.6)"/><path class="cls-31" d="M877.73,523.17a7.19,7.19,0,0,1-4.65-12.67l28.79-24.38a7.19,7.19,0,1,1,9.29,11l-28.79,24.38a7.19,7.19,0,0,1-4.64,1.7Z" transform="translate(-401.82 -205.6)"/><path d="M906.51,484.83a6.77,6.77,0,0,1,6.35,9.15,6.63,6.63,0,0,1-2,2.79L882.1,521.15a6.78,6.78,0,0,1-8.76-10.34l28.8-24.38a6.78,6.78,0,0,1,4.37-1.6m0-.83a7.57,7.57,0,0,0-4.91,1.8l-28.79,24.38a7.61,7.61,0,0,0,9.83,11.61l28.79-24.38A7.61,7.61,0,0,0,906.51,484Z" transform="translate(-401.82 -205.6)"/><path class="cls-7" d="M955.77,419.87c-3.31-15.22-11.16-25.19-23.34-29.67a188,188,0,0,1,47.31-17.73,18.89,18.89,0,0,1,4.16-.47A18.48,18.48,0,0,1,988,408.5,155.15,155.15,0,0,0,955.77,419.87Z" transform="translate(-401.82 -205.6)"/><path d="M983.9,372.41a18.08,18.08,0,0,1,4,35.69,156,156,0,0,0-31.87,11.16c-3.33-14.72-10.94-24.51-22.64-29.13a187.6,187.6,0,0,1,46.41-17.25,18.09,18.09,0,0,1,4.07-.47m0-.83a18.74,18.74,0,0,0-4.25.49,187.83,187.83,0,0,0-48.23,18.21c16.61,5.66,21.94,20.07,24.06,30.19a153.42,153.42,0,0,1,32.63-11.56,18.91,18.91,0,0,0-4.21-37.33Z" transform="translate(-401.82 -205.6)"/><line class="cls-32" x1="527.4" y1="294.27" x2="527.4" y2="589.36"/><path class="cls-33" d="M927.05,804C911.12,804,895,800.52,895,793.9l4.33-295.45c0-13.75,13.41-24.94,29.9-24.94s29.9,11.19,29.9,24.94V793.9C959.12,800.52,943,804,927.05,804Z" transform="translate(-401.82 -205.6)"/><path d="M929.22,473.92c16.26,0,29.48,11,29.48,24.53V793.9c0,5.52-13.6,9.67-31.65,9.67s-31.65-4.15-31.65-9.66l4.33-295.46c0-13.52,13.23-24.53,29.49-24.53m0-.83c-16.74,0-30.32,11.35-30.32,25.36L894.57,793.9c0,7,16.24,10.5,32.48,10.5s32.48-3.5,32.48-10.5V498.45c0-14-13.57-25.36-30.31-25.36Z" transform="translate(-401.82 -205.6)"/><line class="cls-32" x1="580.4" y1="294.27" x2="580.4" y2="593.5"/><path class="cls-33" d="M983.94,800.09c-12.61,0-25.36-3.42-25.36-10v-292c0-13.59,10.6-24.64,23.64-24.64s23.65,11.05,23.65,24.64l3.43,292C1009.3,796.67,996.54,800.09,983.94,800.09Z" transform="translate(-401.82 -205.6)"/><path d="M982.22,473.92c12.81,0,23.23,10.87,23.23,24.24l3.44,292c0,6.27-12.55,9.55-24.95,9.55s-25-3.28-25-9.55v-292c0-13.36,10.42-24.23,23.23-24.23m0-.83c-13.29,0-24.06,11.22-24.06,25.06v292c0,6.92,12.89,10.38,25.78,10.38s25.78-3.46,25.78-10.38l-3.44-292c0-13.84-10.77-25.06-24.06-25.06Z" transform="translate(-401.82 -205.6)"/><ellipse class="cls-33" cx="554.03" cy="305.13" rx="52.54" ry="32.69"/><path d="M955.85,478.46c28.75,0,52.13,14.48,52.13,32.28S984.6,543,955.85,543s-52.13-14.48-52.13-32.27,23.39-32.28,52.13-32.28m0-.83c-29.25,0-53,14.82-53,33.11s23.71,33.1,53,33.1,53-14.82,53-33.1-23.71-33.11-53-33.11Z" transform="translate(-401.82 -205.6)"/><polygon class="cls-33" points="505.18 330.34 505.18 308.02 555.98 324 555.98 362.78 505.18 330.34"/><polygon class="cls-33" points="605.32 330.34 605.32 308.02 571.43 320.13 571.43 358.91 605.32 330.34"/><path class="cls-30" d="M985.94,807.64h11.25a8.25,8.25,0,0,1,8.34,7.47,17.73,17.73,0,0,1-1.6,7.92c-5.35,13.06-30.52,12.87-33,2.22-1.4-5.91,2-10.68,5.23-13.76A14.27,14.27,0,0,1,985.94,807.64Z" transform="translate(-401.82 -205.6)"/><path class="cls-34" d="M1037.77,866.26H925c1.36-14.39,12.17-34.81,14.35-39.24,5.75,1.46,11.91-2.24,16-5.53a11.1,11.1,0,0,1,16.23,2.32,2.25,2.25,0,0,1,.12.21c2.27-1.84,5.84-2.88,9.77-3.45a46.21,46.21,0,0,1,35.71,10.32c8,6.6,16.79,15.83,19.22,26.07A48.76,48.76,0,0,1,1037.77,866.26Z" transform="translate(-401.82 -205.6)"/><path class="cls-30" d="M1032.47,878.5H928.23c-3-2.57-3.77-7.07-3.26-12.4h112.8C1038.27,877.41,1032.47,878.5,1032.47,878.5Z" transform="translate(-401.82 -205.6)"/><path class="cls-1" d="M971.9,824.29s26.74,25.13,49.08,25.13c1.85,0,5,.14,12.6.14" transform="translate(-401.82 -205.6)"/><path class="cls-1" d="M1011.53,826.76c-11.71-4.15-33.17-.67-35.53,1.11" transform="translate(-401.82 -205.6)"/><path class="cls-1" d="M1019.07,832.36c-11.49-4.59-33.82-.77-36.23,1.06" transform="translate(-401.82 -205.6)"/><path class="cls-1" d="M1024.83,837.82c-11.95-3.4-31.61-.38-33.86,1.33" transform="translate(-401.82 -205.6)"/><path class="cls-1" d="M1029.38,843.09c-11.84-2-27-.4-28.94,1.08" transform="translate(-401.82 -205.6)"/><rect class="cls-20" x="536.65" y="636.55" width="49.6" height="11.13" rx="2.74"/><rect class="cls-20" x="536.65" y="636.55" width="49.6" height="11.13" rx="2.74"/><path class="cls-30" d="M942.42,807.64h11.25a8.25,8.25,0,0,1,8.34,7.47,17.87,17.87,0,0,1-1.6,7.92c-5.36,13.06-30.52,12.87-33,2.22-1.39-5.91,2-10.68,5.24-13.76A14.25,14.25,0,0,1,942.42,807.64Z" transform="translate(-401.82 -205.6)"/><path class="cls-34" d="M994.24,866.26H881.45c1.36-14.39,12.16-34.81,14.34-39.24,5.76,1.46,11.92-2.24,16-5.53A11.09,11.09,0,0,1,928,823.81a2.39,2.39,0,0,1,.13.21c2.27-1.84,5.84-2.88,9.77-3.45a46.21,46.21,0,0,1,35.71,10.32c8,6.6,16.79,15.83,19.22,26.07A48.64,48.64,0,0,1,994.24,866.26Z" transform="translate(-401.82 -205.6)"/><path class="cls-30" d="M989,878.5H884.71c-3-2.57-3.77-7.07-3.26-12.4H994.24C994.74,877.41,989,878.5,989,878.5Z" transform="translate(-401.82 -205.6)"/><path class="cls-1" d="M928.37,824.29s26.75,25.13,49.09,25.13c1.85,0,5,.14,12.6.14" transform="translate(-401.82 -205.6)"/><path class="cls-1" d="M968,826.76c-11.71-4.15-33.17-.67-35.53,1.11" transform="translate(-401.82 -205.6)"/><path class="cls-1" d="M975.55,832.36c-11.49-4.59-33.83-.77-36.24,1.06" transform="translate(-401.82 -205.6)"/><path class="cls-1" d="M981.31,837.82c-11.95-3.4-31.62-.38-33.86,1.33" transform="translate(-401.82 -205.6)"/><path class="cls-1" d="M985.85,843.09c-11.83-2-27-.4-28.94,1.08" transform="translate(-401.82 -205.6)"/><rect class="cls-20" x="493.12" y="636.55" width="49.6" height="11.13" rx="2.74"/><rect class="cls-30" x="493.12" y="636.55" width="49.6" height="11.13" rx="2.74"/><path class="cls-7" d="M1009,508.62a3,3,0,0,1-1.83-.63C998.34,501.3,985.86,498,969,498c-16.4,0-36.45,3-63.1,9.57a5.76,5.76,0,0,1-1.37.16h0a5.73,5.73,0,0,1-4-1.7,5.61,5.61,0,0,1-1.62-4.06c.43-28.17,2.45-89,2.47-89.63,0-4.65-.31-9-.61-13.23-.8-11.21-1.49-20.88,4.67-28,6.65-7.65,21.24-12,45.91-13.69,26.56,2.87,42.9,25.25,46,63,.61,7.53,2.62,18.55,4.24,27.41.29,1.64.58,3.18.83,4.58l11.73,50.2a6.37,6.37,0,0,1-1.88,4.36A4.7,4.7,0,0,1,1009,508.62Z" transform="translate(-401.82 -205.6)"/><path d="M951.31,357.91c26.36,2.88,42.55,25.12,45.59,62.63.61,7.55,2.62,18.58,4.24,27.45q.45,2.44.84,4.62l11.7,50.1a6,6,0,0,1-1.75,4.06,4.27,4.27,0,0,1-2.91,1.43,2.58,2.58,0,0,1-1.58-.54c-8.93-6.75-21.49-10-38.4-10-16.44,0-36.52,3-63.2,9.58a5.51,5.51,0,0,1-1.27.15,5.3,5.3,0,0,1-3.74-1.58,5.16,5.16,0,0,1-1.5-3.76c.43-28.17,2.44-89,2.46-89.65,0-4.65-.31-9-.61-13.25-.79-11.11-1.47-20.71,4.58-27.67,6.56-7.55,21-11.85,45.55-13.54m5.26-1.15H945.38a55.2,55.2,0,0,1,6,.32c1.69-.12,3.44-.22,5.24-.32Zm-5.24.32C887.82,361.43,901,382.45,901,412.37c0,0-2,61.14-2.47,89.64a6.09,6.09,0,0,0,6.08,6.18A6.29,6.29,0,0,0,906,508c23.13-5.66,44.79-9.55,63-9.55,15.57,0,28.62,2.85,37.9,9.86a3.38,3.38,0,0,0,2.08.71c2.76,0,5.57-3.25,5.49-6.42l-11.72-50.18c-1.58-8.83-4.34-23-5.06-32-3.21-39.63-20.81-60.64-46.4-63.39Z" transform="translate(-401.82 -205.6)"/><path class="cls-7" d="M993.38,386.63l-14.81,12.69-16.14-29s13.39-7.48,13-7S993.38,386.63,993.38,386.63Z" transform="translate(-401.82 -205.6)"/><path class="cls-7" d="M877.89,412.61a.36.36,0,0,1-.36-.32c-2.1-14.85-8.85-25.15-20.08-30.64a.38.38,0,0,1,0-.68,187.29,187.29,0,0,1,47.84-13.52,19,19,0,0,1,2.7-.2A18.49,18.49,0,0,1,910.65,404,155.11,155.11,0,0,0,878,412.59Z" transform="translate(-401.82 -205.6)"/><path d="M908,367.66a18.08,18.08,0,0,1,2.59,36,155.92,155.92,0,0,0-32.66,8.56c-2.12-14.93-8.92-25.31-20.22-30.86a186.72,186.72,0,0,1,47.65-13.46,18.15,18.15,0,0,1,2.64-.2m0-.83a18.52,18.52,0,0,0-2.76.21,188.91,188.91,0,0,0-48,13.55.79.79,0,0,0,0,1.43c14.32,7,18.46,20.48,19.85,30.33a.78.78,0,0,0,.77.68.75.75,0,0,0,.29-.06,154.25,154.25,0,0,1,32.53-8.53A18.9,18.9,0,0,0,908,366.83Z" transform="translate(-401.82 -205.6)"/><path class="cls-31" d="M890.49,545.39A17.38,17.38,0,0,1,881.6,543c-74.47-44.24-73.61-94-69.78-113.29,4.69-23.75,25.82-38.56,42.73-46.8.93-.47,2-.95,3.18-1.51,11.28,5,18,14.89,19.9,29.54-1.07.43-2.21.89-3.32,1.4C857.74,419.39,847.7,428,846,436.42c0,.25-.12.53-.19.87-7.1,32,25.21,58.82,53.56,75.66a17.44,17.44,0,0,1-8.92,32.44Z" transform="translate(-401.82 -205.6)"/><path d="M857.74,381.8c11,4.89,17.49,14.58,19.44,28.83-1.1.44-2.07.84-3,1.27-16.7,7.16-26.83,15.84-28.52,24.44l-.18.86c-.84,3.74-3,13.7,2.88,27.2,7.37,16.78,24.48,33.23,50.87,48.91a17,17,0,0,1-17.39,29.28c-28.36-16.85-48.61-36.28-60.2-57.75-9.72-18-13-37-9.39-55.1,4.66-23.58,25.69-38.31,42.52-46.51.88-.45,1.84-.9,3-1.43m0-.91c-1.13.51-2.26,1-3.37,1.6-21.35,10.41-38.77,25.9-43,47.09-6.6,33.3,8.51,77.21,70,113.73a17.86,17.86,0,0,0,18.24-30.72C835,474.2,845.3,442.32,846.44,436.5c1.78-9,13.26-17.5,28-23.83,1.18-.54,2.38-1,3.61-1.51-1.23-9.69-5.14-23.67-20.36-30.27Z" transform="translate(-401.82 -205.6)"/><path class="cls-7" d="M906.24,408.75l1.37-1.68,6.18-36.45,8.53-1.46,27.67,10s3.29,28,1.64,29.61-33.4,4.59-33.4,4.59Z" transform="translate(-401.82 -205.6)"/><path class="cls-35" d="M949.92,406.13H914.19V424a17.87,17.87,0,0,0,17.87,17.86h0A17.86,17.86,0,0,0,949.92,424Z" transform="translate(-401.82 -205.6)"/><line class="cls-35" x1="548.1" y1="206.55" x2="512.37" y2="206.55"/><path class="cls-31" d="M994.1,530.85l-.54,0A6.72,6.72,0,0,1,991.3,518l21.84-10.11a6.72,6.72,0,1,1,5.59,12.22l-21.84,10.11A6.71,6.71,0,0,1,994.1,530.85Z" transform="translate(-401.82 -205.6)"/><path d="M1015.93,507.72h0a6.31,6.31,0,0,1,2.63,12l-21.84,10.1a6.25,6.25,0,0,1-2.62.58l-.51,0a6.3,6.3,0,0,1-2.12-12l21.84-10.11a6.24,6.24,0,0,1,2.62-.57m0-.83a7.18,7.18,0,0,0-3,.65l-21.84,10.1a7.14,7.14,0,0,0,2.41,13.6l.57,0a7.18,7.18,0,0,0,3-.65l21.84-10.11a7.13,7.13,0,0,0-3-13.62Z" transform="translate(-401.82 -205.6)"/><path class="cls-31" d="M1011.49,550.23l-.54,0a6.72,6.72,0,0,1-2.26-12.8l11.77-5.51a6.56,6.56,0,0,1,2.79-.61,6.74,6.74,0,0,1,6.11,3.92,6.72,6.72,0,0,1-3.31,8.91l-11.76,5.51A6.79,6.79,0,0,1,1011.49,550.23Z" transform="translate(-401.82 -205.6)"/><path d="M1023.25,531.69h0a6.35,6.35,0,0,1,5.74,3.68,6.32,6.32,0,0,1-3.12,8.36l-11.75,5.51a6.31,6.31,0,0,1-2.62.57l-.51,0a6.31,6.31,0,0,1-2.12-12l11.76-5.5a6.25,6.25,0,0,1,2.62-.58m0-.83a7.18,7.18,0,0,0-3,.65L1008.52,537a7.13,7.13,0,0,0,2.4,13.6l.58,0a7.1,7.1,0,0,0,3-.65l11.77-5.51a7.14,7.14,0,0,0-3-13.62Z" transform="translate(-401.82 -205.6)"/><path class="cls-31" d="M997.34,543.43l-.55,0a6.72,6.72,0,0,1-2.26-12.81l30.55-14.11a6.56,6.56,0,0,1,2.79-.61,6.74,6.74,0,0,1,6.11,3.92,6.72,6.72,0,0,1-3.31,8.91l-30.54,14.11A6.74,6.74,0,0,1,997.34,543.43Z" transform="translate(-401.82 -205.6)"/><path d="M1027.87,516.29h0a6.32,6.32,0,0,1,5.73,3.68,6.31,6.31,0,0,1-3.1,8.36L1000,542.44a6.31,6.31,0,0,1-2.62.57,4.35,4.35,0,0,1-.51,0,6.3,6.3,0,0,1-2.12-12l30.54-14.11a6.25,6.25,0,0,1,2.62-.58m0-.83a7.11,7.11,0,0,0-3,.65l-30.54,14.11a7.13,7.13,0,0,0,2.4,13.6,5.52,5.52,0,0,0,.58,0,7,7,0,0,0,3-.65l30.54-14.1a7.14,7.14,0,0,0-3-13.63Z" transform="translate(-401.82 -205.6)"/><circle class="cls-27" cx="489.5" cy="318.86" r="20.66"/><path class="cls-31" d="M928.59,537a7.17,7.17,0,0,1-3.5-.92l-32.92-18.43a7.19,7.19,0,0,1-2.77-9.78,7.19,7.19,0,0,1,9.79-2.76l32.92,18.43a7.18,7.18,0,0,1,2.76,9.78A7.19,7.19,0,0,1,928.59,537Z" transform="translate(-401.82 -205.6)"/><path d="M895.69,504.62a6.73,6.73,0,0,1,3.3.87l32.92,18.43a6.77,6.77,0,0,1,2.6,9.22,6.8,6.8,0,0,1-5.92,3.47,6.73,6.73,0,0,1-3.3-.87l-32.92-18.43a6.77,6.77,0,0,1-2.6-9.22,6.79,6.79,0,0,1,5.92-3.47m0-.83A7.61,7.61,0,0,0,892,518l32.92,18.43a7.61,7.61,0,0,0,7.43-13.28l-32.92-18.43a7.63,7.63,0,0,0-3.7-1Z" transform="translate(-401.82 -205.6)"/><path class="cls-31" d="M906.37,555.71a7.24,7.24,0,0,1-3.57-.94l-23-12.9a7.32,7.32,0,0,1,3.58-13.71,7.34,7.34,0,0,1,3.57.93L910,542a7.33,7.33,0,0,1-3.59,13.72Z" transform="translate(-401.82 -205.6)"/><path d="M883.38,528.57a7,7,0,0,1,3.37.88l23,12.9A6.91,6.91,0,0,1,903,554.41l-23-12.9a6.9,6.9,0,0,1-2.66-9.4,7,7,0,0,1,6-3.54m0-.83a7.74,7.74,0,0,0-3.79,14.5l23,12.9a7.74,7.74,0,0,0,7.56-13.51l-23-12.9a7.67,7.67,0,0,0-3.77-1Z" transform="translate(-401.82 -205.6)"/><path class="cls-31" d="M924.65,550.49a7.35,7.35,0,0,1-3.57-.94L877.17,525a7.33,7.33,0,0,1,3.59-13.72,7.37,7.37,0,0,1,3.57.93l43.91,24.53a7.33,7.33,0,0,1-3.59,13.72Z" transform="translate(-401.82 -205.6)"/><path d="M880.76,511.72a6.86,6.86,0,0,1,3.36.89L928,537.13a6.91,6.91,0,0,1-6.75,12.06l-43.91-24.53a6.91,6.91,0,0,1-2.65-9.4,6.92,6.92,0,0,1,6-3.54m0-.83a7.74,7.74,0,0,0-3.79,14.5l43.91,24.52a7.74,7.74,0,1,0,7.56-13.5l-43.91-24.53a7.7,7.7,0,0,0-3.77-1Z" transform="translate(-401.82 -205.6)"/><path class="cls-31" d="M881.68,541.93c-4.1-2.41-9.09-5.65-9.09-5.65l-9.71-10.38L864.6,516l17.62-12.22,2.94-2.19,3.84-1,17.33,9.65S881.28,522.13,881.68,541.93Z" transform="translate(-401.82 -205.6)"/><path class="cls-27" d="M997.73,348.85,975,371.58s6.16,9.38,0,12-29.69,3.24-45.34-17.36c10.62-17,20.24-39.41,20.24-39.41Z" transform="translate(-401.82 -205.6)"/><path class="cls-31" d="M978.37,363.21c-1.09,0-2.19,0-3.26-.07a71.24,71.24,0,0,1-67.44-61.89,74.36,74.36,0,0,1-.59-9.31,71.29,71.29,0,1,1,71.29,71.27Z" transform="translate(-401.82 -205.6)"/><path d="M978.37,221.07a71,71,0,0,1,70.86,70.87,72.06,72.06,0,0,1-.61,9.34,71,71,0,0,1-70.25,61.52c-1.08,0-2.17,0-3.24-.08a70.8,70.8,0,0,1-67-61.53,70.91,70.91,0,0,1,70.28-80.12m0-.84a71.72,71.72,0,0,0-71.71,71.71,74.32,74.32,0,0,0,.6,9.36,71.63,71.63,0,0,0,67.83,62.25c1.08.05,2.18.08,3.28.08a71.71,71.71,0,0,0,71.08-62.24,73.77,73.77,0,0,0,.61-9.45,71.7,71.7,0,0,0-71.69-71.71Z" transform="translate(-401.82 -205.6)"/><path class="cls-1" d="M958.35,289.67c-10.57,4.53-10.57,16.6,0,13.58" transform="translate(-401.82 -205.6)"/><line class="cls-1" x1="521.06" y1="78.78" x2="548.23" y2="78.78"/><line class="cls-1" x1="530.11" y1="86.33" x2="530.11" y2="78.78"/><line class="cls-1" x1="569.36" y1="78.78" x2="600.3" y2="78.78"/><line class="cls-1" x1="578.42" y1="87.84" x2="578.42" y2="78.78"/><path class="cls-1" d="M958.35,313.82c0,4.53-4.53,6-4.53,7.55s1.51,1.51,7.55,1.51" transform="translate(-401.82 -205.6)"/><line class="cls-1" x1="554" y1="117.27" x2="559.55" y2="124.82"/><path class="cls-36" d="M942,321.14a2.79,2.79,0,0,1-1.52-5.13l12.83-8.3a2.79,2.79,0,1,1,3,4.68l-12.83,8.3A2.8,2.8,0,0,1,942,321.14Z" transform="translate(-401.82 -205.6)"/><path class="cls-36" d="M975.71,321.14a2.83,2.83,0,0,1-1.52-.45l-12.83-8.3a2.79,2.79,0,0,1,3-4.68l12.83,8.3a2.79,2.79,0,0,1-1.51,5.13Z" transform="translate(-401.82 -205.6)"/><path class="cls-37" d="M975.09,364.6a71.77,71.77,0,0,1-62-41.89,8.26,8.26,0,0,0,1.48.83c3.89,1.66,7.76,5.29,11.17,9.39a99.2,99.2,0,0,1,8.52,12.19,11.12,11.12,0,0,0,10.53,5.34l17.33-1.5a113,113,0,0,1,19.64,0l15.8,1.38c4.66.41,4.23-4.5,6.11-8.77a39.62,39.62,0,0,1,20.68-20.43c1.69-.73,4.6-2.92,5.48-4.54l3.64-13.92C1055.39,332.71,1012,363.1,975.09,364.6Z" transform="translate(-401.82 -205.6)"/><path class="cls-37" d="M1043.33,314.51v4.41a7,7,0,0,1-.87,3.37l-2,3.84-3.07,5.47s-3.95,5.16-4.4,5.38-4.73-10.71-2.33-14.2,3.94-9.47,4.15-10.2,5.91-3.38,6.47-2.88,2,2,1.92,3.27S1043.33,314.51,1043.33,314.51Z" transform="translate(-401.82 -205.6)"/><path class="cls-36" d="M1050.06,281.66c0,1.72-.08,3.42-.21,5.11v0c-.3,2-12.95-2.87-13.93-1.1-1.06,1.93-1.71,11.89-1.92,14.07a1.32,1.32,0,0,1-1.31,1.23,1.34,1.34,0,0,1-1.35-.92l-8.65-25.1a6.28,6.28,0,0,0-5.24-4.21c-20.75-2.36-35-24.28-39.1-43.33a1.55,1.55,0,0,0-3-.12c-9.56,31.7-33.29,50.83-62.56,57.65a8.12,8.12,0,0,0-6.13,6.34l.6,10c-.13.66.39.89-.1.72a1,1,0,0,1-.67-.77l-.48-2.78-2.25-13c-.08-1.27-.12-2.55-.12-3.83,0-36.68,32.77-66.42,73.21-66.42S1050.06,245,1050.06,281.66Z" transform="translate(-401.82 -205.6)"/><ellipse class="cls-1" cx="520.41" cy="88.89" rx="23.69" ry="30.19"/><ellipse class="cls-1" cx="588.16" cy="88.89" rx="27.48" ry="30.19"/><ellipse class="cls-38" cx="520.41" cy="88.89" rx="23.69" ry="30.19"/><ellipse class="cls-38" cx="588.16" cy="88.89" rx="27.48" ry="30.19"/><path class="cls-39" d="M1034.51,320c10.79,3.2,26-2.12,29.15-12.91a20.38,20.38,0,0,0-33-21.07" transform="translate(-401.82 -205.6)"/><polyline class="cls-27" points="650.95 87.98 638.62 97.38 654.08 99.99"/></svg>