<svg xmlns="http://www.w3.org/2000/svg" viewBox="0 0 948.93 831.17"><defs><style>.cls-1{fill:#00aced;}.cls-2{fill:#00a0ed;}.cls-3{fill:#fff;}</style></defs><g id="Calque_1" data-name="Calque 1"><path class="cls-1" d="M1416.7,574.93C1269.44,706.41,615.76,958,521.15,958c-87.6,0,88.42-575.15,154.34-781.35a71.62,71.62,0,0,1,4.29-10.51C1019,295.65,1412.71,488.89,1417,569.25A28.91,28.91,0,0,1,1416.7,574.93Z" transform="translate(-497.2 -126.83)"/><path class="cls-2" d="M1446.13,531.09c0,12.12-10.56,27-29.43,43.84a28.91,28.91,0,0,0,.28-5.68c-4.27-80.36-398-273.6-737.2-403.11,16.4-32.6,55.51-48.29,90.42-34C1054.47,248.26,1446.13,457.88,1446.13,531.09Z" transform="translate(-497.2 -126.83)"/><path class="cls-3" d="M1106.58,479.65c.23,4.51.39,9.06.39,13.77,0,140.79-107.2,303.23-303.3,303.23A300,300,0,0,1,640.2,748.83a200.17,200.17,0,0,0,25.51,1.46,214.13,214.13,0,0,0,132.12-45.45c-46.59-1-85.76-32-99.57-74.23a94.18,94.18,0,0,0,20.17,1.82,106,106,0,0,0,27.94-3.51A107,107,0,0,1,661,524.22v-1.17a105.15,105.15,0,0,0,48.14,13.12,106.57,106.57,0,0,1-32.75-142.42C729.06,458.43,807.45,500.89,896,505.21a109.35,109.35,0,0,1-2.48-24.3,106.55,106.55,0,0,1,184.33-72.86,213,213,0,0,0,67.58-25.8,106,106,0,0,1-46.88,58.9,222.22,222.22,0,0,0,61.4-16.83A212.8,212.8,0,0,1,1106.58,479.65Z" transform="translate(-497.2 -126.83)"/></g></svg>