<svg id="Calque_1" data-name="Calque 1" xmlns="http://www.w3.org/2000/svg" viewBox="0 0 595.19 486.58"><defs><style>.cls-1{fill:#0a153a;}</style></defs><path d="M666.2,730a292.48,292.48,0,0,0,42.59,0,238.52,238.52,0,0,0,46.31-8.27A248.34,248.34,0,0,0,824.93,690a120.67,120.67,0,0,0,16.25-12.23c-26.68-1.3-50.2-9-70.7-24.39s-35-35.24-43.42-60.65A121.81,121.81,0,0,0,779.77,591c-.13-2.13-57.07-18.93-79.71-60.24-10.89-18.47-15.76-38.66-16.41-60-.09-3.14,1.74-1.47,2.69-1a121.17,121.17,0,0,0,38.19,12.57c4.31.7,8.73.73,13.64,1.11-55-45.32-66.8-99.63-37.76-164.23,7.64,8.33,14.44,16.06,21.58,23.46a350.66,350.66,0,0,0,158.52,93.46A347.85,347.85,0,0,0,950,447.69c4.54.29,4.95-1.39,4.32-5.12-7.88-46.47,5.93-85.74,41.21-116.53,24.75-21.61,54.45-30.74,87.49-28.5q46,3.1,78.47,35.57c2.22,2.22,4.37,2.42,7.29,1.76,23.51-5.32,46-13.38,67-25.28,1.49-.84,3.1-1.47,6-2.86-9.89,28.72-27,50-51.27,66.1,22.83-1.65,44.35-8.25,66.53-17.17-2.9,6.62-6.9,11-10.45,15.39-13.11,16.3-27.71,31.15-44.78,43.41-3.07,2.2-4.32,4.73-4.19,8.79a341.69,341.69,0,0,1-11.76,99.69,366.27,366.27,0,0,1-63.28,128.88,334.85,334.85,0,0,1-78.75,74.43,322.2,322.2,0,0,1-74.6,37.47,363.28,363.28,0,0,1-75.44,17.41,377.32,377.32,0,0,1-73.6,1.58,336.52,336.52,0,0,1-91-19.7,353.05,353.05,0,0,1-64.17-31,17,17,0,0,1-2.12-1.8A3.49,3.49,0,0,1,666.2,730Z" transform="translate(-661.87 -297.21)"/><path class="cls-1" d="M666.44,729.6l-3.26.21c-.42-.07-1.07,0-1.22-.23-.3-.47.17-.77.63-.74C663.9,728.91,665.29,728.68,666.44,729.6Z" transform="translate(-661.87 -297.21)"/></svg>