<svg id="Calque_1" data-name="Calque 1" xmlns="http://www.w3.org/2000/svg" viewBox="0 0 581.29 417.8"><defs><style>.cls-1{fill:#fc0000;}.cls-2{fill:#f7f7f7;}</style></defs><path class="cls-1" d="M758.16,746.14c-54.2-2.56-79-29.11-83.58-81.72a1406,1406,0,0,1-.12-240.78c4.72-55,31.86-82.63,88.72-86.05a3264.39,3264.39,0,0,1,392.31-.09c61.14,3.67,86.85,31.65,91.06,91.21a1604,1604,0,0,1,.18,226.45C1242.37,717,1217.42,745,1154,747.88S826.41,749.36,758.16,746.14Z" transform="translate(-669.36 -331.65)"/><path class="cls-2" d="M885.78,439.51l200.53,109.85L885.78,657.44Z" transform="translate(-669.36 -331.65)"/></svg>