<svg xmlns="http://www.w3.org/2000/svg" viewBox="0 0 948.93 831.17"><defs><style>.cls-1{fill:#f70000;}.cls-2{fill:#df0000;}.cls-3{fill:#fff;}</style></defs><g id="Calque_1" data-name="Calque 1"><path class="cls-1" d="M1416.7,574.93C1269.44,706.41,615.76,958,521.15,958c-87.6,0,88.42-575.15,154.34-781.35a71.62,71.62,0,0,1,4.29-10.51C1019,295.65,1412.71,488.89,1417,569.25A28.91,28.91,0,0,1,1416.7,574.93Z" transform="translate(-497.2 -126.83)"/><path class="cls-2" d="M1446.13,531.09c0,12.12-10.56,27-29.43,43.84a28.91,28.91,0,0,0,.28-5.68c-4.27-80.36-398-273.6-737.2-403.11,16.4-32.6,55.51-48.29,90.42-34C1054.47,248.26,1446.13,457.88,1446.13,531.09Z" transform="translate(-497.2 -126.83)"/><path class="cls-3" d="M942,376V484.14q0,14,2.2,20.58,3.55,10.15,16.18,10.15,13.73,0,28.26-17V513h25V376h-25V480.57q-8.24,11.82-15.64,11.8c-3.29,0-5.22-2-5.76-6-.19-.37-.28-3.58-.28-9.61V376Z" transform="translate(-497.2 -126.83)"/><path class="cls-3" d="M884.92,514.87q18.93,0,29.09-14,7.68-10.14,7.68-32.38v-48q0-21.94-7.68-32.09-10.15-14-29.09-14-18.39,0-28.81,14-7.68,10.16-7.68,32.09v48q0,22,7.68,32.38Q866.53,514.88,884.92,514.87Zm-11.8-99.33q0-18.93,11.8-18.92t11.8,18.92v57.62q0,19.21-11.8,19.21t-11.8-19.21Z" transform="translate(-497.2 -126.83)"/><path class="cls-3" d="M815,513V438.59l33.2-109.48h-28l-18.66,72.17L782,329.11H752.94q7.68,23.06,17.84,51.31,12.88,37.88,16.73,58.18V513H815Z" transform="translate(-497.2 -126.83)"/><path class="cls-3" d="M1071.09,556a50.29,50.29,0,0,0-28.12-12.9q-50.49-5.48-152.28-5.49t-152,5.49A49.87,49.87,0,0,0,710.41,556,52.12,52.12,0,0,0,694.5,583.2q-7.14,31.83-7.13,96,0,65.29,7.13,96a50.1,50.1,0,0,0,15.77,27.16,48.63,48.63,0,0,0,28.13,12.63q50.48,5.76,152.28,5.75T1043,815.06a48,48,0,0,0,28-12.63,52.18,52.18,0,0,0,15.92-27.16q7.13-31.83,7.13-96,0-65.31-7.13-96A50.2,50.2,0,0,0,1071.09,556ZM803.43,610.91H774.07V767H746.63V610.91h-28.8V585.12h85.61v25.79ZM877.51,767H853.09V752.21Q838.27,769,825.1,769q-12.63,0-15.92-10.15-2.19-6.59-2.19-20V631.48h24.42v99.88q0,8.79.28,9.61.82,5.74,5.76,5.75,7.41,0,15.64-11.52V631.48h24.43V767Zm93.29-40.6q0,20-2.47,27.43-4.67,15.09-19.48,15.09-13.17,0-25.52-15.09V767H898.91V585.12h24.42v59.54q11.79-14.8,25.52-14.82,14.82,0,19.48,15.36,2.48,7.14,2.47,27.17Zm92.74-22.5h-49.11V727.8q0,18.93,12.62,18.92,9.06,0,11-9.87c.36-1.83.55-7.4.55-16.74h25v3.57c0,9-.18,14.26-.55,15.92a33.37,33.37,0,0,1-5.76,14.81q-9.87,14.54-29.63,14.55-18.93,0-29.64-14-8-10.15-8-31.83V675.66q0-21.66,7.68-31.83,10.69-14,29.36-14,18.38,0,29.08,14,7.41,10.17,7.41,31.83v28.27Z" transform="translate(-497.2 -126.83)"/><path class="cls-3" d="M1026.78,652.06q-12.36,0-12.35,18.66v12.63h24.7V670.72Q1039.11,652.07,1026.78,652.06Z" transform="translate(-497.2 -126.83)"/><path class="cls-3" d="M935.68,652.06q-6.31,0-12.34,6.05v82.58q6,6,12.34,6,10.71,0,10.71-18.38V670.45Q946.38,652.06,935.68,652.06Z" transform="translate(-497.2 -126.83)"/></g></svg>